0
SECTION
2
HEADER
9
$INSUNITS
70
4
9
$ACADVER
1
AC1014
9
$HANDSEED
5
FFFF
0
ENDSEC
0
SECTION
2
TABLES
0
TABLE
2
VPORT
5
8
100
AcDbSymbolTable
0
ENDTAB
0
TABLE
2
LTYPE
5
5
100
AcDbSymbolTable
0
LTYPE
5
14
100
AcDbSymbolTableRecord
100
AcDbLinetypeTableRecord
2
BYBLOCK
70
0
0
LTYPE
5
15
100
AcDbSymbolTableRecord
100
AcDbLinetypeTableRecord
2
BYLAYER
70
0
0
ENDTAB
0
TABLE
2
LAYER
5
2
100
AcDbSymbolTable
70
2
0
LAYER
5
50
100
AcDbSymbolTableRecord
100
AcDbLayerTableRecord
2
0
70
0
6
CONTINUOUS
0
ENDTAB
0
TABLE
2
STYLE
5
3
100
AcDbSymbolTable
70
1
0
STYLE
5
11
100
AcDbSymbolTableRecord
100
AcDbTextStyleTableRecord
2
STANDARD
70
0
0
ENDTAB
0
TABLE
2
VIEW
5
6
100
AcDbSymbolTable
70
0
0
ENDTAB
0
TABLE
2
UCS
5
7
100
AcDbSymbolTable
70
0
0
ENDTAB
0
TABLE
2
APPID
5
9
100
AcDbSymbolTable
70
2
0
APPID
5
12
100
AcDbSymbolTableRecord
100
AcDbRegAppTableRecord
2
ACAD
70
0
0
ENDTAB
0
TABLE
2
DIMSTYLE
5
A
100
AcDbSymbolTable
70
1
0
ENDTAB
0
TABLE
2
BLOCK_RECORD
5
1
100
AcDbSymbolTable
70
1
0
BLOCK_RECORD
5
1F
100
AcDbSymbolTableRecord
100
AcDbBlockTableRecord
2
*MODEL_SPACE
0
BLOCK_RECORD
5
1B
100
AcDbSymbolTableRecord
100
AcDbBlockTableRecord
2
*PAPER_SPACE
0
ENDTAB
0
ENDSEC
0
SECTION
2
BLOCKS
0
BLOCK
5
20
100
AcDbEntity
100
AcDbBlockBegin
2
*MODEL_SPACE
0
ENDBLK
5
21
100
AcDbEntity
100
AcDbBlockEnd
0
BLOCK
5
1C
100
AcDbEntity
100
AcDbBlockBegin
2
*PAPER_SPACE
0
ENDBLK
5
1D
100
AcDbEntity
100
AcDbBlockEnd
0
ENDSEC
0
SECTION
2
ENTITIES
0
LWPOLYLINE
5
100
100
AcDbEntity
8
0
100
AcDbPolyline
90
78
70
1
43
0.0
10
-335.0925248347354
20
185.4100000000652
42
-0.83887049282710846
10
-337.3574751653257
20
185.41000000006568
10
-375.09252483473239
20
185.41000000007375
42
-0.83887049283997572
10
-377.35747516532865
20
185.41000000007426
10
-415.09252483472937
20
185.41000000008225
42
-0.83887049285279114
10
-417.35747516533172
20
185.41000000008273
10
-455.09252483472619
20
185.41000000009078
42
-0.83887049286558912
10
-457.35747516533456
20
185.41000000009126
10
-494.8923977524077
20
185.4100000000993
42
-0.83887049287846471
10
-497.15734808302204
20
185.41000000009979
10
-523.24000310792155
20
185.4100000001053
42
0.41421089260536509
10
-528.31000000010511
20
180.34000310615116
10
-528.31000000009271
20
162.58121872770107
42
-0.83887049288875792
10
-528.31000000009124
20
160.31626839708193
10
-528.31000000006657
20
124.79870585248479
42
-0.83887049289239113
10
-528.31000000006486
20
122.53375552186392
10
-528.31000000004019
20
87.016192977268489
42
-0.83887049289602444
10
-528.3100000000386
20
84.751242646645935
10
-528.3100000000137
20
49.233680102052261
42
-0.8388704928996068
10
-528.31000000001234
20
46.968729771427945
10
-528.30999999999995
20
29.209999999999997
42
0.41421356237309509
10
-523.2399999999999
20
24.140000000000054
10
-505.63996746014129
20
24.140000000000011
42
-0.83887049280788151
10
-503.37501712956009
20
24.140000000000011
10
-468.17497259690748
20
24.140000000000001
42
-0.83887049280789006
10
-465.91002226632634
20
24.139999999999993
10
-448.31000988619218
20
24.139999999999993
42
0.41421356170203449
10
-443.24000000000007
20
29.209970102191743
10
-443.24000000000001
20
43.189999999999998
10
-417.35747516529204
20
43.189999999999998
42
-0.83887049281342951
10
-415.09252483470817
20
43.189999999999998
10
-377.35747516529204
20
43.189999999999998
42
-0.83887049281342951
10
-375.09252483470817
20
43.189999999999998
10
-337.35747516529204
20
43.189999999999998
42
-0.83887049281342951
10
-335.09252483470817
20
43.189999999999998
10
-297.35747516529199
20
43.189999999999998
42
-0.83887049281345261
10
-295.09252483470812
20
43.190000000000012
10
-257.35747516529176
20
43.189999999999998
42
-0.83887049281345261
10
-255.09252483470792
20
43.190000000000012
10
-217.35747516529182
20
43.190000000000012
42
-0.83887049281345349
10
-215.09252483470794
20
43.189999999999998
10
-177.35747516529182
20
43.189999999999998
42
-0.83887049281345571
10
-175.09252483470794
20
43.189999999999998
10
-137.35747516529182
20
43.190000000000012
42
-0.83887049281345683
10
-135.09252483470794
20
43.189999999999998
10
-109.20999999999995
20
43.189999999999998
10
-109.20999999999998
20
29.209999999999994
42
0.41421356237309476
10
-104.14
20
24.140000000000018
10
-86.539977733673666
20
24.140000000000011
42
-0.83887049280785742
10
-84.275027403092452
20
24.140000000000015
10
-49.074982870439769
20
24.139999999999993
42
-0.83887049280788184
10
-46.810032539858568
20
24.139999999999993
10
-29.210009886192264
20
24.139999999999993
42
0.41421240485786726
10
-24.140000000118196
20
29.20995007717783
10
-24.140000000104287
20
46.968729771448558
42
-0.8388704928119689
10
-24.140000000102525
20
49.233680102031684
10
-24.140000000074746
20
84.751242646665972
42
-0.83887049281079962
10
-24.140000000072984
20
87.016192977248551
10
-24.140000000045205
20
122.53375552188339
42
-0.83887049280963844
10
-24.140000000043436
20
124.79870585246543
10
-24.140000000015661
20
160.31626839710077
42
-0.83887049280847137
10
-24.140000000013899
20
162.58121872768228
10
-24.140000000000011
20
180.33999999999997
42
0.41421356237309509
10
-29.20999999999999
20
185.40999999999997
10
-55.292651916994515
20
185.41000000000554
42
-0.83887049280796888
10
-57.557602247575737
20
185.41000000000608
10
-95.09252483467904
20
185.41000000001404
42
-0.83887049280788939
10
-97.35747516526024
20
185.41000000001452
10
-135.0925248346789
20
185.41000000002256
42
-0.83887049280786452
10
-137.35747516526013
20
185.41000000002305
10
-175.09252483467893
20
185.41000000003109
42
-0.83887049280788939
10
-177.3574751652601
20
185.41000000003157
10
-215.09252483467893
20
185.41000000003962
42
-0.83887049280788939
10
-217.3574751652601
20
185.4100000000401
10
-255.0925248346789
20
185.41000000004814
42
-0.83887049280786119
10
-257.3574751652601
20
185.41000000004863
10
-295.09252483473841
20
185.41000000005667
42
-0.83887049281431902
10
-297.35747516532263
20
185.41000000005721
0
LWPOLYLINE
5
101
100
AcDbEntity
8
0
100
AcDbPolyline
90
8
70
1
43
0.0
10
-197.19999999999996
20
107.29999999999998
10
-183.79999999999998
20
107.29999999999998
42
0.41421356237311241
10
-183.49999999999997
20
107.59999999999998
10
-183.49999999999997
20
120.99999999999997
42
0.41421356237297358
10
-183.79999999999995
20
121.29999999999995
10
-197.19999999999996
20
121.29999999999995
42
0.41421356237307771
10
-197.49999999999997
20
121
10
-197.49999999999997
20
107.59999999999999
42
0.41421356237307771
0
LWPOLYLINE
5
102
100
AcDbEntity
8
0
100
AcDbPolyline
90
8
70
1
43
0.0
10
-178.14999999999995
20
126.34999999999998
10
-164.74999999999997
20
126.34999999999998
42
0.41421356237312973
10
-164.44999999999996
20
126.64999999999998
10
-164.44999999999996
20
140.04999999999998
42
0.41421356237302565
10
-164.74999999999994
20
140.34999999999997
10
-178.14999999999995
20
140.34999999999997
42
0.41421356237312973
10
-178.44999999999996
20
140.04999999999998
10
-178.44999999999996
20
126.64999999999998
42
0.41421356237312973
0
LWPOLYLINE
5
103
100
AcDbEntity
8
0
100
AcDbPolyline
90
8
70
1
43
0.0
10
-159.09999999999994
20
88.25
10
-145.69999999999999
20
88.249999999999972
42
0.41421356237311241
10
-145.39999999999995
20
88.549999999999983
10
-145.39999999999998
20
101.94999999999999
42
0.41421356237311241
10
-145.69999999999996
20
102.24999999999997
10
-159.09999999999994
20
102.24999999999997
42
0.41421356237311241
10
-159.39999999999995
20
101.94999999999999
10
-159.39999999999995
20
88.549999999999983
42
0.41421356237311241
0
LWPOLYLINE
5
104
100
AcDbEntity
8
0
100
AcDbPolyline
90
8
70
1
43
0.0
10
-197.19999999999996
20
69.199999999999989
10
-183.79999999999998
20
69.199999999999989
42
0.41421356237312101
10
-183.49999999999997
20
69.499999999999986
10
-183.49999999999997
20
82.899999999999977
42
0.41421356237300833
10
-183.79999999999995
20
83.199999999999989
10
-197.19999999999996
20
83.199999999999989
42
0.41421356237312973
10
-197.49999999999997
20
82.899999999999977
10
-197.49999999999997
20
69.499999999999986
42
0.414213562373069
0
LWPOLYLINE
5
105
100
AcDbEntity
8
0
100
AcDbPolyline
90
8
70
1
43
0.0
10
-178.14999999999995
20
164.44999999999996
10
-164.74999999999997
20
164.44999999999996
42
0.41421356237309509
10
-164.44999999999996
20
164.74999999999997
10
-164.44999999999996
20
178.14999999999998
42
0.41421356237295631
10
-164.74999999999994
20
178.44999999999996
10
-178.14999999999995
20
178.44999999999996
42
0.41421356237312973
10
-178.44999999999996
20
178.14999999999998
10
-178.44999999999996
20
164.74999999999997
42
0.41421356237309509
0
LWPOLYLINE
5
106
100
AcDbEntity
8
0
100
AcDbPolyline
90
8
70
1
43
0.0
10
-178.14999999999995
20
50.149999999999999
10
-164.74999999999997
20
50.149999999999991
42
0.41421356237311241
10
-164.44999999999996
20
50.449999999999982
10
-164.44999999999996
20
63.84999999999998
42
0.41421356237298229
10
-164.74999999999994
20
64.149999999999977
10
-178.14999999999995
20
64.149999999999977
42
0.41421356237307771
10
-178.44999999999996
20
63.849999999999987
10
-178.44999999999996
20
50.449999999999989
42
0.414213562373069
0
LWPOLYLINE
5
107
100
AcDbEntity
8
0
100
AcDbPolyline
90
8
70
1
43
0.0
10
-273.39999999999992
20
107.29999999999998
10
-259.99999999999994
20
107.29999999999998
42
0.41421356237311241
10
-259.69999999999993
20
107.59999999999998
10
-259.69999999999993
20
120.99999999999997
42
0.41421356237297358
10
-259.99999999999994
20
121.29999999999995
10
-273.39999999999992
20
121.29999999999995
42
0.41421356237307771
10
-273.69999999999993
20
121
10
-273.69999999999993
20
107.59999999999999
42
0.41421356237307771
0
LWPOLYLINE
5
108
100
AcDbEntity
8
0
100
AcDbPolyline
90
8
70
1
43
0.0
10
-406.75
20
88.25
10
-393.35000000000002
20
88.249999999999972
42
0.41421356237321644
10
-393.05000000000001
20
88.549999999999983
10
-393.05000000000001
20
101.94999999999999
42
0.41421356237295631
10
-393.35000000000002
20
102.24999999999997
10
-406.75
20
102.24999999999997
42
0.4142135623731471
10
-407.04999999999995
20
101.94999999999999
10
-407.04999999999995
20
88.549999999999983
42
0.41421356237295631
0
LWPOLYLINE
5
109
100
AcDbEntity
8
0
100
AcDbPolyline
90
8
70
1
43
0.0
10
-120.99999999999996
20
107.29999999999998
10
-107.59999999999999
20
107.29999999999998
42
0.4142135623731471
10
-107.29999999999998
20
107.59999999999998
10
-107.29999999999998
20
120.99999999999997
42
0.41421356237297358
10
-107.59999999999994
20
121.29999999999995
10
-120.99999999999994
20
121.29999999999995
42
0.41421356237304296
10
-121.29999999999995
20
121
10
-121.29999999999995
20
107.59999999999999
42
0.41421356237304296
0
LWPOLYLINE
5
110
100
AcDbEntity
8
0
100
AcDbPolyline
90
8
70
1
43
0.0
10
-235.29999999999998
20
126.34999999999998
10
-221.90000000000001
20
126.34999999999998
42
0.41421356237312973
10
-221.59999999999999
20
126.64999999999998
10
-221.59999999999999
20
140.04999999999998
42
0.41421356237302565
10
-221.89999999999998
20
140.34999999999997
10
-235.29999999999998
20
140.34999999999997
42
0.41421356237312973
10
-235.59999999999999
20
140.04999999999998
10
-235.59999999999999
20
126.64999999999998
42
0.41421356237312973
0
LWPOLYLINE
5
111
100
AcDbEntity
8
0
100
AcDbPolyline
90
8
70
1
43
0.0
10
-349.59999999999991
20
88.25
10
-336.19999999999999
20
88.249999999999972
42
0.41421356237321644
10
-335.89999999999998
20
88.549999999999983
10
-335.89999999999998
20
101.94999999999999
42
0.41421356237295631
10
-336.19999999999999
20
102.24999999999997
10
-349.59999999999991
20
102.24999999999997
42
0.4142135623731471
10
-349.89999999999998
20
101.94999999999999
10
-349.89999999999998
20
88.549999999999983
42
0.41421356237295631
0
LWPOLYLINE
5
112
100
AcDbEntity
8
0
100
AcDbPolyline
90
8
70
1
43
0.0
10
-425.79999999999995
20
107.29999999999998
10
-412.40000000000003
20
107.29999999999998
42
0.41421356237328577
10
-412.10000000000002
20
107.59999999999998
10
-412.10000000000002
20
120.99999999999997
42
0.41421356237293888
10
-412.40000000000003
20
121.29999999999995
10
-425.79999999999995
20
121.29999999999995
42
0.41421356237292162
10
-426.10000000000002
20
121
10
-426.10000000000002
20
107.59999999999999
42
0.41421356237312973
0
LWPOLYLINE
5
113
100
AcDbEntity
8
0
100
AcDbPolyline
90
8
70
1
43
0.0
10
-45.099999999999973
20
63.849999999999987
10
-45.099999999999973
20
50.449999999999989
42
0.41421356237304296
10
-44.799999999999997
20
50.149999999999999
10
-31.399999999999999
20
50.149999999999991
42
0.414213562373069
10
-31.099999999999987
20
50.449999999999982
10
-31.099999999999987
20
63.84999999999998
42
0.4142135623730604
10
-31.399999999999963
20
64.149999999999977
10
-44.799999999999962
20
64.149999999999977
42
0.41421356237308637
0
LWPOLYLINE
5
114
100
AcDbEntity
8
0
100
AcDbPolyline
90
8
70
1
43
0.0
10
-330.54999999999995
20
107.29999999999998
10
-317.14999999999998
20
107.29999999999998
42
0.41421356237307771
10
-316.84999999999997
20
107.59999999999998
10
-316.84999999999997
20
120.99999999999997
42
0.41421356237302565
10
-317.14999999999992
20
121.29999999999995
10
-330.54999999999995
20
121.29999999999995
42
0.41421356237292162
10
-330.84999999999991
20
121
10
-330.84999999999991
20
107.59999999999999
42
0.41421356237312973
0
LWPOLYLINE
5
115
100
AcDbEntity
8
0
100
AcDbPolyline
90
8
70
1
43
0.0
10
-101.94999999999995
20
126.34999999999998
10
-88.549999999999983
20
126.34999999999998
42
0.41421356237311241
10
-88.249999999999972
20
126.64999999999998
10
-88.249999999999972
20
140.04999999999998
42
0.41421356237311241
10
-88.549999999999955
20
140.34999999999997
10
-101.94999999999995
20
140.34999999999997
42
0.41421356237311241
10
-102.24999999999996
20
140.04999999999998
10
-102.24999999999996
20
126.64999999999998
42
0.41421356237311241
0
LWPOLYLINE
5
116
100
AcDbEntity
8
0
100
AcDbPolyline
90
8
70
1
43
0.0
10
-406.75
20
126.34999999999998
10
-393.35000000000002
20
126.34999999999998
42
0.41421356237321644
10
-393.05000000000001
20
126.64999999999998
10
-393.05000000000001
20
140.04999999999998
42
0.41421356237295631
10
-393.35000000000002
20
140.34999999999997
10
-406.75
20
140.34999999999997
42
0.4142135623731471
10
-407.04999999999995
20
140.04999999999998
10
-407.04999999999995
20
126.64999999999998
42
0.41421356237295631
0
LWPOLYLINE
5
117
100
AcDbEntity
8
0
100
AcDbPolyline
90
8
70
1
43
0.0
10
-63.850000000000009
20
107.29999999999998
10
-50.45000000000001
20
107.29999999999998
42
0.41421356237310364
10
-50.149999999999999
20
107.59999999999998
10
-50.149999999999999
20
120.99999999999997
42
0.41421356237301699
10
-50.44999999999996
20
121.29999999999995
10
-63.849999999999966
20
121.29999999999995
42
0.41421356237308637
10
-64.149999999999977
20
121
10
-64.149999999999977
20
107.59999999999999
42
0.41421356237308637
0
LWPOLYLINE
5
118
100
AcDbEntity
8
0
100
AcDbPolyline
90
8
70
1
43
0.0
10
-521.04999999999995
20
88.25
10
-507.64999999999992
20
88.249999999999972
42
0.41421356237321644
10
-507.34999999999991
20
88.549999999999983
10
-507.34999999999991
20
101.94999999999999
42
0.41421356237300833
10
-507.64999999999986
20
102.24999999999997
10
-521.04999999999995
20
102.24999999999997
42
0.4142135623731471
10
-521.34999999999991
20
101.94999999999999
10
-521.34999999999991
20
88.549999999999983
42
0.41421356237295631
0
LWPOLYLINE
5
119
100
AcDbEntity
8
0
100
AcDbPolyline
90
8
70
1
43
0.0
10
-311.49999999999989
20
126.34999999999998
10
-298.09999999999997
20
126.34999999999998
42
0.41421356237309509
10
-297.79999999999995
20
126.64999999999998
10
-297.79999999999995
20
140.04999999999998
42
0.41421356237304296
10
-298.09999999999991
20
140.34999999999997
10
-311.49999999999989
20
140.34999999999997
42
0.41421356237309509
10
-311.79999999999995
20
140.04999999999998
10
-311.79999999999995
20
126.64999999999998
42
0.41421356237309509
0
LWPOLYLINE
5
120
100
AcDbEntity
8
0
100
AcDbPolyline
90
8
70
1
43
0.0
10
-330.54999999999995
20
126.34999999999998
10
-317.14999999999998
20
126.34999999999998
42
0.41421356237309509
10
-316.84999999999997
20
126.64999999999998
10
-316.84999999999997
20
140.04999999999998
42
0.41421356237304296
10
-317.14999999999992
20
140.34999999999997
10
-330.54999999999995
20
140.34999999999997
42
0.4142135623731471
10
-330.84999999999991
20
140.04999999999998
10
-330.84999999999991
20
126.64999999999998
42
0.41421356237295631
0
LWPOLYLINE
5
121
100
AcDbEntity
8
0
100
AcDbPolyline
90
8
70
1
43
0.0
10
-444.84999999999991
20
126.34999999999998
10
-431.44999999999993
20
126.34999999999998
42
0.4142135623731471
10
-431.14999999999998
20
126.64999999999998
10
-431.14999999999998
20
140.04999999999998
42
0.41421356237304296
10
-431.44999999999987
20
140.34999999999997
10
-444.84999999999991
20
140.34999999999997
42
0.41421356237321644
10
-445.14999999999992
20
140.04999999999998
10
-445.14999999999992
20
126.64999999999998
42
0.41421356237295631
0
LWPOLYLINE
5
122
100
AcDbEntity
8
0
100
AcDbPolyline
90
8
70
1
43
0.0
10
-44.799999999999997
20
88.25
10
-31.399999999999999
20
88.249999999999972
42
0.41421356237308204
10
-31.099999999999987
20
88.549999999999983
10
-31.099999999999987
20
101.94999999999999
42
0.41421356237307339
10
-31.399999999999963
20
102.24999999999997
10
-44.799999999999962
20
102.24999999999997
42
0.41421356237307771
10
-45.099999999999973
20
101.94999999999999
10
-45.099999999999973
20
88.549999999999983
42
0.414213562373069
0
LWPOLYLINE
5
123
100
AcDbEntity
8
0
100
AcDbPolyline
90
8
70
1
43
0.0
10
-292.44999999999993
20
88.25
10
-279.04999999999995
20
88.249999999999972
42
0.41421356237312973
10
-278.74999999999994
20
88.549999999999983
10
-278.74999999999994
20
101.94999999999999
42
0.41421356237302565
10
-279.04999999999995
20
102.24999999999997
10
-292.44999999999993
20
102.24999999999997
42
0.41421356237312973
10
-292.74999999999994
20
101.94999999999999
10
-292.74999999999994
20
88.549999999999983
42
0.41421356237312973
0
LWPOLYLINE
5
124
100
AcDbEntity
8
0
100
AcDbPolyline
90
8
70
1
43
0.0
10
-44.799999999999997
20
145.39999999999998
10
-31.399999999999999
20
145.39999999999998
42
0.41421356237308204
10
-31.099999999999987
20
145.69999999999999
10
-31.099999999999987
20
159.09999999999999
42
0.41421356237307339
10
-31.399999999999963
20
159.39999999999998
10
-44.799999999999962
20
159.39999999999998
42
0.41421356237307771
10
-45.099999999999973
20
159.09999999999999
10
-45.099999999999973
20
145.69999999999999
42
0.414213562373069
0
LWPOLYLINE
5
125
100
AcDbEntity
8
0
100
AcDbPolyline
90
8
70
1
43
0.0
10
-482.94999999999993
20
126.34999999999998
10
-469.54999999999995
20
126.34999999999998
42
0.4142135623731471
10
-469.25
20
126.64999999999998
10
-469.25
20
140.04999999999998
42
0.41421356237297358
10
-469.54999999999984
20
140.34999999999997
10
-482.94999999999987
20
140.34999999999997
42
0.4142135623731471
10
-483.24999999999989
20
140.04999999999998
10
-483.24999999999989
20
126.64999999999998
42
0.41421356237288692
0
LWPOLYLINE
5
126
100
AcDbEntity
8
0
100
AcDbPolyline
90
8
70
1
43
0.0
10
-368.64999999999998
20
145.39999999999998
10
-355.25
20
145.39999999999998
42
0.41421356237321644
10
-354.94999999999999
20
145.69999999999999
10
-354.94999999999999
20
159.09999999999999
42
0.41421356237295631
10
-355.25
20
159.39999999999998
10
-368.64999999999998
20
159.39999999999998
42
0.4142135623731471
10
-368.94999999999993
20
159.09999999999999
10
-368.94999999999993
20
145.69999999999999
42
0.41421356237295631
0
LWPOLYLINE
5
127
100
AcDbEntity
8
0
100
AcDbPolyline
90
8
70
1
43
0.0
10
-501.99999999999989
20
126.34999999999998
10
-488.59999999999991
20
126.34999999999998
42
0.41421356237321644
10
-488.2999999999999
20
126.64999999999998
10
-488.2999999999999
20
140.04999999999998
42
0.41421356237300833
10
-488.59999999999985
20
140.34999999999997
10
-501.99999999999989
20
140.34999999999997
42
0.4142135623731471
10
-502.2999999999999
20
140.04999999999998
10
-502.2999999999999
20
126.64999999999998
42
0.41421356237295631
0
LWPOLYLINE
5
128
100
AcDbEntity
8
0
100
AcDbPolyline
90
8
70
1
43
0.0
10
-425.79999999999995
20
88.25
10
-412.40000000000003
20
88.249999999999972
42
0.41421356237321644
10
-412.10000000000002
20
88.549999999999983
10
-412.10000000000002
20
101.94999999999999
42
0.41421356237295631
10
-412.40000000000003
20
102.24999999999997
10
-425.79999999999995
20
102.24999999999997
42
0.4142135623731471
10
-426.10000000000002
20
101.94999999999999
10
-426.10000000000002
20
88.549999999999983
42
0.41421356237295631
0
LWPOLYLINE
5
129
100
AcDbEntity
8
0
100
AcDbPolyline
90
8
70
1
43
0.0
10
-387.69999999999993
20
145.39999999999998
10
-374.30000000000001
20
145.39999999999998
42
0.41421356237321644
10
-374
20
145.69999999999999
10
-374
20
159.09999999999999
42
0.41421356237295631
10
-374.30000000000001
20
159.39999999999998
10
-387.69999999999993
20
159.39999999999998
42
0.4142135623731471
10
-388
20
159.09999999999999
10
-388
20
145.69999999999999
42
0.41421356237295631
0
LWPOLYLINE
5
130
100
AcDbEntity
8
0
100
AcDbPolyline
90
8
70
1
43
0.0
10
-406.75
20
145.39999999999998
10
-393.35000000000002
20
145.39999999999998
42
0.41421356237321644
10
-393.05000000000001
20
145.69999999999999
10
-393.05000000000001
20
159.09999999999999
42
0.41421356237295631
10
-393.35000000000002
20
159.39999999999998
10
-406.75
20
159.39999999999998
42
0.4142135623731471
10
-407.04999999999995
20
159.09999999999999
10
-407.04999999999995
20
145.69999999999999
42
0.41421356237295631
0
LWPOLYLINE
5
131
100
AcDbEntity
8
0
100
AcDbPolyline
90
8
70
1
43
0.0
10
-482.94999999999993
20
69.199999999999989
10
-469.54999999999995
20
69.199999999999989
42
0.4142135623731471
10
-469.25
20
69.499999999999986
10
-469.25
20
82.899999999999977
42
0.41421356237299095
10
-469.54999999999984
20
83.199999999999989
10
-482.94999999999987
20
83.199999999999989
42
0.41421356237323376
10
-483.24999999999989
20
82.899999999999977
10
-483.24999999999989
20
69.499999999999986
42
0.41421356237286949
0
LWPOLYLINE
5
132
100
AcDbEntity
8
0
100
AcDbPolyline
90
8
70
1
43
0.0
10
-44.799999999999997
20
69.199999999999989
10
-31.399999999999999
20
69.199999999999989
42
0.41421356237307771
10
-31.099999999999987
20
69.499999999999986
10
-31.099999999999987
20
82.899999999999977
42
0.4142135623730907
10
-31.399999999999963
20
83.199999999999989
10
-44.799999999999962
20
83.199999999999989
42
0.41421356237312101
10
-45.099999999999973
20
82.899999999999977
10
-45.099999999999973
20
69.499999999999986
42
0.41421356237304296
0
LWPOLYLINE
5
133
100
AcDbEntity
8
0
100
AcDbPolyline
90
8
70
1
43
0.0
10
-444.84999999999991
20
145.39999999999998
10
-431.44999999999993
20
145.39999999999998
42
0.4142135623731471
10
-431.14999999999998
20
145.69999999999999
10
-431.14999999999998
20
159.09999999999999
42
0.41421356237304296
10
-431.44999999999987
20
159.39999999999998
10
-444.84999999999991
20
159.39999999999998
42
0.41421356237321644
10
-445.14999999999992
20
159.09999999999999
10
-445.14999999999992
20
145.69999999999999
42
0.41421356237295631
0
LWPOLYLINE
5
134
100
AcDbEntity
8
0
100
AcDbPolyline
90
8
70
1
43
0.0
10
-349.59999999999991
20
145.39999999999998
10
-336.19999999999999
20
145.39999999999998
42
0.41421356237321644
10
-335.89999999999998
20
145.69999999999999
10
-335.89999999999998
20
159.09999999999999
42
0.41421356237295631
10
-336.19999999999999
20
159.39999999999998
10
-349.59999999999991
20
159.39999999999998
42
0.4142135623731471
10
-349.89999999999998
20
159.09999999999999
10
-349.89999999999998
20
145.69999999999999
42
0.41421356237295631
0
LWPOLYLINE
5
135
100
AcDbEntity
8
0
100
AcDbPolyline
90
8
70
1
43
0.0
10
-482.94999999999993
20
50.149999999999999
10
-469.54999999999995
20
50.149999999999991
42
0.41421356237313844
10
-469.25
20
50.449999999999982
10
-469.25
20
63.84999999999998
42
0.41421356237297358
10
-469.54999999999984
20
64.149999999999977
10
-482.94999999999987
20
64.149999999999977
42
0.41421356237313844
10
-483.24999999999989
20
63.849999999999987
10
-483.24999999999989
20
50.449999999999989
42
0.41421356237286949
0
LWPOLYLINE
5
136
100
AcDbEntity
8
0
100
AcDbPolyline
90
8
70
1
43
0.0
10
-216.24999999999997
20
164.44999999999996
10
-202.84999999999999
20
164.44999999999996
42
0.41421356237309509
10
-202.54999999999998
20
164.74999999999997
10
-202.54999999999998
20
178.14999999999998
42
0.41421356237295631
10
-202.84999999999997
20
178.44999999999996
10
-216.24999999999997
20
178.44999999999996
42
0.41421356237312973
10
-216.54999999999998
20
178.14999999999998
10
-216.54999999999998
20
164.74999999999997
42
0.41421356237309509
0
LWPOLYLINE
5
137
100
AcDbEntity
8
0
100
AcDbPolyline
90
8
70
1
43
0.0
10
-235.29999999999998
20
164.44999999999996
10
-221.90000000000001
20
164.44999999999996
42
0.41421356237309509
10
-221.59999999999999
20
164.74999999999997
10
-221.59999999999999
20
178.14999999999998
42
0.41421356237295631
10
-221.89999999999998
20
178.44999999999996
10
-235.29999999999998
20
178.44999999999996
42
0.41421356237312973
10
-235.59999999999999
20
178.14999999999998
10
-235.59999999999999
20
164.74999999999997
42
0.41421356237309509
0
LWPOLYLINE
5
138
100
AcDbEntity
8
0
100
AcDbPolyline
90
8
70
1
43
0.0
10
-463.89999999999992
20
50.149999999999999
10
-450.5
20
50.149999999999991
42
0.41421356237313844
10
-450.19999999999993
20
50.449999999999982
10
-450.19999999999993
20
63.84999999999998
42
0.41421356237304296
10
-450.49999999999989
20
64.149999999999977
10
-463.89999999999992
20
64.149999999999977
42
0.41421356237320772
10
-464.19999999999993
20
63.849999999999987
10
-464.19999999999993
20
50.449999999999989
42
0.41421356237293888
0
LWPOLYLINE
5
139
100
AcDbEntity
8
0
100
AcDbPolyline
90
8
70
1
43
0.0
10
-73.400000000000091
20
31.100000000126997
10
-60.000000000000057
20
31.100000000126997
42
0.41421356237297796
10
-59.700000000000088
20
31.400000000127022
10
-59.700000000000074
20
44.800000000127021
42
0.41421356237297358
10
-60.000000000000057
20
45.100000000127054
10
-73.400000000000048
20
45.100000000127025
42
0.41421356237304296
10
-73.700000000000031
20
44.800000000127021
10
-73.70000000000006
20
31.400000000127022
42
0.41421356237297796
0
LWPOLYLINE
5
140
100
AcDbEntity
8
0
100
AcDbPolyline
90
8
70
1
43
0.0
10
-273.39999999999992
20
50.149999999999999
10
-259.99999999999994
20
50.149999999999991
42
0.41421356237311241
10
-259.69999999999993
20
50.449999999999982
10
-259.69999999999993
20
63.84999999999998
42
0.41421356237298229
10
-259.99999999999994
20
64.149999999999977
10
-273.39999999999992
20
64.149999999999977
42
0.41421356237307771
10
-273.69999999999993
20
63.849999999999987
10
-273.69999999999993
20
50.449999999999989
42
0.414213562373069
0
LWPOLYLINE
5
141
100
AcDbEntity
8
0
100
AcDbPolyline
90
8
70
1
43
0.0
10
-88.575000000000074
20
45.100000000126997
10
-101.97500000000004
20
45.100000000126997
42
0.41421356237310364
10
-102.27500000000005
20
44.800000000127014
10
-102.27500000000005
20
31.400000000127015
42
0.41421356237307339
10
-101.97500000000004
20
31.100000000127032
10
-88.575000000000074
20
31.100000000127032
42
0.41421356237307339
10
-88.275000000000063
20
31.400000000127015
10
-88.275000000000063
20
44.800000000127014
42
0.41421356237310364
0
LWPOLYLINE
5
142
100
AcDbEntity
8
0
100
AcDbPolyline
90
8
70
1
43
0.0
10
-463.89999999999992
20
164.44999999999996
10
-450.5
20
164.44999999999996
42
0.41421356237316442
10
-450.19999999999993
20
164.74999999999997
10
-450.19999999999993
20
178.14999999999998
42
0.41421356237312973
10
-450.49999999999989
20
178.44999999999996
10
-463.89999999999992
20
178.44999999999996
42
0.41421356237302565
10
-464.19999999999993
20
178.14999999999998
10
-464.19999999999993
20
164.74999999999997
42
0.41421356237323376
0
LWPOLYLINE
5
143
100
AcDbEntity
8
0
100
AcDbPolyline
90
8
70
1
43
0.0
10
-425.79999999999995
20
50.149999999999999
10
-412.40000000000003
20
50.149999999999991
42
0.41421356237320772
10
-412.10000000000002
20
50.449999999999982
10
-412.10000000000002
20
63.84999999999998
42
0.41421356237295631
10
-412.40000000000003
20
64.149999999999977
10
-425.79999999999995
20
64.149999999999977
42
0.41421356237313844
10
-426.10000000000002
20
63.849999999999987
10
-426.10000000000002
20
50.449999999999989
42
0.41421356237293888
0
LWPOLYLINE
5
144
100
AcDbEntity
8
0
100
AcDbPolyline
90
8
70
1
43
0.0
10
-521.07499999999982
20
31.100000000126997
10
-507.67499999999995
20
31.100000000126997
42
0.41421356237312973
10
-507.375
20
31.400000000127015
10
-507.375
20
44.800000000127014
42
0.41421356237312973
10
-507.67499999999995
20
45.100000000127032
10
-521.07499999999982
20
45.100000000127018
42
0.41421356237313844
10
-521.37499999999989
20
44.800000000127014
10
-521.37499999999989
20
31.400000000127015
42
0.41421356237312973
0
LWPOLYLINE
5
145
100
AcDbEntity
8
0
100
AcDbPolyline
90
8
70
1
43
0.0
10
-120.99999999999996
20
164.44999999999996
10
-107.59999999999999
20
164.44999999999996
42
0.41421356237312973
10
-107.29999999999998
20
164.74999999999997
10
-107.29999999999998
20
178.14999999999998
42
0.41421356237295631
10
-107.59999999999994
20
178.44999999999996
10
-120.99999999999994
20
178.44999999999996
42
0.41421356237312973
10
-121.29999999999995
20
178.14999999999998
10
-121.29999999999995
20
164.74999999999997
42
0.4142135623730604
0
LWPOLYLINE
5
146
100
AcDbEntity
8
0
100
AcDbPolyline
90
8
70
1
43
0.0
10
-216.24999999999997
20
50.149999999999999
10
-202.84999999999999
20
50.149999999999991
42
0.41421356237311241
10
-202.54999999999998
20
50.449999999999982
10
-202.54999999999998
20
63.84999999999998
42
0.41421356237298229
10
-202.84999999999997
20
64.149999999999977
10
-216.24999999999997
20
64.149999999999977
42
0.41421356237307771
10
-216.54999999999998
20
63.849999999999987
10
-216.54999999999998
20
50.449999999999989
42
0.414213562373069
0
LWPOLYLINE
5
147
100
AcDbEntity
8
0
100
AcDbPolyline
90
8
70
1
43
0.0
10
-521.04999999999995
20
164.44999999999996
10
-507.64999999999992
20
164.44999999999996
42
0.41421356237323376
10
-507.34999999999991
20
164.74999999999997
10
-507.34999999999991
20
178.14999999999998
42
0.41421356237302565
10
-507.64999999999986
20
178.44999999999996
10
-521.04999999999995
20
178.44999999999996
42
0.41421356237302565
10
-521.34999999999991
20
178.14999999999998
10
-521.34999999999991
20
164.74999999999997
42
0.41421356237316442
0
LWPOLYLINE
5
148
100
AcDbEntity
8
0
100
AcDbPolyline
90
8
70
1
43
0.0
10
-406.75
20
164.44999999999996
10
-393.35000000000002
20
164.44999999999996
42
0.41421356237323376
10
-393.05000000000001
20
164.74999999999997
10
-393.05000000000001
20
178.14999999999998
42
0.41421356237292162
10
-393.35000000000002
20
178.44999999999996
10
-406.75
20
178.44999999999996
42
0.41421356237302565
10
-407.04999999999995
20
178.14999999999998
10
-407.04999999999995
20
164.74999999999997
42
0.41421356237316442
0
LWPOLYLINE
5
149
100
AcDbEntity
8
0
100
AcDbPolyline
90
8
70
1
43
0.0
10
-311.49999999999989
20
50.149999999999999
10
-298.09999999999997
20
50.149999999999991
42
0.41421356237307771
10
-297.79999999999995
20
50.449999999999982
10
-297.79999999999995
20
63.84999999999998
42
0.41421356237303436
10
-298.09999999999991
20
64.149999999999977
10
-311.49999999999989
20
64.149999999999977
42
0.41421356237304296
10
-311.79999999999995
20
63.849999999999987
10
-311.79999999999995
20
50.449999999999989
42
0.41421356237303436
0
LWPOLYLINE
5
150
100
AcDbEntity
8
0
100
AcDbPolyline
90
8
70
1
43
0.0
10
-501.99999999999989
20
164.44999999999996
10
-488.59999999999991
20
164.44999999999996
42
0.41421356237323376
10
-488.2999999999999
20
164.74999999999997
10
-488.2999999999999
20
178.14999999999998
42
0.41421356237302565
10
-488.59999999999985
20
178.44999999999996
10
-501.99999999999989
20
178.44999999999996
42
0.41421356237302565
10
-502.2999999999999
20
178.14999999999998
10
-502.2999999999999
20
164.74999999999997
42
0.41421356237316442
0
LWPOLYLINE
5
151
100
AcDbEntity
8
0
100
AcDbPolyline
90
8
70
1
43
0.0
10
-101.94999999999995
20
164.44999999999996
10
-88.549999999999983
20
164.44999999999996
42
0.41421356237312973
10
-88.249999999999972
20
164.74999999999997
10
-88.249999999999972
20
178.14999999999998
42
0.41421356237297358
10
-88.549999999999955
20
178.44999999999996
10
-101.94999999999995
20
178.44999999999996
42
0.41421356237312973
10
-102.24999999999996
20
178.14999999999998
10
-102.24999999999996
20
164.74999999999997
42
0.41421356237307771
0
LWPOLYLINE
5
152
100
AcDbEntity
8
0
100
AcDbPolyline
90
8
70
1
43
0.0
10
-349.59999999999991
20
164.44999999999996
10
-336.19999999999999
20
164.44999999999996
42
0.41421356237323376
10
-335.89999999999998
20
164.74999999999997
10
-335.89999999999998
20
178.14999999999998
42
0.41421356237292162
10
-336.19999999999999
20
178.44999999999996
10
-349.59999999999991
20
178.44999999999996
42
0.41421356237302565
10
-349.89999999999998
20
178.14999999999998
10
-349.89999999999998
20
164.74999999999997
42
0.41421356237316442
0
LWPOLYLINE
5
153
100
AcDbEntity
8
0
100
AcDbPolyline
90
8
70
1
43
0.0
10
-444.84999999999991
20
164.44999999999996
10
-431.44999999999993
20
164.44999999999996
42
0.41421356237316442
10
-431.14999999999998
20
164.74999999999997
10
-431.14999999999998
20
178.14999999999998
42
0.41421356237312973
10
-431.44999999999987
20
178.44999999999996
10
-444.84999999999991
20
178.44999999999996
42
0.41421356237302565
10
-445.14999999999992
20
178.14999999999998
10
-445.14999999999992
20
164.74999999999997
42
0.41421356237323376
0
LWPOLYLINE
5
154
100
AcDbEntity
8
0
100
AcDbPolyline
90
8
70
1
43
0.0
10
-444.84999999999991
20
50.149999999999999
10
-431.44999999999993
20
50.149999999999991
42
0.41421356237313844
10
-431.14999999999998
20
50.449999999999982
10
-431.14999999999998
20
63.84999999999998
42
0.41421356237304296
10
-431.44999999999987
20
64.149999999999977
10
-444.84999999999991
20
64.149999999999977
42
0.41421356237320772
10
-445.14999999999992
20
63.849999999999987
10
-445.14999999999992
20
50.449999999999989
42
0.41421356237293888
0
LWPOLYLINE
5
155
100
AcDbEntity
8
0
100
AcDbPolyline
90
8
70
1
43
0.0
10
-521.04999999999995
20
145.39999999999998
10
-507.64999999999992
20
145.39999999999998
42
0.41421356237321644
10
-507.34999999999991
20
145.69999999999999
10
-507.34999999999991
20
159.09999999999999
42
0.41421356237300833
10
-507.64999999999986
20
159.39999999999998
10
-521.04999999999995
20
159.39999999999998
42
0.4142135623731471
10
-521.34999999999991
20
159.09999999999999
10
-521.34999999999991
20
145.69999999999999
42
0.41421356237295631
0
LWPOLYLINE
5
156
100
AcDbEntity
8
0
100
AcDbPolyline
90
8
70
1
43
0.0
10
-501.99999999999989
20
145.39999999999998
10
-488.59999999999991
20
145.39999999999998
42
0.41421356237321644
10
-488.2999999999999
20
145.69999999999999
10
-488.2999999999999
20
159.09999999999999
42
0.41421356237300833
10
-488.59999999999985
20
159.39999999999998
10
-501.99999999999989
20
159.39999999999998
42
0.4142135623731471
10
-502.2999999999999
20
159.09999999999999
10
-502.2999999999999
20
145.69999999999999
42
0.41421356237295631
0
LWPOLYLINE
5
157
100
AcDbEntity
8
0
100
AcDbPolyline
90
8
70
1
43
0.0
10
-82.899999999999935
20
164.44999999999996
10
-69.499999999999972
20
164.44999999999996
42
0.41421356237308637
10
-69.19999999999996
20
164.74999999999997
10
-69.19999999999996
20
178.14999999999998
42
0.41421356237299095
10
-69.499999999999972
20
178.44999999999996
10
-82.899999999999935
20
178.44999999999996
42
0.41421356237312973
10
-83.199999999999946
20
178.14999999999998
10
-83.199999999999946
20
164.74999999999997
42
0.41421356237307771
0
LWPOLYLINE
5
158
100
AcDbEntity
8
0
100
AcDbPolyline
90
8
70
1
43
0.0
10
-482.94999999999993
20
145.39999999999998
10
-469.54999999999995
20
145.39999999999998
42
0.4142135623731471
10
-469.25
20
145.69999999999999
10
-469.25
20
159.09999999999999
42
0.41421356237297358
10
-469.54999999999984
20
159.39999999999998
10
-482.94999999999987
20
159.39999999999998
42
0.4142135623731471
10
-483.24999999999989
20
159.09999999999999
10
-483.24999999999989
20
145.69999999999999
42
0.41421356237288692
0
LWPOLYLINE
5
159
100
AcDbEntity
8
0
100
AcDbPolyline
90
8
70
1
43
0.0
10
-45.125000000000057
20
44.800000000127014
10
-45.125000000000021
20
31.400000000127015
42
0.41421356237303436
10
-44.825000000000045
20
31.100000000127032
10
-31.425000000000082
20
31.100000000126997
42
0.41421356237302998
10
-31.125000000000071
20
31.400000000127015
10
-31.125000000000071
20
44.800000000127014
42
0.41421356237303436
10
-31.425000000000082
20
45.100000000127032
10
-44.825000000000045
20
45.100000000127018
42
0.41421356237304296
0
LWPOLYLINE
5
160
100
AcDbEntity
8
0
100
AcDbPolyline
90
8
70
1
43
0.0
10
-292.44999999999993
20
69.199999999999989
10
-279.04999999999995
20
69.199999999999989
42
0.41421356237312101
10
-278.74999999999994
20
69.499999999999986
10
-278.74999999999994
20
82.899999999999977
42
0.41421356237300833
10
-279.04999999999995
20
83.199999999999989
10
-292.44999999999993
20
83.199999999999989
42
0.41421356237312973
10
-292.74999999999994
20
82.899999999999977
10
-292.74999999999994
20
69.499999999999986
42
0.414213562373069
0
LWPOLYLINE
5
161
100
AcDbEntity
8
0
100
AcDbPolyline
90
8
70
1
43
0.0
10
-425.79999999999995
20
69.199999999999989
10
-412.40000000000003
20
69.199999999999989
42
0.41421356237321644
10
-412.10000000000002
20
69.499999999999986
10
-412.10000000000002
20
82.899999999999977
42
0.41421356237319912
10
-412.40000000000003
20
83.199999999999989
10
-425.79999999999995
20
83.199999999999989
42
0.41421356237323376
10
-426.10000000000002
20
82.899999999999977
10
-426.10000000000002
20
69.499999999999986
42
0.41421356237293888
0
LWPOLYLINE
5
162
100
AcDbEntity
8
0
100
AcDbPolyline
90
8
70
1
43
0.0
10
-311.49999999999989
20
69.199999999999989
10
-298.09999999999997
20
69.199999999999989
42
0.41421356237308637
10
-297.79999999999995
20
69.499999999999986
10
-297.79999999999995
20
82.899999999999977
42
0.4142135623730604
10
-298.09999999999991
20
83.199999999999989
10
-311.49999999999989
20
83.199999999999989
42
0.41421356237309509
10
-311.79999999999995
20
82.899999999999977
10
-311.79999999999995
20
69.499999999999986
42
0.41421356237303436
0
LWPOLYLINE
5
163
100
AcDbEntity
8
0
100
AcDbPolyline
90
8
70
1
43
0.0
10
-425.79999999999995
20
145.39999999999998
10
-412.40000000000003
20
145.39999999999998
42
0.41421356237321644
10
-412.10000000000002
20
145.69999999999999
10
-412.10000000000002
20
159.09999999999999
42
0.41421356237295631
10
-412.40000000000003
20
159.39999999999998
10
-425.79999999999995
20
159.39999999999998
42
0.4142135623731471
10
-426.10000000000002
20
159.09999999999999
10
-426.10000000000002
20
145.69999999999999
42
0.41421356237295631
0
LWPOLYLINE
5
164
100
AcDbEntity
8
0
100
AcDbPolyline
90
8
70
1
43
0.0
10
-254.34999999999991
20
69.199999999999989
10
-240.94999999999996
20
69.199999999999989
42
0.41421356237312101
10
-240.64999999999995
20
69.499999999999986
10
-240.64999999999995
20
82.899999999999977
42
0.41421356237300833
10
-240.94999999999993
20
83.199999999999989
10
-254.34999999999991
20
83.199999999999989
42
0.41421356237312973
10
-254.64999999999992
20
82.899999999999977
10
-254.64999999999992
20
69.499999999999986
42
0.414213562373069
0
LWPOLYLINE
5
165
100
AcDbEntity
8
0
100
AcDbPolyline
90
8
70
1
43
0.0
10
-501.99999999999989
20
69.199999999999989
10
-488.59999999999991
20
69.199999999999989
42
0.41421356237321644
10
-488.2999999999999
20
69.499999999999986
10
-488.2999999999999
20
82.899999999999977
42
0.41421356237302565
10
-488.59999999999985
20
83.199999999999989
10
-501.99999999999989
20
83.199999999999989
42
0.41421356237323376
10
-502.2999999999999
20
82.899999999999977
10
-502.2999999999999
20
69.499999999999986
42
0.41421356237293888
0
LWPOLYLINE
5
166
100
AcDbEntity
8
0
100
AcDbPolyline
90
8
70
1
43
0.0
10
-273.39999999999992
20
69.199999999999989
10
-259.99999999999994
20
69.199999999999989
42
0.41421356237312101
10
-259.69999999999993
20
69.499999999999986
10
-259.69999999999993
20
82.899999999999977
42
0.41421356237300833
10
-259.99999999999994
20
83.199999999999989
10
-273.39999999999992
20
83.199999999999989
42
0.41421356237312973
10
-273.69999999999993
20
82.899999999999977
10
-273.69999999999993
20
69.499999999999986
42
0.414213562373069
0
LWPOLYLINE
5
167
100
AcDbEntity
8
0
100
AcDbPolyline
90
8
70
1
43
0.0
10
-444.84999999999991
20
88.25
10
-431.44999999999993
20
88.249999999999972
42
0.4142135623731471
10
-431.14999999999998
20
88.549999999999983
10
-431.14999999999998
20
101.94999999999999
42
0.41421356237304296
10
-431.44999999999987
20
102.24999999999997
10
-444.84999999999991
20
102.24999999999997
42
0.41421356237321644
10
-445.14999999999992
20
101.94999999999999
10
-445.14999999999992
20
88.549999999999983
42
0.41421356237295631
0
LWPOLYLINE
5
168
100
AcDbEntity
8
0
100
AcDbPolyline
90
8
70
1
43
0.0
10
-292.44999999999993
20
145.39999999999998
10
-279.04999999999995
20
145.39999999999998
42
0.41421356237312973
10
-278.74999999999994
20
145.69999999999999
10
-278.74999999999994
20
159.09999999999999
42
0.41421356237302565
10
-279.04999999999995
20
159.39999999999998
10
-292.44999999999993
20
159.39999999999998
42
0.41421356237312973
10
-292.74999999999994
20
159.09999999999999
10
-292.74999999999994
20
145.69999999999999
42
0.41421356237312973
0
LWPOLYLINE
5
169
100
AcDbEntity
8
0
100
AcDbPolyline
90
8
70
1
43
0.0
10
-63.850000000000009
20
145.39999999999998
10
-50.45000000000001
20
145.39999999999998
42
0.41421356237307771
10
-50.149999999999999
20
145.69999999999999
10
-50.149999999999999
20
159.09999999999999
42
0.4142135623730604
10
-50.44999999999996
20
159.39999999999998
10
-63.849999999999966
20
159.39999999999998
42
0.41421356237307771
10
-64.149999999999977
20
159.09999999999999
10
-64.149999999999977
20
145.69999999999999
42
0.41421356237305162
0
LWPOLYLINE
5
170
100
AcDbEntity
8
0
100
AcDbPolyline
90
8
70
1
43
0.0
10
-120.99999999999996
20
69.199999999999989
10
-107.59999999999999
20
69.199999999999989
42
0.41421356237308637
10
-107.29999999999998
20
69.499999999999986
10
-107.29999999999998
20
82.899999999999977
42
0.41421356237307771
10
-107.59999999999994
20
83.199999999999989
10
-120.99999999999994
20
83.199999999999989
42
0.41421356237318174
10
-121.29999999999995
20
82.899999999999977
10
-121.29999999999995
20
69.499999999999986
42
0.41421356237305162
0
LWPOLYLINE
5
171
100
AcDbEntity
8
0
100
AcDbPolyline
90
8
70
1
43
0.0
10
-463.89999999999992
20
126.34999999999998
10
-450.5
20
126.34999999999998
42
0.4142135623731471
10
-450.19999999999993
20
126.64999999999998
10
-450.19999999999993
20
140.04999999999998
42
0.41421356237304296
10
-450.49999999999989
20
140.34999999999997
10
-463.89999999999992
20
140.34999999999997
42
0.41421356237321644
10
-464.19999999999993
20
140.04999999999998
10
-464.19999999999993
20
126.64999999999998
42
0.41421356237295631
0
LWPOLYLINE
5
172
100
AcDbEntity
8
0
100
AcDbPolyline
90
8
70
1
43
0.0
10
-311.49999999999989
20
88.25
10
-298.09999999999997
20
88.249999999999972
42
0.41421356237309509
10
-297.79999999999995
20
88.549999999999983
10
-297.79999999999995
20
101.94999999999999
42
0.41421356237304296
10
-298.09999999999991
20
102.24999999999997
10
-311.49999999999989
20
102.24999999999997
42
0.41421356237309509
10
-311.79999999999995
20
101.94999999999999
10
-311.79999999999995
20
88.549999999999983
42
0.41421356237309509
0
LWPOLYLINE
5
173
100
AcDbEntity
8
0
100
AcDbPolyline
90
8
70
1
43
0.0
10
-63.850000000000009
20
88.25
10
-50.45000000000001
20
88.249999999999972
42
0.41421356237307771
10
-50.149999999999999
20
88.549999999999983
10
-50.149999999999999
20
101.94999999999999
42
0.4142135623730604
10
-50.44999999999996
20
102.24999999999997
10
-63.849999999999966
20
102.24999999999997
42
0.41421356237307771
10
-64.149999999999977
20
101.94999999999999
10
-64.149999999999977
20
88.549999999999983
42
0.41421356237305162
0
LWPOLYLINE
5
174
100
AcDbEntity
8
0
100
AcDbPolyline
90
8
70
1
43
0.0
10
-216.24999999999997
20
145.39999999999998
10
-202.84999999999999
20
145.39999999999998
42
0.41421356237312973
10
-202.54999999999998
20
145.69999999999999
10
-202.54999999999998
20
159.09999999999999
42
0.41421356237302565
10
-202.84999999999997
20
159.39999999999998
10
-216.24999999999997
20
159.39999999999998
42
0.41421356237312973
10
-216.54999999999998
20
159.09999999999999
10
-216.54999999999998
20
145.69999999999999
42
0.41421356237312973
0
LWPOLYLINE
5
175
100
AcDbEntity
8
0
100
AcDbPolyline
90
8
70
1
43
0.0
10
-216.24999999999997
20
88.25
10
-202.84999999999999
20
88.249999999999972
42
0.41421356237312973
10
-202.54999999999998
20
88.549999999999983
10
-202.54999999999998
20
101.94999999999999
42
0.41421356237302565
10
-202.84999999999997
20
102.24999999999997
10
-216.24999999999997
20
102.24999999999997
42
0.41421356237312973
10
-216.54999999999998
20
101.94999999999999
10
-216.54999999999998
20
88.549999999999983
42
0.41421356237312973
0
LWPOLYLINE
5
176
100
AcDbEntity
8
0
100
AcDbPolyline
90
8
70
1
43
0.0
10
-235.29999999999998
20
88.25
10
-221.90000000000001
20
88.249999999999972
42
0.41421356237312973
10
-221.59999999999999
20
88.549999999999983
10
-221.59999999999999
20
101.94999999999999
42
0.41421356237302565
10
-221.89999999999998
20
102.24999999999997
10
-235.29999999999998
20
102.24999999999997
42
0.41421356237312973
10
-235.59999999999999
20
101.94999999999999
10
-235.59999999999999
20
88.549999999999983
42
0.41421356237312973
0
LWPOLYLINE
5
177
100
AcDbEntity
8
0
100
AcDbPolyline
90
8
70
1
43
0.0
10
-521.04999999999995
20
107.29999999999998
10
-507.64999999999992
20
107.29999999999998
42
0.41421356237328577
10
-507.34999999999991
20
107.59999999999998
10
-507.34999999999991
20
120.99999999999997
42
0.41421356237307771
10
-507.64999999999986
20
121.29999999999995
10
-521.04999999999995
20
121.29999999999995
42
0.41421356237292162
10
-521.34999999999991
20
121
10
-521.34999999999991
20
107.59999999999999
42
0.41421356237312973
0
LWPOLYLINE
5
178
100
AcDbEntity
8
0
100
AcDbPolyline
90
8
70
1
43
0.0
10
-501.99999999999989
20
107.29999999999998
10
-488.59999999999991
20
107.29999999999998
42
0.41421356237328577
10
-488.2999999999999
20
107.59999999999998
10
-488.2999999999999
20
120.99999999999997
42
0.41421356237307771
10
-488.59999999999985
20
121.29999999999995
10
-501.99999999999989
20
121.29999999999995
42
0.41421356237292162
10
-502.2999999999999
20
121
10
-502.2999999999999
20
107.59999999999999
42
0.41421356237312973
0
LWPOLYLINE
5
179
100
AcDbEntity
8
0
100
AcDbPolyline
90
8
70
1
43
0.0
10
-387.69999999999993
20
126.34999999999998
10
-374.30000000000001
20
126.34999999999998
42
0.41421356237321644
10
-374
20
126.64999999999998
10
-374
20
140.04999999999998
42
0.41421356237295631
10
-374.30000000000001
20
140.34999999999997
10
-387.69999999999993
20
140.34999999999997
42
0.4142135623731471
10
-388
20
140.04999999999998
10
-388
20
126.64999999999998
42
0.41421356237295631
0
LWPOLYLINE
5
180
100
AcDbEntity
8
0
100
AcDbPolyline
90
8
70
1
43
0.0
10
-368.64999999999998
20
126.34999999999998
10
-355.25
20
126.34999999999998
42
0.41421356237321644
10
-354.94999999999999
20
126.64999999999998
10
-354.94999999999999
20
140.04999999999998
42
0.41421356237295631
10
-355.25
20
140.34999999999997
10
-368.64999999999998
20
140.34999999999997
42
0.4142135623731471
10
-368.94999999999993
20
140.04999999999998
10
-368.94999999999993
20
126.64999999999998
42
0.41421356237295631
0
LWPOLYLINE
5
181
100
AcDbEntity
8
0
100
AcDbPolyline
90
8
70
1
43
0.0
10
-254.34999999999991
20
88.25
10
-240.94999999999996
20
88.249999999999972
42
0.41421356237312973
10
-240.64999999999995
20
88.549999999999983
10
-240.64999999999995
20
101.94999999999999
42
0.41421356237302565
10
-240.94999999999993
20
102.24999999999997
10
-254.34999999999991
20
102.24999999999997
42
0.41421356237312973
10
-254.64999999999992
20
101.94999999999999
10
-254.64999999999992
20
88.549999999999983
42
0.41421356237312973
0
LWPOLYLINE
5
182
100
AcDbEntity
8
0
100
AcDbPolyline
90
8
70
1
43
0.0
10
-444.84999999999991
20
107.29999999999998
10
-431.44999999999993
20
107.29999999999998
42
0.41421356237321644
10
-431.14999999999998
20
107.59999999999998
10
-431.14999999999998
20
120.99999999999997
42
0.41421356237311241
10
-431.44999999999987
20
121.29999999999995
10
-444.84999999999991
20
121.29999999999995
42
0.41421356237292162
10
-445.14999999999992
20
121
10
-445.14999999999992
20
107.59999999999999
42
0.41421356237319912
0
LWPOLYLINE
5
183
100
AcDbEntity
8
0
100
AcDbPolyline
90
8
70
1
43
0.0
10
-82.899999999999935
20
126.34999999999998
10
-69.499999999999972
20
126.34999999999998
42
0.41421356237307771
10
-69.19999999999996
20
126.64999999999998
10
-69.19999999999996
20
140.04999999999998
42
0.41421356237310364
10
-69.499999999999972
20
140.34999999999997
10
-82.899999999999935
20
140.34999999999997
42
0.41421356237311241
10
-83.199999999999946
20
140.04999999999998
10
-83.199999999999946
20
126.64999999999998
42
0.41421356237311241
0
LWPOLYLINE
5
184
100
AcDbEntity
8
0
100
AcDbPolyline
90
8
70
1
43
0.0
10
-368.64999999999998
20
88.25
10
-355.25
20
88.249999999999972
42
0.41421356237321644
10
-354.94999999999999
20
88.549999999999983
10
-354.94999999999999
20
101.94999999999999
42
0.41421356237295631
10
-355.25
20
102.24999999999997
10
-368.64999999999998
20
102.24999999999997
42
0.4142135623731471
10
-368.94999999999993
20
101.94999999999999
10
-368.94999999999993
20
88.549999999999983
42
0.41421356237295631
0
LWPOLYLINE
5
185
100
AcDbEntity
8
0
100
AcDbPolyline
90
8
70
1
43
0.0
10
-387.69999999999993
20
88.25
10
-374.30000000000001
20
88.249999999999972
42
0.41421356237321644
10
-374
20
88.549999999999983
10
-374
20
101.94999999999999
42
0.41421356237295631
10
-374.30000000000001
20
102.24999999999997
10
-387.69999999999993
20
102.24999999999997
42
0.4142135623731471
10
-388
20
101.94999999999999
10
-388
20
88.549999999999983
42
0.41421356237295631
0
LWPOLYLINE
5
186
100
AcDbEntity
8
0
100
AcDbPolyline
90
8
70
1
43
0.0
10
-235.29999999999998
20
107.29999999999998
10
-221.90000000000001
20
107.29999999999998
42
0.41421356237311241
10
-221.59999999999999
20
107.59999999999998
10
-221.59999999999999
20
120.99999999999997
42
0.41421356237297358
10
-221.89999999999998
20
121.29999999999995
10
-235.29999999999998
20
121.29999999999995
42
0.41421356237307771
10
-235.59999999999999
20
121
10
-235.59999999999999
20
107.59999999999999
42
0.41421356237307771
0
LWPOLYLINE
5
187
100
AcDbEntity
8
0
100
AcDbPolyline
90
8
70
1
43
0.0
10
-406.75
20
107.29999999999998
10
-393.35000000000002
20
107.29999999999998
42
0.41421356237328577
10
-393.05000000000001
20
107.59999999999998
10
-393.05000000000001
20
120.99999999999997
42
0.41421356237293888
10
-393.35000000000002
20
121.29999999999995
10
-406.75
20
121.29999999999995
42
0.41421356237292162
10
-407.04999999999995
20
121
10
-407.04999999999995
20
107.59999999999999
42
0.41421356237312973
0
LWPOLYLINE
5
188
100
AcDbEntity
8
0
100
AcDbPolyline
90
8
70
1
43
0.0
10
-368.64999999999998
20
107.29999999999998
10
-355.25
20
107.29999999999998
42
0.41421356237328577
10
-354.94999999999999
20
107.59999999999998
10
-354.94999999999999
20
120.99999999999997
42
0.41421356237293888
10
-355.25
20
121.29999999999995
10
-368.64999999999998
20
121.29999999999995
42
0.41421356237292162
10
-368.94999999999993
20
121
10
-368.94999999999993
20
107.59999999999999
42
0.41421356237312973
0
LWPOLYLINE
5
189
100
AcDbEntity
8
0
100
AcDbPolyline
90
8
70
1
43
0.0
10
-197.19999999999996
20
164.44999999999996
10
-183.79999999999998
20
164.44999999999996
42
0.41421356237309509
10
-183.49999999999997
20
164.74999999999997
10
-183.49999999999997
20
178.14999999999998
42
0.41421356237295631
10
-183.79999999999995
20
178.44999999999996
10
-197.19999999999996
20
178.44999999999996
42
0.41421356237312973
10
-197.49999999999997
20
178.14999999999998
10
-197.49999999999997
20
164.74999999999997
42
0.41421356237309509
0
LWPOLYLINE
5
190
100
AcDbEntity
8
0
100
AcDbPolyline
90
8
70
1
43
0.0
10
-178.14999999999995
20
69.199999999999989
10
-164.74999999999997
20
69.199999999999989
42
0.41421356237312101
10
-164.44999999999996
20
69.499999999999986
10
-164.44999999999996
20
82.899999999999977
42
0.41421356237300833
10
-164.74999999999994
20
83.199999999999989
10
-178.14999999999995
20
83.199999999999989
42
0.41421356237312973
10
-178.44999999999996
20
82.899999999999977
10
-178.44999999999996
20
69.499999999999986
42
0.414213562373069
0
LWPOLYLINE
5
191
100
AcDbEntity
8
0
100
AcDbPolyline
90
8
70
1
43
0.0
10
-159.09999999999994
20
145.39999999999998
10
-145.69999999999999
20
145.39999999999998
42
0.41421356237311241
10
-145.39999999999995
20
145.69999999999999
10
-145.39999999999998
20
159.09999999999999
42
0.41421356237311241
10
-145.69999999999996
20
159.39999999999998
10
-159.09999999999994
20
159.39999999999998
42
0.41421356237311241
10
-159.39999999999995
20
159.09999999999999
10
-159.39999999999995
20
145.69999999999999
42
0.41421356237311241
0
LWPOLYLINE
5
192
100
AcDbEntity
8
0
100
AcDbPolyline
90
8
70
1
43
0.0
10
-197.19999999999996
20
126.34999999999998
10
-183.79999999999998
20
126.34999999999998
42
0.41421356237312973
10
-183.49999999999997
20
126.64999999999998
10
-183.49999999999997
20
140.04999999999998
42
0.41421356237302565
10
-183.79999999999995
20
140.34999999999997
10
-197.19999999999996
20
140.34999999999997
42
0.41421356237312973
10
-197.49999999999997
20
140.04999999999998
10
-197.49999999999997
20
126.64999999999998
42
0.41421356237312973
0
LWPOLYLINE
5
193
100
AcDbEntity
8
0
100
AcDbPolyline
90
8
70
1
43
0.0
10
-178.14999999999995
20
107.29999999999998
10
-164.74999999999997
20
107.29999999999998
42
0.41421356237311241
10
-164.44999999999996
20
107.59999999999998
10
-164.44999999999996
20
120.99999999999997
42
0.41421356237297358
10
-164.74999999999994
20
121.29999999999995
10
-178.14999999999995
20
121.29999999999995
42
0.41421356237307771
10
-178.44999999999996
20
121
10
-178.44999999999996
20
107.59999999999999
42
0.41421356237307771
0
LWPOLYLINE
5
194
100
AcDbEntity
8
0
100
AcDbPolyline
90
8
70
1
43
0.0
10
-463.89999999999992
20
145.39999999999998
10
-450.5
20
145.39999999999998
42
0.4142135623731471
10
-450.19999999999993
20
145.69999999999999
10
-450.19999999999993
20
159.09999999999999
42
0.41421356237304296
10
-450.49999999999989
20
159.39999999999998
10
-463.89999999999992
20
159.39999999999998
42
0.41421356237321644
10
-464.19999999999993
20
159.09999999999999
10
-464.19999999999993
20
145.69999999999999
42
0.41421356237295631
0
LWPOLYLINE
5
195
100
AcDbEntity
8
0
100
AcDbPolyline
90
8
70
1
43
0.0
10
-159.09999999999994
20
126.34999999999998
10
-145.69999999999999
20
126.34999999999998
42
0.41421356237311241
10
-145.39999999999995
20
126.64999999999998
10
-145.39999999999998
20
140.04999999999998
42
0.41421356237311241
10
-145.69999999999996
20
140.34999999999997
10
-159.09999999999994
20
140.34999999999997
42
0.41421356237311241
10
-159.39999999999995
20
140.04999999999998
10
-159.39999999999995
20
126.64999999999998
42
0.41421356237311241
0
LWPOLYLINE
5
196
100
AcDbEntity
8
0
100
AcDbPolyline
90
8
70
1
43
0.0
10
-178.14999999999995
20
88.25
10
-164.74999999999997
20
88.249999999999972
42
0.41421356237312973
10
-164.44999999999996
20
88.549999999999983
10
-164.44999999999996
20
101.94999999999999
42
0.41421356237302565
10
-164.74999999999994
20
102.24999999999997
10
-178.14999999999995
20
102.24999999999997
42
0.41421356237312973
10
-178.44999999999996
20
101.94999999999999
10
-178.44999999999996
20
88.549999999999983
42
0.41421356237312973
0
LWPOLYLINE
5
197
100
AcDbEntity
8
0
100
AcDbPolyline
90
8
70
1
43
0.0
10
-197.19999999999996
20
145.39999999999998
10
-183.79999999999998
20
145.39999999999998
42
0.41421356237312973
10
-183.49999999999997
20
145.69999999999999
10
-183.49999999999997
20
159.09999999999999
42
0.41421356237302565
10
-183.79999999999995
20
159.39999999999998
10
-197.19999999999996
20
159.39999999999998
42
0.41421356237312973
10
-197.49999999999997
20
159.09999999999999
10
-197.49999999999997
20
145.69999999999999
42
0.41421356237312973
0
LWPOLYLINE
5
198
100
AcDbEntity
8
0
100
AcDbPolyline
90
8
70
1
43
0.0
10
-159.09999999999994
20
164.44999999999996
10
-145.69999999999999
20
164.44999999999996
42
0.41421356237312973
10
-145.39999999999995
20
164.74999999999997
10
-145.39999999999998
20
178.14999999999998
42
0.41421356237297358
10
-145.69999999999996
20
178.44999999999996
10
-159.09999999999994
20
178.44999999999996
42
0.41421356237312973
10
-159.39999999999995
20
178.14999999999998
10
-159.39999999999995
20
164.74999999999997
42
0.41421356237307771
0
LWPOLYLINE
5
199
100
AcDbEntity
8
0
100
AcDbPolyline
90
8
70
1
43
0.0
10
-349.59999999999991
20
107.29999999999998
10
-336.19999999999999
20
107.29999999999998
42
0.41421356237328577
10
-335.89999999999998
20
107.59999999999998
10
-335.89999999999998
20
120.99999999999997
42
0.41421356237293888
10
-336.19999999999999
20
121.29999999999995
10
-349.59999999999991
20
121.29999999999995
42
0.41421356237292162
10
-349.89999999999998
20
121
10
-349.89999999999998
20
107.59999999999999
42
0.41421356237312973
0
LWPOLYLINE
5
200
100
AcDbEntity
8
0
100
AcDbPolyline
90
8
70
1
43
0.0
10
-387.69999999999993
20
107.29999999999998
10
-374.30000000000001
20
107.29999999999998
42
0.41421356237328577
10
-374
20
107.59999999999998
10
-374
20
120.99999999999997
42
0.41421356237293888
10
-374.30000000000001
20
121.29999999999995
10
-387.69999999999993
20
121.29999999999995
42
0.41421356237292162
10
-388
20
121
10
-388
20
107.59999999999999
42
0.41421356237312973
0
LWPOLYLINE
5
201
100
AcDbEntity
8
0
100
AcDbPolyline
90
8
70
1
43
0.0
10
-140.04999999999995
20
107.29999999999998
10
-126.64999999999999
20
107.29999999999998
42
0.41421356237316442
10
-126.34999999999998
20
107.59999999999998
10
-126.34999999999998
20
120.99999999999997
42
0.41421356237299095
10
-126.64999999999995
20
121.29999999999995
10
-140.04999999999995
20
121.29999999999995
42
0.41421356237304296
10
-140.34999999999997
20
121
10
-140.34999999999997
20
107.59999999999999
42
0.4142135623730604
0
LWPOLYLINE
5
202
100
AcDbEntity
8
0
100
AcDbPolyline
90
8
70
1
43
0.0
10
-216.24999999999997
20
107.29999999999998
10
-202.84999999999999
20
107.29999999999998
42
0.41421356237311241
10
-202.54999999999998
20
107.59999999999998
10
-202.54999999999998
20
120.99999999999997
42
0.41421356237297358
10
-202.84999999999997
20
121.29999999999995
10
-216.24999999999997
20
121.29999999999995
42
0.41421356237307771
10
-216.54999999999998
20
121
10
-216.54999999999998
20
107.59999999999999
42
0.41421356237307771
0
LWPOLYLINE
5
203
100
AcDbEntity
8
0
100
AcDbPolyline
90
8
70
1
43
0.0
10
-63.850000000000009
20
126.34999999999998
10
-50.45000000000001
20
126.34999999999998
42
0.41421356237307771
10
-50.149999999999999
20
126.64999999999998
10
-50.149999999999999
20
140.04999999999998
42
0.4142135623730604
10
-50.44999999999996
20
140.34999999999997
10
-63.849999999999966
20
140.34999999999997
42
0.41421356237307771
10
-64.149999999999977
20
140.04999999999998
10
-64.149999999999977
20
126.64999999999998
42
0.41421356237305162
0
LWPOLYLINE
5
204
100
AcDbEntity
8
0
100
AcDbPolyline
90
8
70
1
43
0.0
10
-254.34999999999991
20
126.34999999999998
10
-240.94999999999996
20
126.34999999999998
42
0.41421356237312973
10
-240.64999999999995
20
126.64999999999998
10
-240.64999999999995
20
140.04999999999998
42
0.41421356237302565
10
-240.94999999999993
20
140.34999999999997
10
-254.34999999999991
20
140.34999999999997
42
0.41421356237312973
10
-254.64999999999992
20
140.04999999999998
10
-254.64999999999992
20
126.64999999999998
42
0.41421356237312973
0
LWPOLYLINE
5
205
100
AcDbEntity
8
0
100
AcDbPolyline
90
8
70
1
43
0.0
10
-273.39999999999992
20
88.25
10
-259.99999999999994
20
88.249999999999972
42
0.41421356237312973
10
-259.69999999999993
20
88.549999999999983
10
-259.69999999999993
20
101.94999999999999
42
0.41421356237302565
10
-259.99999999999994
20
102.24999999999997
10
-273.39999999999992
20
102.24999999999997
42
0.41421356237312973
10
-273.69999999999993
20
101.94999999999999
10
-273.69999999999993
20
88.549999999999983
42
0.41421356237312973
0
LWPOLYLINE
5
206
100
AcDbEntity
8
0
100
AcDbPolyline
90
8
70
1
43
0.0
10
-82.899999999999935
20
107.29999999999998
10
-69.499999999999972
20
107.29999999999998
42
0.41421356237309509
10
-69.19999999999996
20
107.59999999999998
10
-69.19999999999996
20
120.99999999999997
42
0.41421356237303436
10
-69.499999999999972
20
121.29999999999995
10
-82.899999999999935
20
121.29999999999995
42
0.41421356237304296
10
-83.199999999999946
20
121
10
-83.199999999999946
20
107.59999999999999
42
0.4142135623730604
0
LWPOLYLINE
5
207
100
AcDbEntity
8
0
100
AcDbPolyline
90
8
70
1
43
0.0
10
-463.89999999999992
20
107.29999999999998
10
-450.5
20
107.29999999999998
42
0.41421356237321644
10
-450.19999999999993
20
107.59999999999998
10
-450.19999999999993
20
120.99999999999997
42
0.41421356237311241
10
-450.49999999999989
20
121.29999999999995
10
-463.89999999999992
20
121.29999999999995
42
0.41421356237292162
10
-464.19999999999993
20
121
10
-464.19999999999993
20
107.59999999999999
42
0.41421356237319912
0
LWPOLYLINE
5
208
100
AcDbEntity
8
0
100
AcDbPolyline
90
8
70
1
43
0.0
10
-311.49999999999989
20
107.29999999999998
10
-298.09999999999997
20
107.29999999999998
42
0.41421356237307771
10
-297.79999999999995
20
107.59999999999998
10
-297.79999999999995
20
120.99999999999997
42
0.41421356237302565
10
-298.09999999999991
20
121.29999999999995
10
-311.49999999999989
20
121.29999999999995
42
0.41421356237304296
10
-311.79999999999995
20
121
10
-311.79999999999995
20
107.59999999999999
42
0.41421356237304296
0
LWPOLYLINE
5
209
100
AcDbEntity
8
0
100
AcDbPolyline
90
8
70
1
43
0.0
10
-120.99999999999996
20
88.25
10
-107.59999999999999
20
88.249999999999972
42
0.41421356237311241
10
-107.29999999999998
20
88.549999999999983
10
-107.29999999999998
20
101.94999999999999
42
0.41421356237309509
10
-107.59999999999994
20
102.24999999999997
10
-120.99999999999994
20
102.24999999999997
42
0.41421356237311241
10
-121.29999999999995
20
101.94999999999999
10
-121.29999999999995
20
88.549999999999983
42
0.41421356237309509
0
LWPOLYLINE
5
210
100
AcDbEntity
8
0
100
AcDbPolyline
90
8
70
1
43
0.0
10
-406.75
20
69.199999999999989
10
-393.35000000000002
20
69.199999999999989
42
0.41421356237321644
10
-393.05000000000001
20
69.499999999999986
10
-393.05000000000001
20
82.899999999999977
42
0.41421356237319912
10
-393.35000000000002
20
83.199999999999989
10
-406.75
20
83.199999999999989
42
0.41421356237323376
10
-407.04999999999995
20
82.899999999999977
10
-407.04999999999995
20
69.499999999999986
42
0.41421356237293888
0
LWPOLYLINE
5
211
100
AcDbEntity
8
0
100
AcDbPolyline
90
8
70
1
43
0.0
10
-292.44999999999993
20
126.34999999999998
10
-279.04999999999995
20
126.34999999999998
42
0.41421356237312973
10
-278.74999999999994
20
126.64999999999998
10
-278.74999999999994
20
140.04999999999998
42
0.41421356237302565
10
-279.04999999999995
20
140.34999999999997
10
-292.44999999999993
20
140.34999999999997
42
0.41421356237312973
10
-292.74999999999994
20
140.04999999999998
10
-292.74999999999994
20
126.64999999999998
42
0.41421356237312973
0
LWPOLYLINE
5
212
100
AcDbEntity
8
0
100
AcDbPolyline
90
8
70
1
43
0.0
10
-368.64999999999998
20
69.199999999999989
10
-355.25
20
69.199999999999989
42
0.41421356237321644
10
-354.94999999999999
20
69.499999999999986
10
-354.94999999999999
20
82.899999999999977
42
0.41421356237319912
10
-355.25
20
83.199999999999989
10
-368.64999999999998
20
83.199999999999989
42
0.41421356237323376
10
-368.94999999999993
20
82.899999999999977
10
-368.94999999999993
20
69.499999999999986
42
0.41421356237293888
0
LWPOLYLINE
5
213
100
AcDbEntity
8
0
100
AcDbPolyline
90
8
70
1
43
0.0
10
-82.899999999999935
20
88.25
10
-69.499999999999972
20
88.249999999999972
42
0.41421356237307771
10
-69.19999999999996
20
88.549999999999983
10
-69.19999999999996
20
101.94999999999999
42
0.41421356237310364
10
-69.499999999999972
20
102.24999999999997
10
-82.899999999999935
20
102.24999999999997
42
0.41421356237311241
10
-83.199999999999946
20
101.94999999999999
10
-83.199999999999946
20
88.549999999999983
42
0.41421356237311241
0
LWPOLYLINE
5
214
100
AcDbEntity
8
0
100
AcDbPolyline
90
8
70
1
43
0.0
10
-330.54999999999995
20
88.25
10
-317.14999999999998
20
88.249999999999972
42
0.41421356237309509
10
-316.84999999999997
20
88.549999999999983
10
-316.84999999999997
20
101.94999999999999
42
0.41421356237304296
10
-317.14999999999992
20
102.24999999999997
10
-330.54999999999995
20
102.24999999999997
42
0.4142135623731471
10
-330.84999999999991
20
101.94999999999999
10
-330.84999999999991
20
88.549999999999983
42
0.41421356237295631
0
LWPOLYLINE
5
215
100
AcDbEntity
8
0
100
AcDbPolyline
90
8
70
1
43
0.0
10
-482.94999999999993
20
88.25
10
-469.54999999999995
20
88.249999999999972
42
0.4142135623731471
10
-469.25
20
88.549999999999983
10
-469.25
20
101.94999999999999
42
0.41421356237297358
10
-469.54999999999984
20
102.24999999999997
10
-482.94999999999987
20
102.24999999999997
42
0.4142135623731471
10
-483.24999999999989
20
101.94999999999999
10
-483.24999999999989
20
88.549999999999983
42
0.41421356237288692
0
LWPOLYLINE
5
216
100
AcDbEntity
8
0
100
AcDbPolyline
90
8
70
1
43
0.0
10
-140.04999999999995
20
69.199999999999989
10
-126.64999999999999
20
69.199999999999989
42
0.41421356237308637
10
-126.34999999999998
20
69.499999999999986
10
-126.34999999999998
20
82.899999999999977
42
0.4142135623730604
10
-126.64999999999995
20
83.199999999999989
10
-140.04999999999995
20
83.199999999999989
42
0.41421356237318174
10
-140.34999999999997
20
82.899999999999977
10
-140.34999999999997
20
69.499999999999986
42
0.414213562373069
0
LWPOLYLINE
5
217
100
AcDbEntity
8
0
100
AcDbPolyline
90
8
70
1
43
0.0
10
-235.29999999999998
20
145.39999999999998
10
-221.90000000000001
20
145.39999999999998
42
0.41421356237312973
10
-221.59999999999999
20
145.69999999999999
10
-221.59999999999999
20
159.09999999999999
42
0.41421356237302565
10
-221.89999999999998
20
159.39999999999998
10
-235.29999999999998
20
159.39999999999998
42
0.41421356237312973
10
-235.59999999999999
20
159.09999999999999
10
-235.59999999999999
20
145.69999999999999
42
0.41421356237312973
0
LWPOLYLINE
5
218
100
AcDbEntity
8
0
100
AcDbPolyline
90
8
70
1
43
0.0
10
-463.89999999999992
20
88.25
10
-450.5
20
88.249999999999972
42
0.4142135623731471
10
-450.19999999999993
20
88.549999999999983
10
-450.19999999999993
20
101.94999999999999
42
0.41421356237304296
10
-450.49999999999989
20
102.24999999999997
10
-463.89999999999992
20
102.24999999999997
42
0.41421356237321644
10
-464.19999999999993
20
101.94999999999999
10
-464.19999999999993
20
88.549999999999983
42
0.41421356237295631
0
LWPOLYLINE
5
219
100
AcDbEntity
8
0
100
AcDbPolyline
90
8
70
1
43
0.0
10
-101.94999999999995
20
69.199999999999989
10
-88.549999999999983
20
69.199999999999989
42
0.41421356237308637
10
-88.249999999999972
20
69.499999999999986
10
-88.249999999999972
20
82.899999999999977
42
0.41421356237309509
10
-88.549999999999955
20
83.199999999999989
10
-101.94999999999995
20
83.199999999999989
42
0.41421356237316442
10
-102.24999999999996
20
82.899999999999977
10
-102.24999999999996
20
69.499999999999986
42
0.414213562373069
0
LWPOLYLINE
5
220
100
AcDbEntity
8
0
100
AcDbPolyline
90
8
70
1
43
0.0
10
-311.49999999999989
20
145.39999999999998
10
-298.09999999999997
20
145.39999999999998
42
0.41421356237309509
10
-297.79999999999995
20
145.69999999999999
10
-297.79999999999995
20
159.09999999999999
42
0.41421356237304296
10
-298.09999999999991
20
159.39999999999998
10
-311.49999999999989
20
159.39999999999998
42
0.41421356237309509
10
-311.79999999999995
20
159.09999999999999
10
-311.79999999999995
20
145.69999999999999
42
0.41421356237309509
0
LWPOLYLINE
5
221
100
AcDbEntity
8
0
100
AcDbPolyline
90
8
70
1
43
0.0
10
-521.04999999999995
20
126.34999999999998
10
-507.64999999999992
20
126.34999999999998
42
0.41421356237321644
10
-507.34999999999991
20
126.64999999999998
10
-507.34999999999991
20
140.04999999999998
42
0.41421356237300833
10
-507.64999999999986
20
140.34999999999997
10
-521.04999999999995
20
140.34999999999997
42
0.4142135623731471
10
-521.34999999999991
20
140.04999999999998
10
-521.34999999999991
20
126.64999999999998
42
0.41421356237295631
0
LWPOLYLINE
5
222
100
AcDbEntity
8
0
100
AcDbPolyline
90
8
70
1
43
0.0
10
-101.94999999999995
20
145.39999999999998
10
-88.549999999999983
20
145.39999999999998
42
0.41421356237311241
10
-88.249999999999972
20
145.69999999999999
10
-88.249999999999972
20
159.09999999999999
42
0.41421356237311241
10
-88.549999999999955
20
159.39999999999998
10
-101.94999999999995
20
159.39999999999998
42
0.41421356237311241
10
-102.24999999999996
20
159.09999999999999
10
-102.24999999999996
20
145.69999999999999
42
0.41421356237311241
0
LWPOLYLINE
5
223
100
AcDbEntity
8
0
100
AcDbPolyline
90
8
70
1
43
0.0
10
-120.99999999999996
20
145.39999999999998
10
-107.59999999999999
20
145.39999999999998
42
0.41421356237311241
10
-107.29999999999998
20
145.69999999999999
10
-107.29999999999998
20
159.09999999999999
42
0.41421356237309509
10
-107.59999999999994
20
159.39999999999998
10
-120.99999999999994
20
159.39999999999998
42
0.41421356237311241
10
-121.29999999999995
20
159.09999999999999
10
-121.29999999999995
20
145.69999999999999
42
0.41421356237309509
0
LWPOLYLINE
5
224
100
AcDbEntity
8
0
100
AcDbPolyline
90
8
70
1
43
0.0
10
-63.850000000000009
20
69.199999999999989
10
-50.45000000000001
20
69.199999999999989
42
0.41421356237310364
10
-50.149999999999999
20
69.499999999999986
10
-50.149999999999999
20
82.899999999999977
42
0.41421356237308637
10
-50.44999999999996
20
83.199999999999989
10
-63.849999999999966
20
83.199999999999989
42
0.41421356237311241
10
-64.149999999999977
20
82.899999999999977
10
-64.149999999999977
20
69.499999999999986
42
0.41421356237302565
0
LWPOLYLINE
5
225
100
AcDbEntity
8
0
100
AcDbPolyline
90
8
70
1
43
0.0
10
-463.89999999999992
20
69.199999999999989
10
-450.5
20
69.199999999999989
42
0.4142135623731471
10
-450.19999999999993
20
69.499999999999986
10
-450.19999999999993
20
82.899999999999977
42
0.4142135623730604
10
-450.49999999999989
20
83.199999999999989
10
-463.89999999999992
20
83.199999999999989
42
0.41421356237330315
10
-464.19999999999993
20
82.899999999999977
10
-464.19999999999993
20
69.499999999999986
42
0.41421356237293888
0
LWPOLYLINE
5
226
100
AcDbEntity
8
0
100
AcDbPolyline
90
8
70
1
43
0.0
10
-235.29999999999998
20
69.199999999999989
10
-221.90000000000001
20
69.199999999999989
42
0.41421356237312101
10
-221.59999999999999
20
69.499999999999986
10
-221.59999999999999
20
82.899999999999977
42
0.41421356237300833
10
-221.89999999999998
20
83.199999999999989
10
-235.29999999999998
20
83.199999999999989
42
0.41421356237312973
10
-235.59999999999999
20
82.899999999999977
10
-235.59999999999999
20
69.499999999999986
42
0.414213562373069
0
LWPOLYLINE
5
227
100
AcDbEntity
8
0
100
AcDbPolyline
90
8
70
1
43
0.0
10
-44.799999999999997
20
164.44999999999996
10
-31.399999999999999
20
164.44999999999996
42
0.41421356237308637
10
-31.099999999999987
20
164.74999999999997
10
-31.099999999999987
20
178.14999999999998
42
0.414213562373004
10
-31.399999999999963
20
178.44999999999996
10
-44.799999999999962
20
178.44999999999996
42
0.414213562373069
10
-45.099999999999973
20
178.14999999999998
10
-45.099999999999973
20
164.74999999999997
42
0.41421356237311241
0
LWPOLYLINE
5
228
100
AcDbEntity
8
0
100
AcDbPolyline
90
8
70
1
43
0.0
10
-140.04999999999995
20
50.149999999999999
10
-126.64999999999999
20
50.149999999999991
42
0.41421356237307771
10
-126.34999999999998
20
50.449999999999982
10
-126.34999999999998
20
63.84999999999998
42
0.41421356237305162
10
-126.64999999999995
20
64.149999999999977
10
-140.04999999999995
20
64.149999999999977
42
0.41421356237307771
10
-140.34999999999997
20
63.849999999999987
10
-140.34999999999997
20
50.449999999999989
42
0.414213562373069
0
LWPOLYLINE
5
229
100
AcDbEntity
8
0
100
AcDbPolyline
90
8
70
1
43
0.0
10
-63.850000000000009
20
164.44999999999996
10
-50.45000000000001
20
164.44999999999996
42
0.41421356237309509
10
-50.149999999999999
20
164.74999999999997
10
-50.149999999999999
20
178.14999999999998
42
0.41421356237300833
10
-50.44999999999996
20
178.44999999999996
10
-63.849999999999966
20
178.44999999999996
42
0.41421356237307771
10
-64.149999999999977
20
178.14999999999998
10
-64.149999999999977
20
164.74999999999997
42
0.41421356237310364
0
LWPOLYLINE
5
230
100
AcDbEntity
8
0
100
AcDbPolyline
90
8
70
1
43
0.0
10
-120.99999999999996
20
50.149999999999999
10
-107.59999999999999
20
50.149999999999991
42
0.41421356237307771
10
-107.29999999999998
20
50.449999999999982
10
-107.29999999999998
20
63.84999999999998
42
0.414213562373069
10
-107.59999999999994
20
64.149999999999977
10
-120.99999999999994
20
64.149999999999977
42
0.41421356237307771
10
-121.29999999999995
20
63.849999999999987
10
-121.29999999999995
20
50.449999999999989
42
0.41421356237305162
0
LWPOLYLINE
5
231
100
AcDbEntity
8
0
100
AcDbPolyline
90
8
70
1
43
0.0
10
-292.44999999999993
20
164.44999999999996
10
-279.04999999999995
20
164.44999999999996
42
0.41421356237309509
10
-278.74999999999994
20
164.74999999999997
10
-278.74999999999994
20
178.14999999999998
42
0.41421356237295631
10
-279.04999999999995
20
178.44999999999996
10
-292.44999999999993
20
178.44999999999996
42
0.41421356237312973
10
-292.74999999999994
20
178.14999999999998
10
-292.74999999999994
20
164.74999999999997
42
0.41421356237309509
0
LWPOLYLINE
5
232
100
AcDbEntity
8
0
100
AcDbPolyline
90
8
70
1
43
0.0
10
-311.49999999999989
20
164.44999999999996
10
-298.09999999999997
20
164.44999999999996
42
0.4142135623730604
10
-297.79999999999995
20
164.74999999999997
10
-297.79999999999995
20
178.14999999999998
42
0.41421356237299095
10
-298.09999999999991
20
178.44999999999996
10
-311.49999999999989
20
178.44999999999996
42
0.41421356237309509
10
-311.79999999999995
20
178.14999999999998
10
-311.79999999999995
20
164.74999999999997
42
0.4142135623730604
0
LWPOLYLINE
5
233
100
AcDbEntity
8
0
100
AcDbPolyline
90
8
70
1
43
0.0
10
-368.64999999999998
20
50.149999999999999
10
-355.25
20
50.149999999999991
42
0.41421356237320772
10
-354.94999999999999
20
50.449999999999982
10
-354.94999999999999
20
63.84999999999998
42
0.41421356237295631
10
-355.25
20
64.149999999999977
10
-368.64999999999998
20
64.149999999999977
42
0.41421356237313844
10
-368.94999999999993
20
63.849999999999987
10
-368.94999999999993
20
50.449999999999989
42
0.41421356237293888
0
LWPOLYLINE
5
234
100
AcDbEntity
8
0
100
AcDbPolyline
90
8
70
1
43
0.0
10
-254.34999999999991
20
50.149999999999999
10
-240.94999999999996
20
50.149999999999991
42
0.41421356237311241
10
-240.64999999999995
20
50.449999999999982
10
-240.64999999999995
20
63.84999999999998
42
0.41421356237298229
10
-240.94999999999993
20
64.149999999999977
10
-254.34999999999991
20
64.149999999999977
42
0.41421356237307771
10
-254.64999999999992
20
63.849999999999987
10
-254.64999999999992
20
50.449999999999989
42
0.414213562373069
0
LWPOLYLINE
5
235
100
AcDbEntity
8
0
100
AcDbPolyline
90
8
70
1
43
0.0
10
-349.59999999999991
20
50.149999999999999
10
-336.19999999999999
20
50.149999999999991
42
0.41421356237320772
10
-335.89999999999998
20
50.449999999999982
10
-335.89999999999998
20
63.84999999999998
42
0.41421356237295631
10
-336.19999999999999
20
64.149999999999977
10
-349.59999999999991
20
64.149999999999977
42
0.41421356237313844
10
-349.89999999999998
20
63.849999999999987
10
-349.89999999999998
20
50.449999999999989
42
0.41421356237293888
0
LWPOLYLINE
5
236
100
AcDbEntity
8
0
100
AcDbPolyline
90
8
70
1
43
0.0
10
-330.54999999999995
20
50.149999999999999
10
-317.14999999999998
20
50.149999999999991
42
0.41421356237307771
10
-316.84999999999997
20
50.449999999999982
10
-316.84999999999997
20
63.84999999999998
42
0.41421356237303436
10
-317.14999999999992
20
64.149999999999977
10
-330.54999999999995
20
64.149999999999977
42
0.41421356237313844
10
-330.84999999999991
20
63.849999999999987
10
-330.84999999999991
20
50.449999999999989
42
0.41421356237293888
0
LWPOLYLINE
5
237
100
AcDbEntity
8
0
100
AcDbPolyline
90
8
70
1
43
0.0
10
-482.94999999999993
20
164.44999999999996
10
-469.54999999999995
20
164.44999999999996
42
0.41421356237316442
10
-469.25
20
164.74999999999997
10
-469.25
20
178.14999999999998
42
0.4142135623730604
10
-469.54999999999984
20
178.44999999999996
10
-482.94999999999987
20
178.44999999999996
42
0.41421356237302565
10
-483.24999999999989
20
178.14999999999998
10
-483.24999999999989
20
164.74999999999997
42
0.41421356237309509
0
LWPOLYLINE
5
238
100
AcDbEntity
8
0
100
AcDbPolyline
90
8
70
1
43
0.0
10
-387.69999999999993
20
164.44999999999996
10
-374.30000000000001
20
164.44999999999996
42
0.41421356237323376
10
-374
20
164.74999999999997
10
-374
20
178.14999999999998
42
0.41421356237292162
10
-374.30000000000001
20
178.44999999999996
10
-387.69999999999993
20
178.44999999999996
42
0.41421356237302565
10
-388
20
178.14999999999998
10
-388
20
164.74999999999997
42
0.41421356237316442
0
LWPOLYLINE
5
239
100
AcDbEntity
8
0
100
AcDbPolyline
90
8
70
1
43
0.0
10
-140.04999999999995
20
164.44999999999996
10
-126.64999999999999
20
164.44999999999996
42
0.4142135623731471
10
-126.34999999999998
20
164.74999999999997
10
-126.34999999999998
20
178.14999999999998
42
0.41421356237297358
10
-126.64999999999995
20
178.44999999999996
10
-140.04999999999995
20
178.44999999999996
42
0.41421356237312973
10
-140.34999999999997
20
178.14999999999998
10
-140.34999999999997
20
164.74999999999997
42
0.41421356237307771
0
LWPOLYLINE
5
240
100
AcDbEntity
8
0
100
AcDbPolyline
90
8
70
1
43
0.0
10
-292.44999999999993
20
50.149999999999999
10
-279.04999999999995
20
50.149999999999991
42
0.41421356237311241
10
-278.74999999999994
20
50.449999999999982
10
-278.74999999999994
20
63.84999999999998
42
0.41421356237298229
10
-279.04999999999995
20
64.149999999999977
10
-292.44999999999993
20
64.149999999999977
42
0.41421356237307771
10
-292.74999999999994
20
63.849999999999987
10
-292.74999999999994
20
50.449999999999989
42
0.414213562373069
0
LWPOLYLINE
5
241
100
AcDbEntity
8
0
100
AcDbPolyline
90
8
70
1
43
0.0
10
-495.91899981726624
20
31.104777673126314
10
-456.5189997874644
20
31.104777673126289
42
0.41421356237313844
10
-456.21899978746444
20
31.40477767312629
10
-456.21899978746444
20
44.804777702928639
42
0.41421356237297358
10
-456.51899978746428
20
45.104777702928629
10
-495.91899981726618
20
45.104777702928651
42
0.41421356237320772
10
-496.21899981726631
20
44.804777702928646
10
-496.21899981726619
20
31.404777673126301
42
0.41421356237287388
0
LWPOLYLINE
5
242
100
AcDbEntity
8
0
100
AcDbPolyline
90
8
70
1
43
0.0
10
-63.850000000000009
20
50.149999999999999
10
-50.45000000000001
20
50.149999999999991
42
0.41421356237309509
10
-50.149999999999999
20
50.449999999999982
10
-50.149999999999999
20
63.84999999999998
42
0.41421356237303436
10
-50.44999999999996
20
64.149999999999977
10
-63.849999999999966
20
64.149999999999977
42
0.414213562373069
10
-64.149999999999977
20
63.849999999999987
10
-64.149999999999977
20
50.449999999999989
42
0.41421356237302565
0
LWPOLYLINE
5
243
100
AcDbEntity
8
0
100
AcDbPolyline
90
8
70
1
43
0.0
10
-235.29999999999998
20
50.149999999999999
10
-221.90000000000001
20
50.149999999999991
42
0.41421356237311241
10
-221.59999999999999
20
50.449999999999982
10
-221.59999999999999
20
63.84999999999998
42
0.41421356237298229
10
-221.89999999999998
20
64.149999999999977
10
-235.29999999999998
20
64.149999999999977
42
0.41421356237307771
10
-235.59999999999999
20
63.849999999999987
10
-235.59999999999999
20
50.449999999999989
42
0.414213562373069
0
LWPOLYLINE
5
244
100
AcDbEntity
8
0
100
AcDbPolyline
90
8
70
1
43
0.0
10
-368.64999999999998
20
164.44999999999996
10
-355.25
20
164.44999999999996
42
0.41421356237323376
10
-354.94999999999999
20
164.74999999999997
10
-354.94999999999999
20
178.14999999999998
42
0.41421356237292162
10
-355.25
20
178.44999999999996
10
-368.64999999999998
20
178.44999999999996
42
0.41421356237302565
10
-368.94999999999993
20
178.14999999999998
10
-368.94999999999993
20
164.74999999999997
42
0.41421356237316442
0
LWPOLYLINE
5
245
100
AcDbEntity
8
0
100
AcDbPolyline
90
8
70
1
43
0.0
10
-82.899999999999935
20
50.149999999999999
10
-69.499999999999972
20
50.149999999999991
42
0.41421356237307771
10
-69.19999999999996
20
50.449999999999982
10
-69.19999999999996
20
63.84999999999998
42
0.41421356237308637
10
-69.499999999999972
20
64.149999999999977
10
-82.899999999999935
20
64.149999999999977
42
0.41421356237307771
10
-83.199999999999946
20
63.849999999999987
10
-83.199999999999946
20
50.449999999999989
42
0.414213562373069
0
LWPOLYLINE
5
246
100
AcDbEntity
8
0
100
AcDbPolyline
90
8
70
1
43
0.0
10
-330.54999999999995
20
164.44999999999996
10
-317.14999999999998
20
164.44999999999996
42
0.4142135623730604
10
-316.84999999999997
20
164.74999999999997
10
-316.84999999999997
20
178.14999999999998
42
0.41421356237299095
10
-317.14999999999992
20
178.44999999999996
10
-330.54999999999995
20
178.44999999999996
42
0.41421356237302565
10
-330.84999999999991
20
178.14999999999998
10
-330.84999999999991
20
164.74999999999997
42
0.41421356237316442
0
LWPOLYLINE
5
247
100
AcDbEntity
8
0
100
AcDbPolyline
90
8
70
1
43
0.0
10
-425.79999999999995
20
164.44999999999996
10
-412.40000000000003
20
164.44999999999996
42
0.41421356237323376
10
-412.10000000000002
20
164.74999999999997
10
-412.10000000000002
20
178.14999999999998
42
0.41421356237292162
10
-412.40000000000003
20
178.44999999999996
10
-425.79999999999995
20
178.44999999999996
42
0.41421356237302565
10
-426.10000000000002
20
178.14999999999998
10
-426.10000000000002
20
164.74999999999997
42
0.41421356237316442
0
LWPOLYLINE
5
248
100
AcDbEntity
8
0
100
AcDbPolyline
90
8
70
1
43
0.0
10
-101.94999999999995
20
50.149999999999999
10
-88.549999999999983
20
50.149999999999991
42
0.41421356237307771
10
-88.249999999999972
20
50.449999999999982
10
-88.249999999999972
20
63.84999999999998
42
0.41421356237308637
10
-88.549999999999955
20
64.149999999999977
10
-101.94999999999995
20
64.149999999999977
42
0.41421356237307771
10
-102.24999999999996
20
63.849999999999987
10
-102.24999999999996
20
50.449999999999989
42
0.414213562373069
0
LWPOLYLINE
5
249
100
AcDbEntity
8
0
100
AcDbPolyline
90
8
70
1
43
0.0
10
-273.39999999999992
20
164.44999999999996
10
-259.99999999999994
20
164.44999999999996
42
0.41421356237309509
10
-259.69999999999993
20
164.74999999999997
10
-259.69999999999993
20
178.14999999999998
42
0.41421356237295631
10
-259.99999999999994
20
178.44999999999996
10
-273.39999999999992
20
178.44999999999996
42
0.41421356237312973
10
-273.69999999999993
20
178.14999999999998
10
-273.69999999999993
20
164.74999999999997
42
0.41421356237309509
0
LWPOLYLINE
5
250
100
AcDbEntity
8
0
100
AcDbPolyline
90
8
70
1
43
0.0
10
-254.34999999999991
20
164.44999999999996
10
-240.94999999999996
20
164.44999999999996
42
0.41421356237309509
10
-240.64999999999995
20
164.74999999999997
10
-240.64999999999995
20
178.14999999999998
42
0.41421356237295631
10
-240.94999999999993
20
178.44999999999996
10
-254.34999999999991
20
178.44999999999996
42
0.41421356237312973
10
-254.64999999999992
20
178.14999999999998
10
-254.64999999999992
20
164.74999999999997
42
0.41421356237309509
0
LWPOLYLINE
5
251
100
AcDbEntity
8
0
100
AcDbPolyline
90
8
70
1
43
0.0
10
-387.69999999999993
20
50.149999999999999
10
-374.30000000000001
20
50.149999999999991
42
0.41421356237320772
10
-374
20
50.449999999999982
10
-374
20
63.84999999999998
42
0.41421356237295631
10
-374.30000000000001
20
64.149999999999977
10
-387.69999999999993
20
64.149999999999977
42
0.41421356237313844
10
-388
20
63.849999999999987
10
-388
20
50.449999999999989
42
0.41421356237293888
0
LWPOLYLINE
5
252
100
AcDbEntity
8
0
100
AcDbPolyline
90
8
70
1
43
0.0
10
-406.75
20
50.149999999999999
10
-393.35000000000002
20
50.149999999999991
42
0.41421356237320772
10
-393.05000000000001
20
50.449999999999982
10
-393.05000000000001
20
63.84999999999998
42
0.41421356237295631
10
-393.35000000000002
20
64.149999999999977
10
-406.75
20
64.149999999999977
42
0.41421356237313844
10
-407.04999999999995
20
63.849999999999987
10
-407.04999999999995
20
50.449999999999989
42
0.41421356237293888
0
LWPOLYLINE
5
253
100
AcDbEntity
8
0
100
AcDbPolyline
90
8
70
1
43
0.0
10
-501.99999999999989
20
50.149999999999999
10
-488.59999999999991
20
50.149999999999991
42
0.41421356237320772
10
-488.2999999999999
20
50.449999999999982
10
-488.2999999999999
20
63.84999999999998
42
0.41421356237300833
10
-488.59999999999985
20
64.149999999999977
10
-501.99999999999989
20
64.149999999999977
42
0.41421356237313844
10
-502.2999999999999
20
63.849999999999987
10
-502.2999999999999
20
50.449999999999989
42
0.41421356237293888
0
LWPOLYLINE
5
254
100
AcDbEntity
8
0
100
AcDbPolyline
90
8
70
1
43
0.0
10
-216.24999999999997
20
69.199999999999989
10
-202.84999999999999
20
69.199999999999989
42
0.41421356237312101
10
-202.54999999999998
20
69.499999999999986
10
-202.54999999999998
20
82.899999999999977
42
0.41421356237300833
10
-202.84999999999997
20
83.199999999999989
10
-216.24999999999997
20
83.199999999999989
42
0.41421356237312973
10
-216.54999999999998
20
82.899999999999977
10
-216.54999999999998
20
69.499999999999986
42
0.414213562373069
0
LWPOLYLINE
5
255
100
AcDbEntity
8
0
100
AcDbPolyline
90
8
70
1
43
0.0
10
-444.84999999999991
20
69.199999999999989
10
-431.44999999999993
20
69.199999999999989
42
0.4142135623731471
10
-431.14999999999998
20
69.499999999999986
10
-431.14999999999998
20
82.899999999999977
42
0.4142135623730604
10
-431.44999999999987
20
83.199999999999989
10
-444.84999999999991
20
83.199999999999989
42
0.41421356237330315
10
-445.14999999999992
20
82.899999999999977
10
-445.14999999999992
20
69.499999999999986
42
0.41421356237293888
0
LWPOLYLINE
5
256
100
AcDbEntity
8
0
100
AcDbPolyline
90
8
70
1
43
0.0
10
-140.04999999999995
20
145.39999999999998
10
-126.64999999999999
20
145.39999999999998
42
0.41421356237311241
10
-126.34999999999998
20
145.69999999999999
10
-126.34999999999998
20
159.09999999999999
42
0.4142135623730604
10
-126.64999999999995
20
159.39999999999998
10
-140.04999999999995
20
159.39999999999998
42
0.41421356237311241
10
-140.34999999999997
20
159.09999999999999
10
-140.34999999999997
20
145.69999999999999
42
0.41421356237311241
0
LWPOLYLINE
5
257
100
AcDbEntity
8
0
100
AcDbPolyline
90
8
70
1
43
0.0
10
-330.54999999999995
20
69.199999999999989
10
-317.14999999999998
20
69.199999999999989
42
0.41421356237308637
10
-316.84999999999997
20
69.499999999999986
10
-316.84999999999997
20
82.899999999999977
42
0.4142135623730604
10
-317.14999999999992
20
83.199999999999989
10
-330.54999999999995
20
83.199999999999989
42
0.41421356237323376
10
-330.84999999999991
20
82.899999999999977
10
-330.84999999999991
20
69.499999999999986
42
0.41421356237293888
0
LWPOLYLINE
5
258
100
AcDbEntity
8
0
100
AcDbPolyline
90
8
70
1
43
0.0
10
-330.54999999999995
20
145.39999999999998
10
-317.14999999999998
20
145.39999999999998
42
0.41421356237309509
10
-316.84999999999997
20
145.69999999999999
10
-316.84999999999997
20
159.09999999999999
42
0.41421356237304296
10
-317.14999999999992
20
159.39999999999998
10
-330.54999999999995
20
159.39999999999998
42
0.4142135623731471
10
-330.84999999999991
20
159.09999999999999
10
-330.84999999999991
20
145.69999999999999
42
0.41421356237295631
0
LWPOLYLINE
5
259
100
AcDbEntity
8
0
100
AcDbPolyline
90
8
70
1
43
0.0
10
-521.04999999999995
20
69.199999999999989
10
-507.64999999999992
20
69.199999999999989
42
0.41421356237321644
10
-507.34999999999991
20
69.499999999999986
10
-507.34999999999991
20
82.899999999999977
42
0.41421356237302565
10
-507.64999999999986
20
83.199999999999989
10
-521.04999999999995
20
83.199999999999989
42
0.41421356237323376
10
-521.34999999999991
20
82.899999999999977
10
-521.34999999999991
20
69.499999999999986
42
0.41421356237293888
0
LWPOLYLINE
5
260
100
AcDbEntity
8
0
100
AcDbPolyline
90
8
70
1
43
0.0
10
-82.899999999999935
20
69.199999999999989
10
-69.499999999999972
20
69.199999999999989
42
0.41421356237308637
10
-69.19999999999996
20
69.499999999999986
10
-69.19999999999996
20
82.899999999999977
42
0.41421356237308637
10
-69.499999999999972
20
83.199999999999989
10
-82.899999999999935
20
83.199999999999989
42
0.41421356237316442
10
-83.199999999999946
20
82.899999999999977
10
-83.199999999999946
20
69.499999999999986
42
0.414213562373069
0
LWPOLYLINE
5
261
100
AcDbEntity
8
0
100
AcDbPolyline
90
8
70
1
43
0.0
10
-82.899999999999935
20
145.39999999999998
10
-69.499999999999972
20
145.39999999999998
42
0.41421356237307771
10
-69.19999999999996
20
145.69999999999999
10
-69.19999999999996
20
159.09999999999999
42
0.41421356237310364
10
-69.499999999999972
20
159.39999999999998
10
-82.899999999999935
20
159.39999999999998
42
0.41421356237311241
10
-83.199999999999946
20
159.09999999999999
10
-83.199999999999946
20
145.69999999999999
42
0.41421356237311241
0
LWPOLYLINE
5
262
100
AcDbEntity
8
0
100
AcDbPolyline
90
8
70
1
43
0.0
10
-273.39999999999992
20
145.39999999999998
10
-259.99999999999994
20
145.39999999999998
42
0.41421356237312973
10
-259.69999999999993
20
145.69999999999999
10
-259.69999999999993
20
159.09999999999999
42
0.41421356237302565
10
-259.99999999999994
20
159.39999999999998
10
-273.39999999999992
20
159.39999999999998
42
0.41421356237312973
10
-273.69999999999993
20
159.09999999999999
10
-273.69999999999993
20
145.69999999999999
42
0.41421356237312973
0
LWPOLYLINE
5
263
100
AcDbEntity
8
0
100
AcDbPolyline
90
8
70
1
43
0.0
10
-254.34999999999991
20
145.39999999999998
10
-240.94999999999996
20
145.39999999999998
42
0.41421356237312973
10
-240.64999999999995
20
145.69999999999999
10
-240.64999999999995
20
159.09999999999999
42
0.41421356237302565
10
-240.94999999999993
20
159.39999999999998
10
-254.34999999999991
20
159.39999999999998
42
0.41421356237312973
10
-254.64999999999992
20
159.09999999999999
10
-254.64999999999992
20
145.69999999999999
42
0.41421356237312973
0
LWPOLYLINE
5
264
100
AcDbEntity
8
0
100
AcDbPolyline
90
8
70
1
43
0.0
10
-140.04999999999995
20
126.34999999999998
10
-126.64999999999999
20
126.34999999999998
42
0.41421356237311241
10
-126.34999999999998
20
126.64999999999998
10
-126.34999999999998
20
140.04999999999998
42
0.4142135623730604
10
-126.64999999999995
20
140.34999999999997
10
-140.04999999999995
20
140.34999999999997
42
0.41421356237311241
10
-140.34999999999997
20
140.04999999999998
10
-140.34999999999997
20
126.64999999999998
42
0.41421356237311241
0
LWPOLYLINE
5
265
100
AcDbEntity
8
0
100
AcDbPolyline
90
8
70
1
43
0.0
10
-44.799999999999997
20
107.29999999999998
10
-31.399999999999999
20
107.29999999999998
42
0.41421356237309936
10
-31.099999999999987
20
107.59999999999998
10
-31.099999999999987
20
120.99999999999997
42
0.41421356237299528
10
-31.399999999999963
20
121.29999999999995
10
-44.799999999999962
20
121.29999999999995
42
0.41421356237307771
10
-45.099999999999973
20
121
10
-45.099999999999973
20
107.59999999999999
42
0.41421356237309509
0
LWPOLYLINE
5
266
100
AcDbEntity
8
0
100
AcDbPolyline
90
8
70
1
43
0.0
10
-120.99999999999996
20
126.34999999999998
10
-107.59999999999999
20
126.34999999999998
42
0.41421356237311241
10
-107.29999999999998
20
126.64999999999998
10
-107.29999999999998
20
140.04999999999998
42
0.41421356237309509
10
-107.59999999999994
20
140.34999999999997
10
-120.99999999999994
20
140.34999999999997
42
0.41421356237311241
10
-121.29999999999995
20
140.04999999999998
10
-121.29999999999995
20
126.64999999999998
42
0.41421356237309509
0
LWPOLYLINE
5
267
100
AcDbEntity
8
0
100
AcDbPolyline
90
8
70
1
43
0.0
10
-425.79999999999995
20
126.34999999999998
10
-412.40000000000003
20
126.34999999999998
42
0.41421356237321644
10
-412.10000000000002
20
126.64999999999998
10
-412.10000000000002
20
140.04999999999998
42
0.41421356237295631
10
-412.40000000000003
20
140.34999999999997
10
-425.79999999999995
20
140.34999999999997
42
0.4142135623731471
10
-426.10000000000002
20
140.04999999999998
10
-426.10000000000002
20
126.64999999999998
42
0.41421356237295631
0
LWPOLYLINE
5
268
100
AcDbEntity
8
0
100
AcDbPolyline
90
8
70
1
43
0.0
10
-349.59999999999991
20
69.199999999999989
10
-336.19999999999999
20
69.199999999999989
42
0.41421356237321644
10
-335.89999999999998
20
69.499999999999986
10
-335.89999999999998
20
82.899999999999977
42
0.41421356237319912
10
-336.19999999999999
20
83.199999999999989
10
-349.59999999999991
20
83.199999999999989
42
0.41421356237323376
10
-349.89999999999998
20
82.899999999999977
10
-349.89999999999998
20
69.499999999999986
42
0.41421356237293888
0
LWPOLYLINE
5
269
100
AcDbEntity
8
0
100
AcDbPolyline
90
8
70
1
43
0.0
10
-501.99999999999989
20
88.25
10
-488.59999999999991
20
88.249999999999972
42
0.41421356237321644
10
-488.2999999999999
20
88.549999999999983
10
-488.2999999999999
20
101.94999999999999
42
0.41421356237300833
10
-488.59999999999985
20
102.24999999999997
10
-501.99999999999989
20
102.24999999999997
42
0.4142135623731471
10
-502.2999999999999
20
101.94999999999999
10
-502.2999999999999
20
88.549999999999983
42
0.41421356237295631
0
LWPOLYLINE
5
270
100
AcDbEntity
8
0
100
AcDbPolyline
90
8
70
1
43
0.0
10
-387.69999999999993
20
69.199999999999989
10
-374.30000000000001
20
69.199999999999989
42
0.41421356237321644
10
-374
20
69.499999999999986
10
-374
20
82.899999999999977
42
0.41421356237319912
10
-374.30000000000001
20
83.199999999999989
10
-387.69999999999993
20
83.199999999999989
42
0.41421356237323376
10
-388
20
82.899999999999977
10
-388
20
69.499999999999986
42
0.41421356237293888
0
LWPOLYLINE
5
271
100
AcDbEntity
8
0
100
AcDbPolyline
90
8
70
1
43
0.0
10
-101.94999999999995
20
88.25
10
-88.549999999999983
20
88.249999999999972
42
0.41421356237311241
10
-88.249999999999972
20
88.549999999999983
10
-88.249999999999972
20
101.94999999999999
42
0.41421356237311241
10
-88.549999999999955
20
102.24999999999997
10
-101.94999999999995
20
102.24999999999997
42
0.41421356237311241
10
-102.24999999999996
20
101.94999999999999
10
-102.24999999999996
20
88.549999999999983
42
0.41421356237311241
0
LWPOLYLINE
5
272
100
AcDbEntity
8
0
100
AcDbPolyline
90
8
70
1
43
0.0
10
-292.44999999999993
20
107.29999999999998
10
-279.04999999999995
20
107.29999999999998
42
0.41421356237311241
10
-278.74999999999994
20
107.59999999999998
10
-278.74999999999994
20
120.99999999999997
42
0.41421356237297358
10
-279.04999999999995
20
121.29999999999995
10
-292.44999999999993
20
121.29999999999995
42
0.41421356237307771
10
-292.74999999999994
20
121
10
-292.74999999999994
20
107.59999999999999
42
0.41421356237307771
0
LWPOLYLINE
5
273
100
AcDbEntity
8
0
100
AcDbPolyline
90
8
70
1
43
0.0
10
-482.94999999999993
20
107.29999999999998
10
-469.54999999999995
20
107.29999999999998
42
0.41421356237321644
10
-469.25
20
107.59999999999998
10
-469.25
20
120.99999999999997
42
0.41421356237304296
10
-469.54999999999984
20
121.29999999999995
10
-482.94999999999987
20
121.29999999999995
42
0.41421356237292162
10
-483.24999999999989
20
121
10
-483.24999999999989
20
107.59999999999999
42
0.4142135623730604
0
LWPOLYLINE
5
274
100
AcDbEntity
8
0
100
AcDbPolyline
90
8
70
1
43
0.0
10
-140.04999999999995
20
88.25
10
-126.64999999999999
20
88.249999999999972
42
0.41421356237311241
10
-126.34999999999998
20
88.549999999999983
10
-126.34999999999998
20
101.94999999999999
42
0.4142135623730604
10
-126.64999999999995
20
102.24999999999997
10
-140.04999999999995
20
102.24999999999997
42
0.41421356237311241
10
-140.34999999999997
20
101.94999999999999
10
-140.34999999999997
20
88.549999999999983
42
0.41421356237311241
0
LWPOLYLINE
5
275
100
AcDbEntity
8
0
100
AcDbPolyline
90
8
70
1
43
0.0
10
-349.59999999999991
20
126.34999999999998
10
-336.19999999999999
20
126.34999999999998
42
0.41421356237321644
10
-335.89999999999998
20
126.64999999999998
10
-335.89999999999998
20
140.04999999999998
42
0.41421356237295631
10
-336.19999999999999
20
140.34999999999997
10
-349.59999999999991
20
140.34999999999997
42
0.4142135623731471
10
-349.89999999999998
20
140.04999999999998
10
-349.89999999999998
20
126.64999999999998
42
0.41421356237295631
0
LWPOLYLINE
5
276
100
AcDbEntity
8
0
100
AcDbPolyline
90
8
70
1
43
0.0
10
-273.39999999999992
20
126.34999999999998
10
-259.99999999999994
20
126.34999999999998
42
0.41421356237312973
10
-259.69999999999993
20
126.64999999999998
10
-259.69999999999993
20
140.04999999999998
42
0.41421356237302565
10
-259.99999999999994
20
140.34999999999997
10
-273.39999999999992
20
140.34999999999997
42
0.41421356237312973
10
-273.69999999999993
20
140.04999999999998
10
-273.69999999999993
20
126.64999999999998
42
0.41421356237312973
0
LWPOLYLINE
5
277
100
AcDbEntity
8
0
100
AcDbPolyline
90
8
70
1
43
0.0
10
-101.94999999999995
20
107.29999999999998
10
-88.549999999999983
20
107.29999999999998
42
0.4142135623731471
10
-88.249999999999972
20
107.59999999999998
10
-88.249999999999972
20
120.99999999999997
42
0.41421356237299095
10
-88.549999999999955
20
121.29999999999995
10
-101.94999999999995
20
121.29999999999995
42
0.41421356237304296
10
-102.24999999999996
20
121
10
-102.24999999999996
20
107.59999999999999
42
0.4142135623730604
0
LWPOLYLINE
5
278
100
AcDbEntity
8
0
100
AcDbPolyline
90
8
70
1
43
0.0
10
-216.24999999999997
20
126.34999999999998
10
-202.84999999999999
20
126.34999999999998
42
0.41421356237312973
10
-202.54999999999998
20
126.64999999999998
10
-202.54999999999998
20
140.04999999999998
42
0.41421356237302565
10
-202.84999999999997
20
140.34999999999997
10
-216.24999999999997
20
140.34999999999997
42
0.41421356237312973
10
-216.54999999999998
20
140.04999999999998
10
-216.54999999999998
20
126.64999999999998
42
0.41421356237312973
0
LWPOLYLINE
5
279
100
AcDbEntity
8
0
100
AcDbPolyline
90
8
70
1
43
0.0
10
-44.799999999999997
20
126.34999999999998
10
-31.399999999999999
20
126.34999999999998
42
0.41421356237308204
10
-31.099999999999987
20
126.64999999999998
10
-31.099999999999987
20
140.04999999999998
42
0.41421356237307339
10
-31.399999999999963
20
140.34999999999997
10
-44.799999999999962
20
140.34999999999997
42
0.41421356237307771
10
-45.099999999999973
20
140.04999999999998
10
-45.099999999999973
20
126.64999999999998
42
0.414213562373069
0
LWPOLYLINE
5
280
100
AcDbEntity
8
0
100
AcDbPolyline
90
8
70
1
43
0.0
10
-254.34999999999991
20
107.29999999999998
10
-240.94999999999996
20
107.29999999999998
42
0.41421356237311241
10
-240.64999999999995
20
107.59999999999998
10
-240.64999999999995
20
120.99999999999997
42
0.41421356237297358
10
-240.94999999999993
20
121.29999999999995
10
-254.34999999999991
20
121.29999999999995
42
0.41421356237307771
10
-254.64999999999992
20
121
10
-254.64999999999992
20
107.59999999999999
42
0.41421356237307771
0
LWPOLYLINE
5
281
100
AcDbEntity
8
0
100
AcDbPolyline
90
8
70
1
43
0.0
10
-159.09999999999994
20
50.149999999999999
10
-145.69999999999999
20
50.149999999999991
42
0.41421356237307771
10
-145.39999999999995
20
50.449999999999982
10
-145.39999999999998
20
63.84999999999998
42
0.41421356237308637
10
-145.69999999999996
20
64.149999999999977
10
-159.09999999999994
20
64.149999999999977
42
0.41421356237307771
10
-159.39999999999995
20
63.849999999999987
10
-159.39999999999995
20
50.449999999999989
42
0.414213562373069
0
LWPOLYLINE
5
282
100
AcDbEntity
8
0
100
AcDbPolyline
90
8
70
1
43
0.0
10
-197.19999999999996
20
50.149999999999999
10
-183.79999999999998
20
50.149999999999991
42
0.41421356237311241
10
-183.49999999999997
20
50.449999999999982
10
-183.49999999999997
20
63.84999999999998
42
0.41421356237298229
10
-183.79999999999995
20
64.149999999999977
10
-197.19999999999996
20
64.149999999999977
42
0.41421356237307771
10
-197.49999999999997
20
63.849999999999987
10
-197.49999999999997
20
50.449999999999989
42
0.414213562373069
0
LWPOLYLINE
5
283
100
AcDbEntity
8
0
100
AcDbPolyline
90
8
70
1
43
0.0
10
-159.09999999999994
20
69.199999999999989
10
-145.69999999999999
20
69.199999999999989
42
0.41421356237308637
10
-145.39999999999995
20
69.499999999999986
10
-145.39999999999998
20
82.899999999999977
42
0.41421356237309509
10
-145.69999999999996
20
83.199999999999989
10
-159.09999999999994
20
83.199999999999989
42
0.41421356237316442
10
-159.39999999999995
20
82.899999999999977
10
-159.39999999999995
20
69.499999999999986
42
0.414213562373069
0
LWPOLYLINE
5
284
100
AcDbEntity
8
0
100
AcDbPolyline
90
8
70
1
43
0.0
10
-178.14999999999995
20
145.39999999999998
10
-164.74999999999997
20
145.39999999999998
42
0.41421356237312973
10
-164.44999999999996
20
145.69999999999999
10
-164.44999999999996
20
159.09999999999999
42
0.41421356237302565
10
-164.74999999999994
20
159.39999999999998
10
-178.14999999999995
20
159.39999999999998
42
0.41421356237312973
10
-178.44999999999996
20
159.09999999999999
10
-178.44999999999996
20
145.69999999999999
42
0.41421356237312973
0
LWPOLYLINE
5
285
100
AcDbEntity
8
0
100
AcDbPolyline
90
8
70
1
43
0.0
10
-197.19999999999996
20
88.25
10
-183.79999999999998
20
88.249999999999972
42
0.41421356237312973
10
-183.49999999999997
20
88.549999999999983
10
-183.49999999999997
20
101.94999999999999
42
0.41421356237302565
10
-183.79999999999995
20
102.24999999999997
10
-197.19999999999996
20
102.24999999999997
42
0.41421356237312973
10
-197.49999999999997
20
101.94999999999999
10
-197.49999999999997
20
88.549999999999983
42
0.41421356237312973
0
LWPOLYLINE
5
286
100
AcDbEntity
8
0
100
AcDbPolyline
90
8
70
1
43
0.0
10
-159.09999999999994
20
107.29999999999998
10
-145.69999999999999
20
107.29999999999998
42
0.4142135623731471
10
-145.39999999999995
20
107.59999999999998
10
-145.39999999999998
20
120.99999999999997
42
0.41421356237299095
10
-145.69999999999996
20
121.29999999999995
10
-159.09999999999994
20
121.29999999999995
42
0.41421356237304296
10
-159.39999999999995
20
121
10
-159.39999999999995
20
107.59999999999999
42
0.4142135623730604
0
LWPOLYLINE
5
287
100
AcDbEntity
8
0
100
AcDbPolyline
90
8
70
1
43
0.0
10
-521.04999999999995
20
50.149999999999999
10
-507.64999999999992
20
50.149999999999991
42
0.41421356237320772
10
-507.34999999999991
20
50.449999999999982
10
-507.34999999999991
20
63.84999999999998
42
0.41421356237300833
10
-507.64999999999986
20
64.149999999999977
10
-521.04999999999995
20
64.149999999999977
42
0.41421356237313844
10
-521.34999999999991
20
63.849999999999987
10
-521.34999999999991
20
50.449999999999989
42
0.41421356237293888
0
ENDSEC
0
SECTION
2
OBJECTS
0
DICTIONARY
5
C
100
AcDbDictionary
3
ACAD_GROUP
350
D
3
ACAD_MLINESTYLE
350
17
0
DICTIONARY
5
D
100
AcDbDictionary
0
DICTIONARY
5
1A
330
C
100
AcDbDictionary
0
DICTIONARY
5
17
100
AcDbDictionary
0
ENDSEC
0
EOF
