M48
; DRILL file {KiCad (6.0.0-0)} date 2021 December 27, Monday 00:13:57
; FORMAT={-:-/ absolute / inch / decimal}
; #@! TF.CreationDate,2021-12-27T00:13:57+03:00
; #@! TF.GenerationSoftware,Kicad,Pcbnew,(6.0.0-0)
; #@! TF.FileFunction,NonPlated,1,2,NPTH
FMAT,2
INCH
; #@! TA.AperFunction,NonPlated,NPTH,ComponentDrill
T1C0.0433
; #@! TA.AperFunction,NonPlated,NPTH,ComponentDrill
T2C0.0669
; #@! TA.AperFunction,NonPlated,NPTH,ComponentDrill
T3C0.1181
; #@! TA.AperFunction,NonPlated,NPTH,ComponentDrill
T4C0.1575
%
G90
G05
T1
X3.1875Y-1.199
X3.1875Y-1.3171
T2
X1.3Y-2.25
X1.3Y-3.0
X1.3Y-3.75
X1.3Y-4.5
X1.3Y-5.25
X1.3Y-6.0
X1.3Y-6.75
X1.7Y-2.25
X1.7Y-3.0
X1.7Y-3.75
X1.7Y-4.5
X1.7Y-5.25
X1.7Y-6.0
X1.7Y-6.75
X2.05Y-2.25
X2.05Y-3.0
X2.05Y-3.75
X2.05Y-4.5
X2.05Y-5.25
X2.05Y-6.0
X2.05Y-6.75
X2.45Y-2.25
X2.45Y-3.0
X2.45Y-3.75
X2.45Y-4.5
X2.45Y-5.25
X2.45Y-6.0
X2.45Y-6.75
X2.8Y-2.25
X2.8Y-3.0
X2.8Y-3.75
X2.8Y-4.5
X2.8Y-5.25
X2.8Y-6.0
X2.8Y-6.75
X3.2Y-2.25
X3.2Y-3.0
X3.2Y-3.75
X3.2Y-4.5
X3.2Y-5.25
X3.2Y-6.0
X3.2Y-6.75
X3.55Y-2.25
X3.55Y-3.0
X3.55Y-3.75
X3.55Y-4.5
X3.55Y-5.25
X3.55Y-6.0
X3.55Y-6.75
X3.95Y-2.25
X3.95Y-3.0
X3.95Y-3.75
X3.95Y-4.5
X3.95Y-5.25
X3.95Y-6.0
X3.95Y-6.75
X4.3Y-2.25
X4.3Y-3.0
X4.3Y-3.75
X4.3Y-4.5
X4.3Y-5.25
X4.3Y-6.0
X4.3Y-6.75
X4.7Y-2.25
X4.7Y-3.0
X4.7Y-3.75
X4.7Y-4.5
X4.7Y-5.25
X4.7Y-6.0
X4.7Y-6.75
X5.05Y-2.25
X5.05Y-3.0
X5.05Y-3.75
X5.05Y-4.5
X5.05Y-5.25
X5.05Y-6.0
X5.05Y-6.75
X5.45Y-2.25
X5.45Y-3.0
X5.45Y-3.75
X5.45Y-4.5
X5.45Y-5.25
X5.45Y-6.0
X5.45Y-6.75
X5.8Y-2.25
X5.8Y-3.0
X5.8Y-3.75
X5.8Y-4.5
X5.8Y-5.25
X5.8Y-6.0
X5.8Y-6.75
X6.2Y-2.25
X6.2Y-3.0
X6.2Y-3.75
X6.2Y-4.5
X6.2Y-5.25
X6.2Y-6.0
X6.2Y-6.75
X6.55Y-2.25
X6.55Y-3.0
X6.55Y-3.75
X6.55Y-4.5
X6.55Y-5.25
X6.55Y-6.0
X6.55Y-6.75
X6.95Y-2.25
X6.95Y-3.0
X6.95Y-3.75
X6.95Y-4.5
X6.95Y-5.25
X6.95Y-6.0
X6.95Y-6.75
X7.3Y-2.25
X7.3Y-3.0
X7.3Y-3.75
X7.3Y-4.5
X7.3Y-5.25
X7.3Y-6.0
X7.3Y-6.75
X7.7Y-2.25
X7.7Y-3.0
X7.7Y-3.75
X7.7Y-4.5
X7.7Y-5.25
X7.7Y-6.0
X7.7Y-6.75
X8.05Y-2.25
X8.05Y-3.0
X8.05Y-3.75
X8.05Y-4.5
X8.05Y-5.25
X8.05Y-6.0
X8.05Y-6.75
X8.45Y-2.25
X8.45Y-3.0
X8.45Y-3.75
X8.45Y-4.5
X8.45Y-5.25
X8.45Y-6.0
X8.45Y-6.75
X8.8Y-2.25
X8.8Y-3.0
X8.8Y-3.75
X8.8Y-4.5
X8.8Y-5.25
X8.8Y-6.0
X8.8Y-6.75
X9.2Y-2.25
X9.2Y-3.0
X9.2Y-3.75
X9.2Y-4.5
X9.2Y-5.25
X9.2Y-6.0
X9.2Y-6.75
X9.55Y-2.25
X9.55Y-3.0
X9.55Y-3.75
X9.55Y-4.5
X9.55Y-5.25
X9.55Y-6.0
X9.55Y-6.75
X9.95Y-2.25
X9.95Y-3.0
X9.95Y-3.75
X9.95Y-4.5
X9.95Y-5.25
X9.95Y-6.0
X9.95Y-6.75
X10.3Y-2.25
X10.3Y-3.0
X10.3Y-3.75
X10.3Y-4.5
X10.3Y-5.25
X10.3Y-6.0
X10.3Y-6.75
X10.7Y-2.25
X10.7Y-3.0
X10.7Y-3.75
X10.7Y-4.5
X10.7Y-5.25
X10.7Y-6.0
X10.7Y-6.75
X11.05Y-2.25
X11.05Y-3.0
X11.05Y-3.75
X11.05Y-4.5
X11.05Y-5.25
X11.05Y-6.0
X11.05Y-6.75
X11.45Y-2.25
X11.45Y-3.0
X11.45Y-3.75
X11.45Y-4.5
X11.45Y-5.25
X11.45Y-6.0
X11.45Y-6.75
X11.8Y-2.25
X11.8Y-3.0
X11.8Y-3.75
X11.8Y-4.5
X11.8Y-5.25
X11.8Y-6.0
X11.8Y-6.75
X12.2Y-2.25
X12.2Y-3.0
X12.2Y-3.75
X12.2Y-4.5
X12.2Y-5.25
X12.2Y-6.0
X12.2Y-6.75
X12.55Y-2.25
X12.55Y-3.0
X12.55Y-3.75
X12.55Y-4.5
X12.55Y-5.25
X12.55Y-6.0
X12.55Y-6.75
X12.95Y-2.25
X12.95Y-3.0
X12.95Y-3.75
X12.95Y-4.5
X12.95Y-5.25
X12.95Y-6.0
X12.95Y-6.75
X13.3Y-2.25
X13.3Y-3.0
X13.3Y-3.75
X13.3Y-4.5
X13.3Y-5.25
X13.3Y-6.0
X13.3Y-6.75
X13.7Y-2.25
X13.7Y-3.0
X13.7Y-3.75
X13.7Y-4.5
X13.7Y-5.25
X13.7Y-6.0
X13.7Y-6.75
X14.05Y-2.25
X14.05Y-3.0
X14.05Y-3.75
X14.05Y-4.5
X14.05Y-5.25
X14.05Y-6.0
X14.05Y-6.75
X14.45Y-2.25
X14.45Y-3.0
X14.45Y-3.75
X14.45Y-4.5
X14.45Y-5.25
X14.45Y-6.0
X14.45Y-6.75
X14.8Y-2.25
X14.8Y-3.0
X14.8Y-3.75
X14.8Y-4.5
X14.8Y-5.25
X14.8Y-6.0
X14.8Y-6.75
X15.2Y-2.25
X15.2Y-3.0
X15.2Y-3.75
X15.2Y-4.5
X15.2Y-5.25
X15.2Y-6.0
X15.2Y-6.75
X15.55Y-2.25
X15.55Y-3.0
X15.55Y-3.75
X15.55Y-4.5
X15.55Y-5.25
X15.55Y-6.0
X15.55Y-6.75
X15.95Y-2.25
X15.95Y-3.0
X15.95Y-3.75
X15.95Y-4.5
X15.95Y-5.25
X15.95Y-6.0
X15.95Y-6.75
X16.3Y-2.25
X16.3Y-3.0
X16.3Y-3.75
X16.3Y-4.5
X16.3Y-5.25
X16.3Y-6.0
X16.3Y-6.75
X16.7Y-2.25
X16.7Y-3.0
X16.7Y-3.75
X16.7Y-4.5
X16.7Y-5.25
X16.7Y-6.0
X16.7Y-6.75
X17.05Y-2.25
X17.05Y-3.0
X17.05Y-3.75
X17.05Y-4.5
X17.05Y-5.25
X17.05Y-6.0
X17.05Y-6.75
X17.45Y-2.25
X17.45Y-3.0
X17.45Y-3.75
X17.45Y-4.5
X17.45Y-5.25
X17.45Y-6.0
X17.45Y-6.75
X17.8Y-2.25
X17.8Y-3.0
X17.8Y-3.75
X17.8Y-4.5
X17.8Y-5.25
X17.8Y-6.0
X17.8Y-6.75
X18.2Y-2.25
X18.2Y-3.0
X18.2Y-3.75
X18.2Y-4.5
X18.2Y-5.25
X18.2Y-6.0
X18.2Y-6.75
X18.55Y-2.25
X18.55Y-3.0
X18.55Y-3.75
X18.55Y-4.5
X18.55Y-5.25
X18.55Y-6.0
X18.55Y-6.75
X18.95Y-2.25
X18.95Y-3.0
X18.95Y-3.75
X18.95Y-4.5
X18.95Y-5.25
X18.95Y-6.0
X18.95Y-6.75
X19.3Y-2.25
X19.3Y-3.0
X19.3Y-3.75
X19.3Y-4.5
X19.3Y-5.25
X19.3Y-6.0
X19.3Y-6.75
X19.7Y-2.25
X19.7Y-3.0
X19.7Y-3.75
X19.7Y-4.5
X19.7Y-5.25
X19.7Y-6.0
X19.7Y-6.75
X20.05Y-2.25
X20.05Y-3.0
X20.05Y-3.75
X20.05Y-4.5
X20.05Y-5.25
X20.05Y-6.0
X20.05Y-6.75
X20.45Y-2.25
X20.45Y-3.0
X20.45Y-3.75
X20.45Y-4.5
X20.45Y-5.25
X20.45Y-6.0
X20.45Y-6.75
T3
X1.35Y-2.15
X1.35Y-2.9
X1.35Y-3.65
X1.35Y-4.4
X1.35Y-5.15
X1.35Y-5.9
X1.35Y-6.65
X1.6Y-2.05
X1.6Y-2.8
X1.6Y-3.55
X1.6Y-4.3
X1.6Y-5.05
X1.6Y-5.8
X1.6Y-6.55
X2.1Y-2.15
X2.1Y-2.9
X2.1Y-3.65
X2.1Y-4.4
X2.1Y-5.15
X2.1Y-5.9
X2.1Y-6.65
X2.35Y-2.05
X2.35Y-2.8
X2.35Y-3.55
X2.35Y-4.3
X2.35Y-5.05
X2.35Y-5.8
X2.35Y-6.55
X2.85Y-2.15
X2.85Y-2.9
X2.85Y-3.65
X2.85Y-4.4
X2.85Y-5.15
X2.85Y-5.9
X2.85Y-6.65
X3.1Y-2.05
X3.1Y-2.8
X3.1Y-3.55
X3.1Y-4.3
X3.1Y-5.05
X3.1Y-5.8
X3.1Y-6.55
X3.6Y-2.15
X3.6Y-2.9
X3.6Y-3.65
X3.6Y-4.4
X3.6Y-5.15
X3.6Y-5.9
X3.6Y-6.65
X3.85Y-2.05
X3.85Y-2.8
X3.85Y-3.55
X3.85Y-4.3
X3.85Y-5.05
X3.85Y-5.8
X3.85Y-6.55
X4.35Y-2.15
X4.35Y-2.9
X4.35Y-3.65
X4.35Y-4.4
X4.35Y-5.15
X4.35Y-5.9
X4.35Y-6.65
X4.6Y-2.05
X4.6Y-2.8
X4.6Y-3.55
X4.6Y-4.3
X4.6Y-5.05
X4.6Y-5.8
X4.6Y-6.55
X5.1Y-2.15
X5.1Y-2.9
X5.1Y-3.65
X5.1Y-4.4
X5.1Y-5.15
X5.1Y-5.9
X5.1Y-6.65
X5.35Y-2.05
X5.35Y-2.8
X5.35Y-3.55
X5.35Y-4.3
X5.35Y-5.05
X5.35Y-5.8
X5.35Y-6.55
X5.85Y-2.15
X5.85Y-2.9
X5.85Y-3.65
X5.85Y-4.4
X5.85Y-5.15
X5.85Y-5.9
X5.85Y-6.65
X6.1Y-2.05
X6.1Y-2.8
X6.1Y-3.55
X6.1Y-4.3
X6.1Y-5.05
X6.1Y-5.8
X6.1Y-6.55
X6.6Y-2.15
X6.6Y-2.9
X6.6Y-3.65
X6.6Y-4.4
X6.6Y-5.15
X6.6Y-5.9
X6.6Y-6.65
X6.85Y-2.05
X6.85Y-2.8
X6.85Y-3.55
X6.85Y-4.3
X6.85Y-5.05
X6.85Y-5.8
X6.85Y-6.55
X7.35Y-2.15
X7.35Y-2.9
X7.35Y-3.65
X7.35Y-4.4
X7.35Y-5.15
X7.35Y-5.9
X7.35Y-6.65
X7.6Y-2.05
X7.6Y-2.8
X7.6Y-3.55
X7.6Y-4.3
X7.6Y-5.05
X7.6Y-5.8
X7.6Y-6.55
X8.1Y-2.15
X8.1Y-2.9
X8.1Y-3.65
X8.1Y-4.4
X8.1Y-5.15
X8.1Y-5.9
X8.1Y-6.65
X8.35Y-2.05
X8.35Y-2.8
X8.35Y-3.55
X8.35Y-4.3
X8.35Y-5.05
X8.35Y-5.8
X8.35Y-6.55
X8.85Y-2.15
X8.85Y-2.9
X8.85Y-3.65
X8.85Y-4.4
X8.85Y-5.15
X8.85Y-5.9
X8.85Y-6.65
X9.1Y-2.05
X9.1Y-2.8
X9.1Y-3.55
X9.1Y-4.3
X9.1Y-5.05
X9.1Y-5.8
X9.1Y-6.55
X9.6Y-2.15
X9.6Y-2.9
X9.6Y-3.65
X9.6Y-4.4
X9.6Y-5.15
X9.6Y-5.9
X9.6Y-6.65
X9.85Y-2.05
X9.85Y-2.8
X9.85Y-3.55
X9.85Y-4.3
X9.85Y-5.05
X9.85Y-5.8
X9.85Y-6.55
X10.35Y-2.15
X10.35Y-2.9
X10.35Y-3.65
X10.35Y-4.4
X10.35Y-5.15
X10.35Y-5.9
X10.35Y-6.65
X10.6Y-2.05
X10.6Y-2.8
X10.6Y-3.55
X10.6Y-4.3
X10.6Y-5.05
X10.6Y-5.8
X10.6Y-6.55
X11.1Y-2.15
X11.1Y-2.9
X11.1Y-3.65
X11.1Y-4.4
X11.1Y-5.15
X11.1Y-5.9
X11.1Y-6.65
X11.35Y-2.05
X11.35Y-2.8
X11.35Y-3.55
X11.35Y-4.3
X11.35Y-5.05
X11.35Y-5.8
X11.35Y-6.55
X11.85Y-2.15
X11.85Y-2.9
X11.85Y-3.65
X11.85Y-4.4
X11.85Y-5.15
X11.85Y-5.9
X11.85Y-6.65
X12.1Y-2.05
X12.1Y-2.8
X12.1Y-3.55
X12.1Y-4.3
X12.1Y-5.05
X12.1Y-5.8
X12.1Y-6.55
X12.6Y-2.15
X12.6Y-2.9
X12.6Y-3.65
X12.6Y-4.4
X12.6Y-5.15
X12.6Y-5.9
X12.6Y-6.65
X12.85Y-2.05
X12.85Y-2.8
X12.85Y-3.55
X12.85Y-4.3
X12.85Y-5.05
X12.85Y-5.8
X12.85Y-6.55
X13.35Y-2.15
X13.35Y-2.9
X13.35Y-3.65
X13.35Y-4.4
X13.35Y-5.15
X13.35Y-5.9
X13.35Y-6.65
X13.6Y-2.05
X13.6Y-2.8
X13.6Y-3.55
X13.6Y-4.3
X13.6Y-5.05
X13.6Y-5.8
X13.6Y-6.55
X14.1Y-2.15
X14.1Y-2.9
X14.1Y-3.65
X14.1Y-4.4
X14.1Y-5.15
X14.1Y-5.9
X14.1Y-6.65
X14.35Y-2.05
X14.35Y-2.8
X14.35Y-3.55
X14.35Y-4.3
X14.35Y-5.05
X14.35Y-5.8
X14.35Y-6.55
X14.85Y-2.15
X14.85Y-2.9
X14.85Y-3.65
X14.85Y-4.4
X14.85Y-5.15
X14.85Y-5.9
X14.85Y-6.65
X15.1Y-2.05
X15.1Y-2.8
X15.1Y-3.55
X15.1Y-4.3
X15.1Y-5.05
X15.1Y-5.8
X15.1Y-6.55
X15.6Y-2.15
X15.6Y-2.9
X15.6Y-3.65
X15.6Y-4.4
X15.6Y-5.15
X15.6Y-5.9
X15.6Y-6.65
X15.85Y-2.05
X15.85Y-2.8
X15.85Y-3.55
X15.85Y-4.3
X15.85Y-5.05
X15.85Y-5.8
X15.85Y-6.55
X16.35Y-2.15
X16.35Y-2.9
X16.35Y-3.65
X16.35Y-4.4
X16.35Y-5.15
X16.35Y-5.9
X16.35Y-6.65
X16.6Y-2.05
X16.6Y-2.8
X16.6Y-3.55
X16.6Y-4.3
X16.6Y-5.05
X16.6Y-5.8
X16.6Y-6.55
X17.1Y-2.15
X17.1Y-2.9
X17.1Y-3.65
X17.1Y-4.4
X17.1Y-5.15
X17.1Y-5.9
X17.1Y-6.65
X17.35Y-2.05
X17.35Y-2.8
X17.35Y-3.55
X17.35Y-4.3
X17.35Y-5.05
X17.35Y-5.8
X17.35Y-6.55
X17.85Y-2.15
X17.85Y-2.9
X17.85Y-3.65
X17.85Y-4.4
X17.85Y-5.15
X17.85Y-5.9
X17.85Y-6.65
X18.1Y-2.05
X18.1Y-2.8
X18.1Y-3.55
X18.1Y-4.3
X18.1Y-5.05
X18.1Y-5.8
X18.1Y-6.55
X18.6Y-2.15
X18.6Y-2.9
X18.6Y-3.65
X18.6Y-4.4
X18.6Y-5.15
X18.6Y-5.9
X18.6Y-6.65
X18.85Y-2.05
X18.85Y-2.8
X18.85Y-3.55
X18.85Y-4.3
X18.85Y-5.05
X18.85Y-5.8
X18.85Y-6.55
X19.35Y-2.15
X19.35Y-2.9
X19.35Y-3.65
X19.35Y-4.4
X19.35Y-5.15
X19.35Y-5.9
X19.35Y-6.65
X19.6Y-2.05
X19.6Y-2.8
X19.6Y-3.55
X19.6Y-4.3
X19.6Y-5.05
X19.6Y-5.8
X19.6Y-6.55
X20.1Y-2.15
X20.1Y-2.9
X20.1Y-3.65
X20.1Y-4.4
X20.1Y-5.15
X20.1Y-5.9
X20.1Y-6.65
X20.35Y-2.05
X20.35Y-2.8
X20.35Y-3.55
X20.35Y-4.3
X20.35Y-5.05
X20.35Y-5.8
X20.35Y-6.55
T4
X1.5Y-2.25
X1.5Y-3.0
X1.5Y-3.75
X1.5Y-4.5
X1.5Y-5.25
X1.5Y-6.0
X1.5Y-6.75
X2.25Y-2.25
X2.25Y-3.0
X2.25Y-3.75
X2.25Y-4.5
X2.25Y-5.25
X2.25Y-6.0
X2.25Y-6.75
X3.0Y-2.25
X3.0Y-3.0
X3.0Y-3.75
X3.0Y-4.5
X3.0Y-5.25
X3.0Y-6.0
X3.0Y-6.75
X3.75Y-2.25
X3.75Y-3.0
X3.75Y-3.75
X3.75Y-4.5
X3.75Y-5.25
X3.75Y-6.0
X3.75Y-6.75
X4.5Y-2.25
X4.5Y-3.0
X4.5Y-3.75
X4.5Y-4.5
X4.5Y-5.25
X4.5Y-6.0
X4.5Y-6.75
X5.25Y-2.25
X5.25Y-3.0
X5.25Y-3.75
X5.25Y-4.5
X5.25Y-5.25
X5.25Y-6.0
X5.25Y-6.75
X6.0Y-2.25
X6.0Y-3.0
X6.0Y-3.75
X6.0Y-4.5
X6.0Y-5.25
X6.0Y-6.0
X6.0Y-6.75
X6.75Y-2.25
X6.75Y-3.0
X6.75Y-3.75
X6.75Y-4.5
X6.75Y-5.25
X6.75Y-6.0
X6.75Y-6.75
X7.5Y-2.25
X7.5Y-3.0
X7.5Y-3.75
X7.5Y-4.5
X7.5Y-5.25
X7.5Y-6.0
X7.5Y-6.75
X8.25Y-2.25
X8.25Y-3.0
X8.25Y-3.75
X8.25Y-4.5
X8.25Y-5.25
X8.25Y-6.0
X8.25Y-6.75
X9.0Y-2.25
X9.0Y-3.0
X9.0Y-3.75
X9.0Y-4.5
X9.0Y-5.25
X9.0Y-6.0
X9.0Y-6.75
X9.75Y-2.25
X9.75Y-3.0
X9.75Y-3.75
X9.75Y-4.5
X9.75Y-5.25
X9.75Y-6.0
X9.75Y-6.75
X10.5Y-2.25
X10.5Y-3.0
X10.5Y-3.75
X10.5Y-4.5
X10.5Y-5.25
X10.5Y-6.0
X10.5Y-6.75
X11.25Y-2.25
X11.25Y-3.0
X11.25Y-3.75
X11.25Y-4.5
X11.25Y-5.25
X11.25Y-6.0
X11.25Y-6.75
X12.0Y-2.25
X12.0Y-3.0
X12.0Y-3.75
X12.0Y-4.5
X12.0Y-5.25
X12.0Y-6.0
X12.0Y-6.75
X12.75Y-2.25
X12.75Y-3.0
X12.75Y-3.75
X12.75Y-4.5
X12.75Y-5.25
X12.75Y-6.0
X12.75Y-6.75
X13.5Y-2.25
X13.5Y-3.0
X13.5Y-3.75
X13.5Y-4.5
X13.5Y-5.25
X13.5Y-6.0
X13.5Y-6.75
X14.25Y-2.25
X14.25Y-3.0
X14.25Y-3.75
X14.25Y-4.5
X14.25Y-5.25
X14.25Y-6.0
X14.25Y-6.75
X15.0Y-2.25
X15.0Y-3.0
X15.0Y-3.75
X15.0Y-4.5
X15.0Y-5.25
X15.0Y-6.0
X15.0Y-6.75
X15.75Y-2.25
X15.75Y-3.0
X15.75Y-3.75
X15.75Y-4.5
X15.75Y-5.25
X15.75Y-6.0
X15.75Y-6.75
X16.5Y-2.25
X16.5Y-3.0
X16.5Y-3.75
X16.5Y-4.5
X16.5Y-5.25
X16.5Y-6.0
X16.5Y-6.75
X17.25Y-2.25
X17.25Y-3.0
X17.25Y-3.75
X17.25Y-4.5
X17.25Y-5.25
X17.25Y-6.0
X17.25Y-6.75
X18.0Y-2.25
X18.0Y-3.0
X18.0Y-3.75
X18.0Y-4.5
X18.0Y-5.25
X18.0Y-6.0
X18.0Y-6.75
X18.75Y-2.25
X18.75Y-3.0
X18.75Y-3.75
X18.75Y-4.5
X18.75Y-5.25
X18.75Y-6.0
X18.75Y-6.75
X19.5Y-2.25
X19.5Y-3.0
X19.5Y-3.75
X19.5Y-4.5
X19.5Y-5.25
X19.5Y-6.0
X19.5Y-6.75
X20.25Y-2.25
X20.25Y-3.0
X20.25Y-3.75
X20.25Y-4.5
X20.25Y-5.25
X20.25Y-6.0
X20.25Y-6.75
T0
M30
