G04 #@! TF.GenerationSoftware,KiCad,Pcbnew,(6.0.0-0)*
G04 #@! TF.CreationDate,2021-12-27T00:14:13+03:00*
G04 #@! TF.ProjectId,fu_keyboard,66755f6b-6579-4626-9f61-72642e6b6963,rev?*
G04 #@! TF.SameCoordinates,Original*
G04 #@! TF.FileFunction,Paste,Bot*
G04 #@! TF.FilePolarity,Positive*
%FSLAX46Y46*%
G04 Gerber Fmt 4.6, Leading zero omitted, Abs format (unit mm)*
G04 Created by KiCad (PCBNEW (6.0.0-0)) date 2021-12-27 00:14:13*
%MOMM*%
%LPD*%
G01*
G04 APERTURE LIST*
G04 Aperture macros list*
%AMRoundRect*
0 Rectangle with rounded corners*
0 $1 Rounding radius*
0 $2 $3 $4 $5 $6 $7 $8 $9 X,Y pos of 4 corners*
0 Add a 4 corners polygon primitive as box body*
4,1,4,$2,$3,$4,$5,$6,$7,$8,$9,$2,$3,0*
0 Add four circle primitives for the rounded corners*
1,1,$1+$1,$2,$3*
1,1,$1+$1,$4,$5*
1,1,$1+$1,$6,$7*
1,1,$1+$1,$8,$9*
0 Add four rect primitives between the rounded corners*
20,1,$1+$1,$2,$3,$4,$5,0*
20,1,$1+$1,$4,$5,$6,$7,0*
20,1,$1+$1,$6,$7,$8,$9,0*
20,1,$1+$1,$8,$9,$2,$3,0*%
G04 Aperture macros list end*
%ADD10RoundRect,0.082000X0.718000X-0.328000X0.718000X0.328000X-0.718000X0.328000X-0.718000X-0.328000X0*%
%ADD11RoundRect,0.082000X-0.718000X0.328000X-0.718000X-0.328000X0.718000X-0.328000X0.718000X0.328000X0*%
%ADD12R,2.550000X2.500000*%
%ADD13R,1.000000X1.700000*%
%ADD14RoundRect,0.243750X0.456250X-0.243750X0.456250X0.243750X-0.456250X0.243750X-0.456250X-0.243750X0*%
%ADD15RoundRect,0.250000X-0.925000X0.412500X-0.925000X-0.412500X0.925000X-0.412500X0.925000X0.412500X0*%
%ADD16RoundRect,0.150000X0.150000X0.625000X-0.150000X0.625000X-0.150000X-0.625000X0.150000X-0.625000X0*%
%ADD17RoundRect,0.250000X0.350000X0.650000X-0.350000X0.650000X-0.350000X-0.650000X0.350000X-0.650000X0*%
G04 APERTURE END LIST*
D10*
X231200000Y-158230000D03*
X231200000Y-156730000D03*
X226000000Y-156730000D03*
X226000000Y-158230000D03*
X231200000Y-82030000D03*
X231200000Y-80530000D03*
X226000000Y-80530000D03*
X226000000Y-82030000D03*
D11*
X149800000Y-175779999D03*
X149800000Y-177279999D03*
X155000000Y-177279999D03*
X155000000Y-175779999D03*
X473650000Y-175779999D03*
X473650000Y-177279999D03*
X478850000Y-177279999D03*
X478850000Y-175779999D03*
D10*
X174050000Y-120130000D03*
X174050000Y-118630000D03*
X168850000Y-118630000D03*
X168850000Y-120130000D03*
X497900000Y-158230000D03*
X497900000Y-156730000D03*
X492700000Y-156730000D03*
X492700000Y-158230000D03*
X364550000Y-158230000D03*
X364550000Y-156730000D03*
X359350000Y-156730000D03*
X359350000Y-158230000D03*
X288350000Y-120130000D03*
X288350000Y-118630000D03*
X283150000Y-118630000D03*
X283150000Y-120130000D03*
D11*
X54550000Y-99579999D03*
X54550000Y-101079999D03*
X59750000Y-101079999D03*
X59750000Y-99579999D03*
X73600000Y-99579999D03*
X73600000Y-101079999D03*
X78800000Y-101079999D03*
X78800000Y-99579999D03*
X264100000Y-99579999D03*
X264100000Y-101079999D03*
X269300000Y-101079999D03*
X269300000Y-99579999D03*
X321250000Y-175779999D03*
X321250000Y-177279999D03*
X326450000Y-177279999D03*
X326450000Y-175779999D03*
X283150000Y-99579999D03*
X283150000Y-101079999D03*
X288350000Y-101079999D03*
X288350000Y-99579999D03*
X454600000Y-137679999D03*
X454600000Y-139179999D03*
X459800000Y-139179999D03*
X459800000Y-137679999D03*
X340300000Y-175779999D03*
X340300000Y-177279999D03*
X345500000Y-177279999D03*
X345500000Y-175779999D03*
X378400000Y-137679999D03*
X378400000Y-139179999D03*
X383600000Y-139179999D03*
X383600000Y-137679999D03*
X264100000Y-61479999D03*
X264100000Y-62979999D03*
X269300000Y-62979999D03*
X269300000Y-61479999D03*
D10*
X326450000Y-158230000D03*
X326450000Y-156730000D03*
X321250000Y-156730000D03*
X321250000Y-158230000D03*
X135950000Y-120130000D03*
X135950000Y-118630000D03*
X130750000Y-118630000D03*
X130750000Y-120130000D03*
D11*
X35500000Y-118629999D03*
X35500000Y-120129999D03*
X40700000Y-120129999D03*
X40700000Y-118629999D03*
X149800000Y-137679999D03*
X149800000Y-139179999D03*
X155000000Y-139179999D03*
X155000000Y-137679999D03*
D10*
X421700000Y-158217999D03*
X421700000Y-156717999D03*
X416500000Y-156717999D03*
X416500000Y-158217999D03*
X174050000Y-82030000D03*
X174050000Y-80530000D03*
X168850000Y-80530000D03*
X168850000Y-82030000D03*
D11*
X435550000Y-137679999D03*
X435550000Y-139179999D03*
X440750000Y-139179999D03*
X440750000Y-137679999D03*
X397450000Y-175779999D03*
X397450000Y-177279999D03*
X402650000Y-177279999D03*
X402650000Y-175779999D03*
D10*
X459800000Y-120130000D03*
X459800000Y-118630000D03*
X454600000Y-118630000D03*
X454600000Y-120130000D03*
D11*
X473650000Y-137679999D03*
X473650000Y-139179999D03*
X478850000Y-139179999D03*
X478850000Y-137679999D03*
D10*
X364550000Y-120130000D03*
X364550000Y-118630000D03*
X359350000Y-118630000D03*
X359350000Y-120130000D03*
D11*
X492700000Y-61479999D03*
X492700000Y-62979999D03*
X497900000Y-62979999D03*
X497900000Y-61479999D03*
D10*
X269300000Y-82030000D03*
X269300000Y-80530000D03*
X264100000Y-80530000D03*
X264100000Y-82030000D03*
X212150000Y-82030000D03*
X212150000Y-80530000D03*
X206950000Y-80530000D03*
X206950000Y-82030000D03*
X288350000Y-158230000D03*
X288350000Y-156730000D03*
X283150000Y-156730000D03*
X283150000Y-158230000D03*
X212150000Y-120130000D03*
X212150000Y-118630000D03*
X206950000Y-118630000D03*
X206950000Y-120130000D03*
X516950000Y-120130000D03*
X516950000Y-118630000D03*
X511750000Y-118630000D03*
X511750000Y-120130000D03*
D11*
X435550000Y-175779999D03*
X435550000Y-177279999D03*
X440750000Y-177279999D03*
X440750000Y-175779999D03*
D10*
X307400000Y-158230000D03*
X307400000Y-156730000D03*
X302200000Y-156730000D03*
X302200000Y-158230000D03*
X497900000Y-82030000D03*
X497900000Y-80530000D03*
X492700000Y-80530000D03*
X492700000Y-82030000D03*
D11*
X187900000Y-61479999D03*
X187900000Y-62979999D03*
X193100000Y-62979999D03*
X193100000Y-61479999D03*
D10*
X383600000Y-120130000D03*
X383600000Y-118630000D03*
X378400000Y-118630000D03*
X378400000Y-120130000D03*
X459800000Y-82030000D03*
X459800000Y-80530000D03*
X454600000Y-80530000D03*
X454600000Y-82030000D03*
X345500000Y-158230000D03*
X345500000Y-156730000D03*
X340300000Y-156730000D03*
X340300000Y-158230000D03*
D11*
X435550000Y-61479999D03*
X435550000Y-62979999D03*
X440750000Y-62979999D03*
X440750000Y-61479999D03*
X359350000Y-175779999D03*
X359350000Y-177279999D03*
X364550000Y-177279999D03*
X364550000Y-175779999D03*
X397450000Y-61479999D03*
X397450000Y-62979999D03*
X402650000Y-62979999D03*
X402650000Y-61479999D03*
X511750000Y-61479999D03*
X511750000Y-62979999D03*
X516950000Y-62979999D03*
X516950000Y-61479999D03*
X226000000Y-61479999D03*
X226000000Y-62979999D03*
X231200000Y-62979999D03*
X231200000Y-61479999D03*
X206950000Y-99579999D03*
X206950000Y-101079999D03*
X212150000Y-101079999D03*
X212150000Y-99579999D03*
D10*
X478850000Y-158230000D03*
X478850000Y-156730000D03*
X473650000Y-156730000D03*
X473650000Y-158230000D03*
D11*
X473650000Y-99579999D03*
X473650000Y-101079999D03*
X478850000Y-101079999D03*
X478850000Y-99579999D03*
X226000000Y-137679999D03*
X226000000Y-139179999D03*
X231200000Y-139179999D03*
X231200000Y-137679999D03*
X92650000Y-99579999D03*
X92650000Y-101079999D03*
X97850000Y-101079999D03*
X97850000Y-99579999D03*
D10*
X269300000Y-158230000D03*
X269300000Y-156730000D03*
X264100000Y-156730000D03*
X264100000Y-158230000D03*
D11*
X92650000Y-175779999D03*
X92650000Y-177279999D03*
X97850000Y-177279999D03*
X97850000Y-175779999D03*
X111700000Y-99579999D03*
X111700000Y-101079999D03*
X116900000Y-101079999D03*
X116900000Y-99579999D03*
D10*
X402650000Y-158230000D03*
X402650000Y-156730000D03*
X397450000Y-156730000D03*
X397450000Y-158230000D03*
X193100000Y-158230000D03*
X193100000Y-156730000D03*
X187900000Y-156730000D03*
X187900000Y-158230000D03*
D11*
X187900000Y-99579999D03*
X187900000Y-101079999D03*
X193100000Y-101079999D03*
X193100000Y-99579999D03*
D10*
X155000000Y-158230000D03*
X155000000Y-156730000D03*
X149800000Y-156730000D03*
X149800000Y-158230000D03*
X116900000Y-120130000D03*
X116900000Y-118630000D03*
X111700000Y-118630000D03*
X111700000Y-120130000D03*
D11*
X511750000Y-175779999D03*
X511750000Y-177279999D03*
X516950000Y-177279999D03*
X516950000Y-175779999D03*
D10*
X212150000Y-158230000D03*
X212150000Y-156730000D03*
X206950000Y-156730000D03*
X206950000Y-158230000D03*
X288350000Y-82030000D03*
X288350000Y-80530000D03*
X283150000Y-80530000D03*
X283150000Y-82030000D03*
D11*
X492700000Y-137679999D03*
X492700000Y-139179999D03*
X497900000Y-139179999D03*
X497900000Y-137679999D03*
X416500000Y-61479999D03*
X416500000Y-62979999D03*
X421700000Y-62979999D03*
X421700000Y-61479999D03*
X149800000Y-61479999D03*
X149800000Y-62979999D03*
X155000000Y-62979999D03*
X155000000Y-61479999D03*
D10*
X459800000Y-158230000D03*
X459800000Y-156730000D03*
X454600000Y-156730000D03*
X454600000Y-158230000D03*
D11*
X168850000Y-137679999D03*
X168850000Y-139179999D03*
X174050000Y-139179999D03*
X174050000Y-137679999D03*
X245050000Y-175779999D03*
X245050000Y-177279999D03*
X250250000Y-177279999D03*
X250250000Y-175779999D03*
X321250000Y-137679999D03*
X321250000Y-139179999D03*
X326450000Y-139179999D03*
X326450000Y-137679999D03*
X168850000Y-99579999D03*
X168850000Y-101079999D03*
X174050000Y-101079999D03*
X174050000Y-99579999D03*
D10*
X402650000Y-82030000D03*
X402650000Y-80530000D03*
X397450000Y-80530000D03*
X397450000Y-82030000D03*
D11*
X359350000Y-61479999D03*
X359350000Y-62979999D03*
X364550000Y-62979999D03*
X364550000Y-61479999D03*
D10*
X97850000Y-120130000D03*
X97850000Y-118630000D03*
X92650000Y-118630000D03*
X92650000Y-120130000D03*
X307400000Y-120130000D03*
X307400000Y-118630000D03*
X302200000Y-118630000D03*
X302200000Y-120130000D03*
D11*
X245050000Y-61479999D03*
X245050000Y-62979999D03*
X250250000Y-62979999D03*
X250250000Y-61479999D03*
X111700000Y-61479999D03*
X111700000Y-62979999D03*
X116900000Y-62979999D03*
X116900000Y-61479999D03*
X73600000Y-61479999D03*
X73600000Y-62979999D03*
X78800000Y-62979999D03*
X78800000Y-61479999D03*
X35500000Y-175779999D03*
X35500000Y-177279999D03*
X40700000Y-177279999D03*
X40700000Y-175779999D03*
X416500000Y-175779999D03*
X416500000Y-177279999D03*
X421700000Y-177279999D03*
X421700000Y-175779999D03*
D10*
X250250000Y-120130000D03*
X250250000Y-118630000D03*
X245050000Y-118630000D03*
X245050000Y-120130000D03*
X135950000Y-158230000D03*
X135950000Y-156730000D03*
X130750000Y-156730000D03*
X130750000Y-158230000D03*
X345500000Y-82030000D03*
X345500000Y-80530000D03*
X340300000Y-80530000D03*
X340300000Y-82030000D03*
X516950000Y-139180000D03*
X516950000Y-137680000D03*
X511750000Y-137680000D03*
X511750000Y-139180000D03*
X516950000Y-101080000D03*
X516950000Y-99580000D03*
X511750000Y-99580000D03*
X511750000Y-101080000D03*
D11*
X187900000Y-175779999D03*
X187900000Y-177279999D03*
X193100000Y-177279999D03*
X193100000Y-175779999D03*
X35500000Y-61479999D03*
X35500000Y-62979999D03*
X40700000Y-62979999D03*
X40700000Y-61479999D03*
X54550000Y-137679999D03*
X54550000Y-139179999D03*
X59750000Y-139179999D03*
X59750000Y-137679999D03*
D10*
X421700000Y-120130000D03*
X421700000Y-118630000D03*
X416500000Y-118630000D03*
X416500000Y-120130000D03*
D11*
X168850000Y-175779999D03*
X168850000Y-177279999D03*
X174050000Y-177279999D03*
X174050000Y-175779999D03*
X264100000Y-137679999D03*
X264100000Y-139179999D03*
X269300000Y-139179999D03*
X269300000Y-137679999D03*
D10*
X516950000Y-158230000D03*
X516950000Y-156730000D03*
X511750000Y-156730000D03*
X511750000Y-158230000D03*
X116900000Y-82030000D03*
X116900000Y-80530000D03*
X111700000Y-80530000D03*
X111700000Y-82030000D03*
X231200000Y-120130000D03*
X231200000Y-118630000D03*
X226000000Y-118630000D03*
X226000000Y-120130000D03*
D11*
X168850000Y-61479999D03*
X168850000Y-62979999D03*
X174050000Y-62979999D03*
X174050000Y-61479999D03*
X149800000Y-99579999D03*
X149800000Y-101079999D03*
X155000000Y-101079999D03*
X155000000Y-99579999D03*
X473650000Y-61479999D03*
X473650000Y-62979999D03*
X478850000Y-62979999D03*
X478850000Y-61479999D03*
X397450000Y-137679999D03*
X397450000Y-139179999D03*
X402650000Y-139179999D03*
X402650000Y-137679999D03*
D10*
X478850000Y-120130000D03*
X478850000Y-118630000D03*
X473650000Y-118630000D03*
X473650000Y-120130000D03*
D11*
X111700000Y-175779999D03*
X111700000Y-177279999D03*
X116900000Y-177279999D03*
X116900000Y-175779999D03*
X206950000Y-61479999D03*
X206950000Y-62979999D03*
X212150000Y-62979999D03*
X212150000Y-61479999D03*
D10*
X402650000Y-120130000D03*
X402650000Y-118630000D03*
X397450000Y-118630000D03*
X397450000Y-120130000D03*
X193100000Y-82030000D03*
X193100000Y-80530000D03*
X187900000Y-80530000D03*
X187900000Y-82030000D03*
D11*
X397450000Y-99579999D03*
X397450000Y-101079999D03*
X402650000Y-101079999D03*
X402650000Y-99579999D03*
D10*
X59750000Y-158230000D03*
X59750000Y-156730000D03*
X54550000Y-156730000D03*
X54550000Y-158230000D03*
D11*
X226000000Y-99579999D03*
X226000000Y-101079999D03*
X231200000Y-101079999D03*
X231200000Y-99579999D03*
X35500000Y-137679999D03*
X35500000Y-139179999D03*
X40700000Y-139179999D03*
X40700000Y-137679999D03*
X283150000Y-61479999D03*
X283150000Y-62979999D03*
X288350000Y-62979999D03*
X288350000Y-61479999D03*
D10*
X250250000Y-158230000D03*
X250250000Y-156730000D03*
X245050000Y-156730000D03*
X245050000Y-158230000D03*
D11*
X416500000Y-99579999D03*
X416500000Y-101079999D03*
X421700000Y-101079999D03*
X421700000Y-99579999D03*
X492700000Y-175779999D03*
X492700000Y-177279999D03*
X497900000Y-177279999D03*
X497900000Y-175779999D03*
D10*
X250250000Y-82030000D03*
X250250000Y-80530000D03*
X245050000Y-80530000D03*
X245050000Y-82030000D03*
D11*
X35500000Y-156729999D03*
X35500000Y-158229999D03*
X40700000Y-158229999D03*
X40700000Y-156729999D03*
D10*
X78800000Y-158230000D03*
X78800000Y-156730000D03*
X73600000Y-156730000D03*
X73600000Y-158230000D03*
X383600000Y-82030000D03*
X383600000Y-80530000D03*
X378400000Y-80530000D03*
X378400000Y-82030000D03*
X345500000Y-120130000D03*
X345500000Y-118630000D03*
X340300000Y-118630000D03*
X340300000Y-120130000D03*
X155000000Y-120130000D03*
X155000000Y-118630000D03*
X149800000Y-118630000D03*
X149800000Y-120130000D03*
D11*
X378400000Y-61479999D03*
X378400000Y-62979999D03*
X383600000Y-62979999D03*
X383600000Y-61479999D03*
D10*
X383600000Y-158230000D03*
X383600000Y-156730000D03*
X378400000Y-156730000D03*
X378400000Y-158230000D03*
D11*
X73600000Y-137679999D03*
X73600000Y-139179999D03*
X78800000Y-139179999D03*
X78800000Y-137679999D03*
X264100000Y-175779999D03*
X264100000Y-177279999D03*
X269300000Y-177279999D03*
X269300000Y-175779999D03*
D10*
X440750000Y-158230000D03*
X440750000Y-156730000D03*
X435550000Y-156730000D03*
X435550000Y-158230000D03*
D11*
X283150000Y-175779999D03*
X283150000Y-177279999D03*
X288350000Y-177279999D03*
X288350000Y-175779999D03*
X283150000Y-137679999D03*
X283150000Y-139179999D03*
X288350000Y-139179999D03*
X288350000Y-137679999D03*
X302200000Y-99579999D03*
X302200000Y-101079999D03*
X307400000Y-101079999D03*
X307400000Y-99579999D03*
X54550000Y-175779999D03*
X54550000Y-177279999D03*
X59750000Y-177279999D03*
X59750000Y-175779999D03*
X130750000Y-99579999D03*
X130750000Y-101079999D03*
X135950000Y-101079999D03*
X135950000Y-99579999D03*
D10*
X497900000Y-120130000D03*
X497900000Y-118630000D03*
X492700000Y-118630000D03*
X492700000Y-120130000D03*
D11*
X206950000Y-175779999D03*
X206950000Y-177279999D03*
X212150000Y-177279999D03*
X212150000Y-175779999D03*
X340300000Y-137679999D03*
X340300000Y-139179999D03*
X345500000Y-139179999D03*
X345500000Y-137679999D03*
X245050000Y-99579999D03*
X245050000Y-101079999D03*
X250250000Y-101079999D03*
X250250000Y-99579999D03*
D10*
X269300000Y-120130000D03*
X269300000Y-118630000D03*
X264100000Y-118630000D03*
X264100000Y-120130000D03*
X155000000Y-82030000D03*
X155000000Y-80530000D03*
X149800000Y-80530000D03*
X149800000Y-82030000D03*
D11*
X359350000Y-137679999D03*
X359350000Y-139179999D03*
X364550000Y-139179999D03*
X364550000Y-137679999D03*
X492700000Y-99579999D03*
X492700000Y-101079999D03*
X497900000Y-101079999D03*
X497900000Y-99579999D03*
D10*
X97850000Y-158230000D03*
X97850000Y-156730000D03*
X92650000Y-156730000D03*
X92650000Y-158230000D03*
X364550000Y-82030000D03*
X364550000Y-80530000D03*
X359350000Y-80530000D03*
X359350000Y-82030000D03*
D11*
X340300000Y-99579999D03*
X340300000Y-101079999D03*
X345500000Y-101079999D03*
X345500000Y-99579999D03*
X92650000Y-61479999D03*
X92650000Y-62979999D03*
X97850000Y-62979999D03*
X97850000Y-61479999D03*
D10*
X478850000Y-82030000D03*
X478850000Y-80530000D03*
X473650000Y-80530000D03*
X473650000Y-82030000D03*
D11*
X454600000Y-175779999D03*
X454600000Y-177279999D03*
X459800000Y-177279999D03*
X459800000Y-175779999D03*
X454600000Y-61479999D03*
X454600000Y-62979999D03*
X459800000Y-62979999D03*
X459800000Y-61479999D03*
X35500000Y-99579999D03*
X35500000Y-101079999D03*
X40700000Y-101079999D03*
X40700000Y-99579999D03*
D10*
X40700000Y-82030000D03*
X40700000Y-80530000D03*
X35500000Y-80530000D03*
X35500000Y-82030000D03*
X59750000Y-120130000D03*
X59750000Y-118630000D03*
X54550000Y-118630000D03*
X54550000Y-120130000D03*
D11*
X454600000Y-99579999D03*
X454600000Y-101079999D03*
X459800000Y-101079999D03*
X459800000Y-99579999D03*
X416500000Y-137679999D03*
X416500000Y-139179999D03*
X421700000Y-139179999D03*
X421700000Y-137679999D03*
X435550000Y-99579999D03*
X435550000Y-101079999D03*
X440750000Y-101079999D03*
X440750000Y-99579999D03*
X73600000Y-175779999D03*
X73600000Y-177279999D03*
X78800000Y-177279999D03*
X78800000Y-175779999D03*
X302200000Y-175779999D03*
X302200000Y-177279999D03*
X307400000Y-177279999D03*
X307400000Y-175779999D03*
X321250000Y-61479999D03*
X321250000Y-62979999D03*
X326450000Y-62979999D03*
X326450000Y-61479999D03*
D10*
X135950000Y-82030000D03*
X135950000Y-80530000D03*
X130750000Y-80530000D03*
X130750000Y-82030000D03*
D11*
X359350000Y-99579999D03*
X359350000Y-101079999D03*
X364550000Y-101079999D03*
X364550000Y-99579999D03*
X130750000Y-175779999D03*
X130750000Y-177279999D03*
X135950000Y-177279999D03*
X135950000Y-175779999D03*
X130750000Y-137679999D03*
X130750000Y-139179999D03*
X135950000Y-139179999D03*
X135950000Y-137679999D03*
D10*
X326450000Y-82030000D03*
X326450000Y-80530000D03*
X321250000Y-80530000D03*
X321250000Y-82030000D03*
D11*
X378400000Y-99579999D03*
X378400000Y-101079999D03*
X383600000Y-101079999D03*
X383600000Y-99579999D03*
D10*
X193100000Y-120130000D03*
X193100000Y-118630000D03*
X187900000Y-118630000D03*
X187900000Y-120130000D03*
D11*
X54550000Y-61479999D03*
X54550000Y-62979999D03*
X59750000Y-62979999D03*
X59750000Y-61479999D03*
X130750000Y-61479999D03*
X130750000Y-62979999D03*
X135950000Y-62979999D03*
X135950000Y-61479999D03*
D10*
X326450000Y-120130000D03*
X326450000Y-118630000D03*
X321250000Y-118630000D03*
X321250000Y-120130000D03*
X440750000Y-120130000D03*
X440750000Y-118630000D03*
X435550000Y-118630000D03*
X435550000Y-120130000D03*
D11*
X378400000Y-175779999D03*
X378400000Y-177279999D03*
X383600000Y-177279999D03*
X383600000Y-175779999D03*
D10*
X307400000Y-82030000D03*
X307400000Y-80530000D03*
X302200000Y-80530000D03*
X302200000Y-82030000D03*
D11*
X245050000Y-137679999D03*
X245050000Y-139179999D03*
X250250000Y-139179999D03*
X250250000Y-137679999D03*
X302200000Y-137679999D03*
X302200000Y-139179999D03*
X307400000Y-139179999D03*
X307400000Y-137679999D03*
X92650000Y-137679999D03*
X92650000Y-139179999D03*
X97850000Y-139179999D03*
X97850000Y-137679999D03*
D10*
X78800000Y-120130000D03*
X78800000Y-118630000D03*
X73600000Y-118630000D03*
X73600000Y-120130000D03*
D11*
X226000000Y-175779999D03*
X226000000Y-177279999D03*
X231200000Y-177279999D03*
X231200000Y-175779999D03*
X340300000Y-61479999D03*
X340300000Y-62979999D03*
X345500000Y-62979999D03*
X345500000Y-61479999D03*
D10*
X78800000Y-82030000D03*
X78800000Y-80530000D03*
X73600000Y-80530000D03*
X73600000Y-82030000D03*
X97850000Y-82030000D03*
X97850000Y-80530000D03*
X92650000Y-80530000D03*
X92650000Y-82030000D03*
X59750000Y-82030000D03*
X59750000Y-80530000D03*
X54550000Y-80530000D03*
X54550000Y-82030000D03*
X174050000Y-158230000D03*
X174050000Y-156730000D03*
X168850000Y-156730000D03*
X168850000Y-158230000D03*
D11*
X321250000Y-99579999D03*
X321250000Y-101079999D03*
X326450000Y-101079999D03*
X326450000Y-99579999D03*
D10*
X440750000Y-82030000D03*
X440750000Y-80530000D03*
X435550000Y-80530000D03*
X435550000Y-82030000D03*
X116900000Y-158230000D03*
X116900000Y-156730000D03*
X111700000Y-156730000D03*
X111700000Y-158230000D03*
X516950000Y-82030000D03*
X516950000Y-80530000D03*
X511750000Y-80530000D03*
X511750000Y-82030000D03*
D11*
X187900000Y-137679999D03*
X187900000Y-139179999D03*
X193100000Y-139179999D03*
X193100000Y-137679999D03*
X206950000Y-137679999D03*
X206950000Y-139179999D03*
X212150000Y-139179999D03*
X212150000Y-137679999D03*
D10*
X421700000Y-82030000D03*
X421700000Y-80530000D03*
X416500000Y-80530000D03*
X416500000Y-82030000D03*
D11*
X302200000Y-61479999D03*
X302200000Y-62979999D03*
X307400000Y-62979999D03*
X307400000Y-61479999D03*
X111700000Y-137679999D03*
X111700000Y-139179999D03*
X116900000Y-139179999D03*
X116900000Y-137679999D03*
D12*
X30740000Y-54610000D03*
X44190000Y-52070000D03*
X49790000Y-54610000D03*
X63240000Y-52070000D03*
X68840000Y-54610000D03*
X82290000Y-52070000D03*
X87890000Y-54610000D03*
X101340000Y-52070000D03*
X106940000Y-54610000D03*
X120390000Y-52070000D03*
X125990000Y-54610000D03*
X139440000Y-52070000D03*
X145040000Y-54610000D03*
X158490000Y-52070000D03*
X164090000Y-54610000D03*
X177540000Y-52070000D03*
X183140000Y-54610000D03*
X196590000Y-52070000D03*
X202190000Y-54610000D03*
X215640000Y-52070000D03*
X221240000Y-54610000D03*
X234690000Y-52070000D03*
X240290000Y-54610000D03*
X253740000Y-52070000D03*
X259340000Y-54610000D03*
X272790000Y-52070000D03*
X278390000Y-54610000D03*
X291840000Y-52070000D03*
X310890000Y-52070000D03*
X297440000Y-54610000D03*
X329940000Y-52070000D03*
X316490000Y-54610000D03*
X335540000Y-54610000D03*
X348990000Y-52070000D03*
X354590000Y-54610000D03*
X368040000Y-52070000D03*
X373640000Y-54610000D03*
X387090000Y-52070000D03*
X392690000Y-54610000D03*
X406140000Y-52070000D03*
X411740000Y-54610000D03*
X425190000Y-52070000D03*
X430790000Y-54610000D03*
X444240000Y-52070000D03*
X449840000Y-54610000D03*
X463290000Y-52070000D03*
X468890000Y-54610000D03*
X482340000Y-52070000D03*
X487940000Y-54610000D03*
X501390000Y-52070000D03*
X506990000Y-54610000D03*
X520440000Y-52070000D03*
X30740000Y-73660000D03*
X44190000Y-71120000D03*
X49790000Y-73660000D03*
X63240000Y-71120000D03*
X68840000Y-73660000D03*
X82290000Y-71120000D03*
X87890000Y-73660000D03*
X101340000Y-71120000D03*
X106940000Y-73660000D03*
X120390000Y-71120000D03*
X125990000Y-73660000D03*
X139440000Y-71120000D03*
X145040000Y-73660000D03*
X158490000Y-71120000D03*
X164090000Y-73660000D03*
X177540000Y-71120000D03*
X183140000Y-73660000D03*
X196590000Y-71120000D03*
X202190000Y-73660000D03*
X215640000Y-71120000D03*
X221240000Y-73660000D03*
X234690000Y-71120000D03*
X240290000Y-73660000D03*
X253740000Y-71120000D03*
X259340000Y-73660000D03*
X272790000Y-71120000D03*
X278390000Y-73660000D03*
X291840000Y-71120000D03*
X297440000Y-73660000D03*
X310890000Y-71120000D03*
X316490000Y-73660000D03*
X329940000Y-71120000D03*
X335540000Y-73660000D03*
X348990000Y-71120000D03*
X354590000Y-73660000D03*
X368040000Y-71120000D03*
X373640000Y-73660000D03*
X387090000Y-71120000D03*
X392690000Y-73660000D03*
X406140000Y-71120000D03*
X411740000Y-73660000D03*
X425190000Y-71120000D03*
X430790000Y-73660000D03*
X444240000Y-71120000D03*
X449840000Y-73660000D03*
X463290000Y-71120000D03*
X468890000Y-73660000D03*
X482340000Y-71120000D03*
X487940000Y-73660000D03*
X501390000Y-71120000D03*
X506990000Y-73660000D03*
X520440000Y-71120000D03*
X30740000Y-92710000D03*
X44190000Y-90170000D03*
X49790000Y-92710000D03*
X63240000Y-90170000D03*
X68840000Y-92710000D03*
X82290000Y-90170000D03*
X87890000Y-92710000D03*
X101340000Y-90170000D03*
X106940000Y-92710000D03*
X120390000Y-90170000D03*
X125990000Y-92710000D03*
X139440000Y-90170000D03*
X145040000Y-92710000D03*
X158490000Y-90170000D03*
X164090000Y-92710000D03*
X177540000Y-90170000D03*
X183140000Y-92710000D03*
X196590000Y-90170000D03*
X202190000Y-92710000D03*
X215640000Y-90170000D03*
X221240000Y-92710000D03*
X234690000Y-90170000D03*
X240290000Y-92710000D03*
X253740000Y-90170000D03*
X259340000Y-92710000D03*
X272790000Y-90170000D03*
X278390000Y-92710000D03*
X291840000Y-90170000D03*
X297440000Y-92710000D03*
X310890000Y-90170000D03*
X316490000Y-92710000D03*
X329940000Y-90170000D03*
X335540000Y-92710000D03*
X348990000Y-90170000D03*
X354590000Y-92710000D03*
X368040000Y-90170000D03*
X373640000Y-92710000D03*
X387090000Y-90170000D03*
X392690000Y-92710000D03*
X406140000Y-90170000D03*
X411740000Y-92710000D03*
X425190000Y-90170000D03*
X430790000Y-92710000D03*
X444240000Y-90170000D03*
X449840000Y-92710000D03*
X463290000Y-90170000D03*
X468890000Y-92710000D03*
X482340000Y-90170000D03*
X487940000Y-92710000D03*
X501390000Y-90170000D03*
X506990000Y-92710000D03*
X520440000Y-90170000D03*
X30740000Y-111760000D03*
X44190000Y-109220000D03*
X49790000Y-111760000D03*
X63240000Y-109220000D03*
X68840000Y-111760000D03*
X82290000Y-109220000D03*
X87890000Y-111760000D03*
X101340000Y-109220000D03*
X106940000Y-111760000D03*
X120390000Y-109220000D03*
X125990000Y-111760000D03*
X139440000Y-109220000D03*
X145040000Y-111760000D03*
X158490000Y-109220000D03*
X164090000Y-111760000D03*
X177540000Y-109220000D03*
X183140000Y-111760000D03*
X196590000Y-109220000D03*
X202190000Y-111760000D03*
X215640000Y-109220000D03*
X221240000Y-111760000D03*
X234690000Y-109220000D03*
X240290000Y-111760000D03*
X253740000Y-109220000D03*
X259340000Y-111760000D03*
X272790000Y-109220000D03*
X278390000Y-111760000D03*
X291840000Y-109220000D03*
X297440000Y-111760000D03*
X310890000Y-109220000D03*
X316490000Y-111760000D03*
X329940000Y-109220000D03*
X335540000Y-111760000D03*
X348990000Y-109220000D03*
X354590000Y-111760000D03*
X368040000Y-109220000D03*
X373640000Y-111760000D03*
X387090000Y-109220000D03*
X392690000Y-111760000D03*
X406140000Y-109220000D03*
X411740000Y-111760000D03*
X425190000Y-109220000D03*
X430790000Y-111760000D03*
X444240000Y-109220000D03*
X449840000Y-111760000D03*
X463290000Y-109220000D03*
X468890000Y-111760000D03*
X482340000Y-109220000D03*
X487940000Y-111760000D03*
X501390000Y-109220000D03*
X506990000Y-111760000D03*
X520440000Y-109220000D03*
X30740000Y-130810000D03*
X44190000Y-128270000D03*
X49790000Y-130810000D03*
X63240000Y-128270000D03*
X68840000Y-130810000D03*
X82290000Y-128270000D03*
X87890000Y-130810000D03*
X101340000Y-128270000D03*
X106940000Y-130810000D03*
X120390000Y-128270000D03*
X125990000Y-130810000D03*
X139440000Y-128270000D03*
X145040000Y-130810000D03*
X158490000Y-128270000D03*
X164090000Y-130810000D03*
X177540000Y-128270000D03*
X183140000Y-130810000D03*
X196590000Y-128270000D03*
X202190000Y-130810000D03*
X215640000Y-128270000D03*
X221240000Y-130810000D03*
X234690000Y-128270000D03*
X240290000Y-130810000D03*
X253740000Y-128270000D03*
X259340000Y-130810000D03*
X272790000Y-128270000D03*
X278390000Y-130810000D03*
X291840000Y-128270000D03*
X297440000Y-130810000D03*
X310890000Y-128270000D03*
X316490000Y-130810000D03*
X329940000Y-128270000D03*
X335540000Y-130810000D03*
X348990000Y-128270000D03*
X354590000Y-130810000D03*
X368040000Y-128270000D03*
X373640000Y-130810000D03*
X387090000Y-128270000D03*
X392690000Y-130810000D03*
X406140000Y-128270000D03*
X411740000Y-130810000D03*
X425190000Y-128270000D03*
X430790000Y-130810000D03*
X444240000Y-128270000D03*
X449840000Y-130810000D03*
X463290000Y-128270000D03*
X468890000Y-130810000D03*
X482340000Y-128270000D03*
X487940000Y-130810000D03*
X501390000Y-128270000D03*
X506990000Y-130810000D03*
X520440000Y-128270000D03*
X30740000Y-149860000D03*
X44190000Y-147320000D03*
X49790000Y-149860000D03*
X63240000Y-147320000D03*
X68840000Y-149860000D03*
X82290000Y-147320000D03*
X87890000Y-149860000D03*
X101340000Y-147320000D03*
X106940000Y-149860000D03*
X120390000Y-147320000D03*
X125990000Y-149860000D03*
X139440000Y-147320000D03*
X145040000Y-149860000D03*
X158490000Y-147320000D03*
X164090000Y-149860000D03*
X177540000Y-147320000D03*
X183140000Y-149860000D03*
X196590000Y-147320000D03*
X202190000Y-149860000D03*
X215640000Y-147320000D03*
X221240000Y-149860000D03*
X234690000Y-147320000D03*
X240290000Y-149860000D03*
X253740000Y-147320000D03*
X259340000Y-149860000D03*
X272790000Y-147320000D03*
X278390000Y-149860000D03*
X291840000Y-147320000D03*
X297440000Y-149860000D03*
X310890000Y-147320000D03*
X316490000Y-149860000D03*
X329940000Y-147320000D03*
X335540000Y-149860000D03*
X348990000Y-147320000D03*
X354590000Y-149860000D03*
X368040000Y-147320000D03*
X373640000Y-149860000D03*
X387090000Y-147320000D03*
X392690000Y-149860000D03*
X406140000Y-147320000D03*
X411740000Y-149860000D03*
X425190000Y-147320000D03*
X430790000Y-149860000D03*
X444240000Y-147320000D03*
X449840000Y-149860000D03*
X463290000Y-147320000D03*
X468890000Y-149860000D03*
X482340000Y-147320000D03*
X487940000Y-149860000D03*
X501390000Y-147320000D03*
X506990000Y-149860000D03*
X520440000Y-147320000D03*
X30740000Y-168910000D03*
X44190000Y-166370000D03*
X49790000Y-168910000D03*
X63240000Y-166370000D03*
X68840000Y-168910000D03*
X82290000Y-166370000D03*
X87890000Y-168910000D03*
X101340000Y-166370000D03*
X106940000Y-168910000D03*
X120390000Y-166370000D03*
X125990000Y-168910000D03*
X139440000Y-166370000D03*
X145040000Y-168910000D03*
X158490000Y-166370000D03*
X164090000Y-168910000D03*
X177540000Y-166370000D03*
X183140000Y-168910000D03*
X196590000Y-166370000D03*
X202190000Y-168910000D03*
X215640000Y-166370000D03*
X221240000Y-168910000D03*
X234690000Y-166370000D03*
X240290000Y-168910000D03*
X253740000Y-166370000D03*
X259340000Y-168910000D03*
X272790000Y-166370000D03*
X278390000Y-168910000D03*
X291840000Y-166370000D03*
X297440000Y-168910000D03*
X310890000Y-166370000D03*
X316490000Y-168910000D03*
X329940000Y-166370000D03*
X335540000Y-168910000D03*
X348990000Y-166370000D03*
X354590000Y-168910000D03*
X368040000Y-166370000D03*
X373640000Y-168910000D03*
X387090000Y-166370000D03*
X392690000Y-168910000D03*
X406140000Y-166370000D03*
X411740000Y-168910000D03*
X425190000Y-166370000D03*
X430790000Y-168910000D03*
X444240000Y-166370000D03*
X449840000Y-168910000D03*
X463290000Y-166370000D03*
X468890000Y-168910000D03*
X482340000Y-166370000D03*
X487940000Y-168910000D03*
X501390000Y-166370000D03*
D13*
X479430000Y-46584000D03*
X479430000Y-40284000D03*
X483230000Y-46584000D03*
X483230000Y-40284000D03*
D14*
X31100000Y-45058000D03*
X31100000Y-43183000D03*
X32004000Y-63917499D03*
X32004000Y-62042499D03*
X49790000Y-63917499D03*
X49790000Y-62042499D03*
X68840000Y-63917499D03*
X68840000Y-62042499D03*
X87890000Y-63917499D03*
X87890000Y-62042499D03*
X145040000Y-63917499D03*
X145040000Y-62042499D03*
X278390000Y-63917499D03*
X278390000Y-62042499D03*
X316490000Y-63917499D03*
X316490000Y-62042499D03*
X354590000Y-63917499D03*
X354590000Y-62042499D03*
X430790000Y-63917499D03*
X430790000Y-62042499D03*
X145040000Y-82967499D03*
X145040000Y-81092499D03*
X373640000Y-82967499D03*
X373640000Y-81092499D03*
X468890000Y-82967499D03*
X468890000Y-81092499D03*
X87890000Y-102017499D03*
X87890000Y-100142499D03*
X202190000Y-102017499D03*
X202190000Y-100142499D03*
X335540000Y-102017499D03*
X335540000Y-100142499D03*
X430790000Y-102017499D03*
X430790000Y-100142499D03*
X468890000Y-102017499D03*
X468890000Y-100142499D03*
X68840000Y-121067499D03*
X68840000Y-119192499D03*
X125990000Y-121067499D03*
X125990000Y-119192499D03*
X183140000Y-121067499D03*
X183140000Y-119192499D03*
X202190000Y-121067499D03*
X202190000Y-119192499D03*
X297440000Y-121067499D03*
X297440000Y-119192499D03*
X316490000Y-121067499D03*
X316490000Y-119192499D03*
X373640000Y-121067499D03*
X373640000Y-119192499D03*
X430790000Y-121067499D03*
X430790000Y-119192499D03*
X32004000Y-140117499D03*
X32004000Y-138242499D03*
X49790000Y-140117499D03*
X49790000Y-138242499D03*
X87890000Y-140117499D03*
X87890000Y-138242499D03*
X125990000Y-140117499D03*
X125990000Y-138242499D03*
X145040000Y-140117499D03*
X145040000Y-138242499D03*
X183140000Y-140117499D03*
X183140000Y-138242499D03*
X202190000Y-140117499D03*
X202190000Y-138242499D03*
X221240000Y-140117499D03*
X221240000Y-138242499D03*
X259340000Y-140117499D03*
X259340000Y-138242499D03*
X297440000Y-140117499D03*
X297440000Y-138242499D03*
X316490000Y-140117499D03*
X316490000Y-138242499D03*
X373640000Y-140117499D03*
X373640000Y-138242499D03*
X392690000Y-140117499D03*
X392690000Y-138242499D03*
X430790000Y-140117499D03*
X430790000Y-138242499D03*
X449840000Y-140117499D03*
X449840000Y-138242499D03*
X487940000Y-140117499D03*
X487940000Y-138242499D03*
X32004000Y-159167499D03*
X32004000Y-157292499D03*
X49790000Y-159167499D03*
X49790000Y-157292499D03*
X68840000Y-159167499D03*
X68840000Y-157292499D03*
X87890000Y-159167499D03*
X87890000Y-157292499D03*
X106940000Y-159167499D03*
X106940000Y-157292499D03*
X145040000Y-159167499D03*
X145040000Y-157292499D03*
X164090000Y-159167499D03*
X164090000Y-157292499D03*
X183140000Y-159167499D03*
X183140000Y-157292499D03*
X240290000Y-159167499D03*
X240290000Y-157292499D03*
X259340000Y-159167499D03*
X259340000Y-157292499D03*
X278390000Y-159167499D03*
X278390000Y-157292499D03*
X297440000Y-159167499D03*
X297440000Y-157292499D03*
X316490000Y-159167499D03*
X316490000Y-157292499D03*
X335540000Y-159167499D03*
X335540000Y-157292499D03*
X373640000Y-159167499D03*
X373640000Y-157292499D03*
X411740000Y-159167499D03*
X411740000Y-157292499D03*
X430790000Y-159167499D03*
X430790000Y-157292499D03*
X449840000Y-159167499D03*
X449840000Y-157292499D03*
X487940000Y-159167499D03*
X487940000Y-157292499D03*
X32004000Y-178217499D03*
X32004000Y-176342499D03*
X49790000Y-178217499D03*
X49790000Y-176342499D03*
X87890000Y-178217499D03*
X87890000Y-176342499D03*
X106940000Y-178217499D03*
X106940000Y-176342499D03*
X125990000Y-178217499D03*
X125990000Y-176342499D03*
X145040000Y-178217499D03*
X145040000Y-176342499D03*
X164090000Y-178217499D03*
X164090000Y-176342499D03*
X183140000Y-178217499D03*
X183140000Y-176342499D03*
X202190000Y-178217499D03*
X202190000Y-176342499D03*
X240290000Y-178217499D03*
X240290000Y-176342499D03*
X259340000Y-178217499D03*
X259340000Y-176342499D03*
X278390000Y-178217499D03*
X278390000Y-176342499D03*
X297440000Y-178217499D03*
X297440000Y-176342499D03*
X316490000Y-178217499D03*
X316490000Y-176342499D03*
X335540000Y-178217499D03*
X335540000Y-176342499D03*
X354590000Y-178217499D03*
X354590000Y-176342499D03*
X373640000Y-178217499D03*
X373640000Y-176342499D03*
X392690000Y-178217499D03*
X392690000Y-176342499D03*
X411740000Y-178217499D03*
X411740000Y-176342499D03*
X430790000Y-178217499D03*
X430790000Y-176342499D03*
X449840000Y-178217499D03*
X449840000Y-176342499D03*
X468890000Y-178217499D03*
X468890000Y-176342499D03*
X487940000Y-178217499D03*
X487940000Y-176342499D03*
X506990000Y-178217499D03*
X506990000Y-176342499D03*
D12*
X506990000Y-168910000D03*
X520440000Y-166370000D03*
D14*
X59675000Y-45058000D03*
X59675000Y-43183000D03*
X102537500Y-45058000D03*
X102537500Y-43183000D03*
X507350000Y-45058000D03*
X507350000Y-43183000D03*
X106940000Y-63917499D03*
X106940000Y-62042499D03*
X125990000Y-63917499D03*
X125990000Y-62042499D03*
X164090000Y-63917499D03*
X164090000Y-62042499D03*
X183140000Y-63917499D03*
X183140000Y-62042499D03*
X202190000Y-63917499D03*
X202190000Y-62042499D03*
X221240000Y-63917499D03*
X221240000Y-62042499D03*
X240290000Y-63917499D03*
X240290000Y-62042499D03*
X259340000Y-63917499D03*
X259340000Y-62042499D03*
X297440000Y-63917499D03*
X297440000Y-62042499D03*
X335540000Y-63917499D03*
X335540000Y-62042499D03*
X373640000Y-63917499D03*
X373640000Y-62042499D03*
X392690000Y-63917499D03*
X392690000Y-62042499D03*
X411740000Y-63917499D03*
X411740000Y-62042499D03*
X449840000Y-63917499D03*
X449840000Y-62042499D03*
X468890000Y-63917499D03*
X468890000Y-62042499D03*
X487940000Y-63917499D03*
X487940000Y-62042499D03*
X506990000Y-63917499D03*
X506990000Y-62042499D03*
X32004000Y-82967499D03*
X32004000Y-81092499D03*
X49790000Y-82967499D03*
X49790000Y-81092499D03*
X68840000Y-82967499D03*
X68840000Y-81092499D03*
X87890000Y-82967499D03*
X87890000Y-81092499D03*
X106940000Y-82967499D03*
X106940000Y-81092499D03*
X125990000Y-82967499D03*
X125990000Y-81092499D03*
X164090000Y-82967499D03*
X164090000Y-81092499D03*
X183140000Y-82967499D03*
X183140000Y-81092499D03*
X202190000Y-82967499D03*
X202190000Y-81092499D03*
X221240000Y-82967499D03*
X221240000Y-81092499D03*
X240290000Y-82967499D03*
X240290000Y-81092499D03*
X259340000Y-82967499D03*
X259340000Y-81092499D03*
X278390000Y-82967499D03*
X278390000Y-81092499D03*
X297440000Y-82967499D03*
X297440000Y-81092499D03*
X316490000Y-82967499D03*
X316490000Y-81092499D03*
X335540000Y-82967499D03*
X335540000Y-81092499D03*
X354590000Y-82967499D03*
X354590000Y-81092499D03*
X392690000Y-82967499D03*
X392690000Y-81092499D03*
X411740000Y-82967499D03*
X411740000Y-81092499D03*
X430790000Y-82967499D03*
X430790000Y-81092499D03*
X449840000Y-82967499D03*
X449840000Y-81092499D03*
X487940000Y-82967499D03*
X487940000Y-81092499D03*
X506990000Y-82967499D03*
X506990000Y-81092499D03*
X32004000Y-102017499D03*
X32004000Y-100142499D03*
X49790000Y-102017499D03*
X49790000Y-100142499D03*
X68840000Y-102017499D03*
X68840000Y-100142499D03*
X106940000Y-102017499D03*
X106940000Y-100142499D03*
X125990000Y-102017499D03*
X125990000Y-100142499D03*
X145040000Y-102017499D03*
X145040000Y-100142499D03*
X164090000Y-102017499D03*
X164090000Y-100142499D03*
X183140000Y-102017499D03*
X183140000Y-100142499D03*
X221240000Y-102017499D03*
X221240000Y-100142499D03*
X240290000Y-102017499D03*
X240290000Y-100142499D03*
X259340000Y-102017499D03*
X259340000Y-100142499D03*
X278390000Y-102017499D03*
X278390000Y-100142499D03*
X297440000Y-102017499D03*
X297440000Y-100142499D03*
X316490000Y-102017499D03*
X316490000Y-100142499D03*
X354590000Y-102017499D03*
X354590000Y-100142499D03*
X373640000Y-102017499D03*
X373640000Y-100142499D03*
X392690000Y-102017499D03*
X392690000Y-100142499D03*
X411740000Y-102017499D03*
X411740000Y-100142499D03*
X449840000Y-102017499D03*
X449840000Y-100142499D03*
X487940000Y-102017499D03*
X487940000Y-100142499D03*
X506990000Y-102017499D03*
X506990000Y-100142499D03*
X32004000Y-121067499D03*
X32004000Y-119192499D03*
X49790000Y-121067499D03*
X49790000Y-119192499D03*
X87890000Y-121067499D03*
X87890000Y-119192499D03*
X106940000Y-121067499D03*
X106940000Y-119192499D03*
X145040000Y-121067499D03*
X145040000Y-119192499D03*
X164090000Y-121067499D03*
X164090000Y-119192499D03*
X221240000Y-121067499D03*
X221240000Y-119192499D03*
X240290000Y-121067499D03*
X240290000Y-119192499D03*
X259340000Y-121067499D03*
X259340000Y-119192499D03*
X278390000Y-121067499D03*
X278390000Y-119192499D03*
X335540000Y-121067499D03*
X335540000Y-119192499D03*
X354590000Y-121067499D03*
X354590000Y-119192499D03*
X392690000Y-121067499D03*
X392690000Y-119192499D03*
X411740000Y-121067499D03*
X411740000Y-119192499D03*
X449840000Y-121067499D03*
X449840000Y-119192499D03*
X468890000Y-121067499D03*
X468890000Y-119192499D03*
X487940000Y-121067499D03*
X487940000Y-119192499D03*
X506990000Y-121067499D03*
X506990000Y-119192499D03*
X68840000Y-140117499D03*
X68840000Y-138242499D03*
X106940000Y-140117499D03*
X106940000Y-138242499D03*
X164090000Y-140117499D03*
X164090000Y-138242499D03*
X240290000Y-140117499D03*
X240290000Y-138242499D03*
X278390000Y-140117499D03*
X278390000Y-138242499D03*
X335540000Y-140117499D03*
X335540000Y-138242499D03*
X354590000Y-140117499D03*
X354590000Y-138242499D03*
X411740000Y-140117499D03*
X411740000Y-138242499D03*
X468890000Y-140117499D03*
X468890000Y-138242499D03*
X506990000Y-140117499D03*
X506990000Y-138242499D03*
X125990000Y-159167499D03*
X125990000Y-157292499D03*
X202190000Y-159167499D03*
X202190000Y-157292499D03*
X221240000Y-159167499D03*
X221240000Y-157292499D03*
X354590000Y-159167499D03*
X354590000Y-157292499D03*
X392690000Y-159167499D03*
X392690000Y-157292499D03*
X468890000Y-159167499D03*
X468890000Y-157292499D03*
X506990000Y-159167499D03*
X506990000Y-157292499D03*
X68840000Y-178217499D03*
X68840000Y-176342499D03*
X221240000Y-178217499D03*
X221240000Y-176342499D03*
D15*
X428625000Y-95187500D03*
X428625000Y-98262500D03*
X447675000Y-85725000D03*
X447675000Y-88800000D03*
X200025000Y-171387500D03*
X200025000Y-174462500D03*
X161925000Y-133287500D03*
X161925000Y-136362500D03*
X123825000Y-95187500D03*
X123825000Y-98262500D03*
X390525000Y-133287500D03*
X390525000Y-136362500D03*
X352425000Y-171387500D03*
X352425000Y-174462500D03*
X371475000Y-161925000D03*
X371475000Y-165000000D03*
X409575000Y-123825000D03*
X409575000Y-126900000D03*
X104775000Y-85725000D03*
X104775000Y-88800000D03*
X466725000Y-57087500D03*
X466725000Y-60162500D03*
X142875000Y-123825000D03*
X142875000Y-126900000D03*
X85725000Y-57087500D03*
X85725000Y-60162500D03*
D16*
X490514000Y-34068000D03*
X489514000Y-34068000D03*
X488514000Y-34068000D03*
X487514000Y-34068000D03*
D17*
X491814000Y-37943000D03*
X486214000Y-37943000D03*
D15*
X180975000Y-161925000D03*
X180975000Y-165000000D03*
M02*
