G04 #@! TF.GenerationSoftware,KiCad,Pcbnew,(6.0.0-0)*
G04 #@! TF.CreationDate,2021-12-27T00:14:13+03:00*
G04 #@! TF.ProjectId,fu_keyboard,66755f6b-6579-4626-9f61-72642e6b6963,rev?*
G04 #@! TF.SameCoordinates,Original*
G04 #@! TF.FileFunction,Soldermask,Top*
G04 #@! TF.FilePolarity,Negative*
%FSLAX46Y46*%
G04 Gerber Fmt 4.6, Leading zero omitted, Abs format (unit mm)*
G04 Created by KiCad (PCBNEW (6.0.0-0)) date 2021-12-27 00:14:13*
%MOMM*%
%LPD*%
G01*
G04 APERTURE LIST*
G04 Aperture macros list*
%AMRoundRect*
0 Rectangle with rounded corners*
0 $1 Rounding radius*
0 $2 $3 $4 $5 $6 $7 $8 $9 X,Y pos of 4 corners*
0 Add a 4 corners polygon primitive as box body*
4,1,4,$2,$3,$4,$5,$6,$7,$8,$9,$2,$3,0*
0 Add four circle primitives for the rounded corners*
1,1,$1+$1,$2,$3*
1,1,$1+$1,$4,$5*
1,1,$1+$1,$6,$7*
1,1,$1+$1,$8,$9*
0 Add four rect primitives between the rounded corners*
20,1,$1+$1,$2,$3,$4,$5,0*
20,1,$1+$1,$4,$5,$6,$7,0*
20,1,$1+$1,$6,$7,$8,$9,0*
20,1,$1+$1,$8,$9,$2,$3,0*%
%AMFreePoly0*
4,1,27,0.331129,0.172118,0.375323,0.153812,0.391868,0.142756,0.455256,0.079368,0.466312,0.062823,0.484618,0.018629,0.488500,-0.000888,0.488500,-0.062500,0.484618,-0.082017,0.466312,-0.126211,0.438711,-0.153812,0.394517,-0.172118,0.375000,-0.176000,-0.375000,-0.176000,-0.394517,-0.172118,-0.438711,-0.153812,-0.466312,-0.126211,-0.484618,-0.082017,-0.488500,-0.062500,-0.488500,0.062500,
-0.484618,0.082017,-0.466312,0.126211,-0.438711,0.153812,-0.394517,0.172118,-0.375000,0.176000,0.311612,0.176000,0.331129,0.172118,0.331129,0.172118,$1*%
%AMFreePoly1*
4,1,27,0.394517,0.172118,0.438711,0.153812,0.466312,0.126211,0.484618,0.082017,0.488500,0.062500,0.488500,0.000888,0.484618,-0.018629,0.466312,-0.062823,0.455256,-0.079368,0.391868,-0.142756,0.375323,-0.153812,0.331129,-0.172118,0.311612,-0.176000,-0.375000,-0.176000,-0.394517,-0.172118,-0.438711,-0.153812,-0.466312,-0.126211,-0.484618,-0.082017,-0.488500,-0.062500,-0.488500,0.062500,
-0.484618,0.082017,-0.466312,0.126211,-0.438711,0.153812,-0.394517,0.172118,-0.375000,0.176000,0.375000,0.176000,0.394517,0.172118,0.394517,0.172118,$1*%
%AMFreePoly2*
4,1,27,0.082017,0.484618,0.126211,0.466312,0.153812,0.438711,0.172118,0.394517,0.176000,0.375000,0.176000,-0.375000,0.172118,-0.394517,0.153812,-0.438711,0.126211,-0.466312,0.082017,-0.484618,0.062500,-0.488500,-0.062500,-0.488500,-0.082017,-0.484618,-0.126211,-0.466312,-0.153812,-0.438711,-0.172118,-0.394517,-0.176000,-0.375000,-0.176000,0.311612,-0.172118,0.331129,-0.153812,0.375323,
-0.142756,0.391868,-0.079368,0.455256,-0.062823,0.466312,-0.018629,0.484618,0.000888,0.488500,0.062500,0.488500,0.082017,0.484618,0.082017,0.484618,$1*%
%AMFreePoly3*
4,1,27,0.018629,0.484618,0.062823,0.466312,0.079368,0.455256,0.142756,0.391868,0.153812,0.375323,0.172118,0.331129,0.176000,0.311612,0.176000,-0.375000,0.172118,-0.394517,0.153812,-0.438711,0.126211,-0.466312,0.082017,-0.484618,0.062500,-0.488500,-0.062500,-0.488500,-0.082017,-0.484618,-0.126211,-0.466312,-0.153812,-0.438711,-0.172118,-0.394517,-0.176000,-0.375000,-0.176000,0.375000,
-0.172118,0.394517,-0.153812,0.438711,-0.126211,0.466312,-0.082017,0.484618,-0.062500,0.488500,-0.000888,0.488500,0.018629,0.484618,0.018629,0.484618,$1*%
%AMFreePoly4*
4,1,27,0.394517,0.172118,0.438711,0.153812,0.466312,0.126211,0.484618,0.082017,0.488500,0.062500,0.488500,-0.062500,0.484618,-0.082017,0.466312,-0.126211,0.438711,-0.153812,0.394517,-0.172118,0.375000,-0.176000,-0.311612,-0.176000,-0.331129,-0.172118,-0.375323,-0.153812,-0.391868,-0.142756,-0.455256,-0.079368,-0.466312,-0.062823,-0.484618,-0.018629,-0.488500,0.000888,-0.488500,0.062500,
-0.484618,0.082017,-0.466312,0.126211,-0.438711,0.153812,-0.394517,0.172118,-0.375000,0.176000,0.375000,0.176000,0.394517,0.172118,0.394517,0.172118,$1*%
%AMFreePoly5*
4,1,27,0.394517,0.172118,0.438711,0.153812,0.466312,0.126211,0.484618,0.082017,0.488500,0.062500,0.488500,-0.062500,0.484618,-0.082017,0.466312,-0.126211,0.438711,-0.153812,0.394517,-0.172118,0.375000,-0.176000,-0.375000,-0.176000,-0.394517,-0.172118,-0.438711,-0.153812,-0.466312,-0.126211,-0.484618,-0.082017,-0.488500,-0.062500,-0.488500,-0.000888,-0.484618,0.018629,-0.466312,0.062823,
-0.455256,0.079368,-0.391868,0.142756,-0.375323,0.153812,-0.331129,0.172118,-0.311612,0.176000,0.375000,0.176000,0.394517,0.172118,0.394517,0.172118,$1*%
%AMFreePoly6*
4,1,27,0.082017,0.484618,0.126211,0.466312,0.153812,0.438711,0.172118,0.394517,0.176000,0.375000,0.176000,-0.311612,0.172118,-0.331129,0.153812,-0.375323,0.142756,-0.391868,0.079368,-0.455256,0.062823,-0.466312,0.018629,-0.484618,-0.000888,-0.488500,-0.062500,-0.488500,-0.082017,-0.484618,-0.126211,-0.466312,-0.153812,-0.438711,-0.172118,-0.394517,-0.176000,-0.375000,-0.176000,0.375000,
-0.172118,0.394517,-0.153812,0.438711,-0.126211,0.466312,-0.082017,0.484618,-0.062500,0.488500,0.062500,0.488500,0.082017,0.484618,0.082017,0.484618,$1*%
%AMFreePoly7*
4,1,27,0.082017,0.484618,0.126211,0.466312,0.153812,0.438711,0.172118,0.394517,0.176000,0.375000,0.176000,-0.375000,0.172118,-0.394517,0.153812,-0.438711,0.126211,-0.466312,0.082017,-0.484618,0.062500,-0.488500,0.000888,-0.488500,-0.018629,-0.484618,-0.062823,-0.466312,-0.079368,-0.455256,-0.142756,-0.391868,-0.153812,-0.375323,-0.172118,-0.331129,-0.176000,-0.311612,-0.176000,0.375000,
-0.172118,0.394517,-0.153812,0.438711,-0.126211,0.466312,-0.082017,0.484618,-0.062500,0.488500,0.062500,0.488500,0.082017,0.484618,0.082017,0.484618,$1*%
G04 Aperture macros list end*
%ADD10O,1.302000X2.102000*%
%ADD11C,2.202000*%
%ADD12C,1.202000*%
%ADD13C,1.602000*%
%ADD14O,3.102000X2.102000*%
%ADD15O,2.102000X3.102000*%
%ADD16FreePoly0,225.000000*%
%ADD17RoundRect,0.113500X0.220971X0.309359X-0.309359X-0.220971X-0.220971X-0.309359X0.309359X0.220971X0*%
%ADD18FreePoly1,225.000000*%
%ADD19FreePoly2,225.000000*%
%ADD20RoundRect,0.113500X-0.220971X0.309359X-0.309359X0.220971X0.220971X-0.309359X0.309359X-0.220971X0*%
%ADD21FreePoly3,225.000000*%
%ADD22FreePoly4,225.000000*%
%ADD23FreePoly5,225.000000*%
%ADD24FreePoly6,225.000000*%
%ADD25FreePoly7,225.000000*%
%ADD26RoundRect,0.051000X0.000000X5.303301X-5.303301X0.000000X0.000000X-5.303301X5.303301X0.000000X0*%
%ADD27RoundRect,0.276000X0.225000X0.250000X-0.225000X0.250000X-0.225000X-0.250000X0.225000X-0.250000X0*%
%ADD28RoundRect,0.276000X-0.017678X0.335876X-0.335876X0.017678X0.017678X-0.335876X0.335876X-0.017678X0*%
%ADD29RoundRect,0.251000X0.200000X0.275000X-0.200000X0.275000X-0.200000X-0.275000X0.200000X-0.275000X0*%
%ADD30RoundRect,0.251000X-0.200000X-0.275000X0.200000X-0.275000X0.200000X0.275000X-0.200000X0.275000X0*%
%ADD31RoundRect,0.251000X-0.053033X0.335876X-0.335876X0.053033X0.053033X-0.335876X0.335876X-0.053033X0*%
%ADD32RoundRect,0.051000X-0.850000X-0.850000X0.850000X-0.850000X0.850000X0.850000X-0.850000X0.850000X0*%
%ADD33O,1.802000X1.802000*%
%ADD34RoundRect,0.051000X0.600000X-0.700000X0.600000X0.700000X-0.600000X0.700000X-0.600000X-0.700000X0*%
%ADD35RoundRect,0.276000X-0.335876X-0.017678X-0.017678X-0.335876X0.335876X0.017678X0.017678X0.335876X0*%
%ADD36RoundRect,0.276000X0.335876X0.017678X0.017678X0.335876X-0.335876X-0.017678X-0.017678X-0.335876X0*%
%ADD37RoundRect,0.276000X0.017678X-0.335876X0.335876X-0.017678X-0.017678X0.335876X-0.335876X0.017678X0*%
%ADD38RoundRect,0.051000X-2.100000X1.000000X-2.100000X-1.000000X2.100000X-1.000000X2.100000X1.000000X0*%
%ADD39C,1.802000*%
%ADD40C,3.102000*%
%ADD41C,4.102000*%
%ADD42RoundRect,0.051000X0.850000X0.850000X-0.850000X0.850000X-0.850000X-0.850000X0.850000X-0.850000X0*%
G04 APERTURE END LIST*
D10*
X78512500Y-34555000D03*
X83412500Y-29555000D03*
X83412500Y-34555000D03*
X78512500Y-29555000D03*
D11*
X80962500Y-37855000D03*
D12*
X80962500Y-33455000D03*
X80962500Y-30455000D03*
D13*
X45600000Y-40600000D03*
X45600000Y-35600000D03*
X45600000Y-38100000D03*
D14*
X38100000Y-32500000D03*
X38100000Y-43700000D03*
D13*
X31100000Y-35600000D03*
X31100000Y-40600000D03*
X69175000Y-30600000D03*
X64175000Y-30600000D03*
X66675000Y-30600000D03*
D15*
X61075000Y-38100000D03*
X72275000Y-38100000D03*
D13*
X64175000Y-45100000D03*
X69175000Y-45100000D03*
X97750000Y-30600000D03*
X92750000Y-30600000D03*
X95250000Y-30600000D03*
D15*
X89650000Y-38100000D03*
X100850000Y-38100000D03*
D13*
X92750000Y-45100000D03*
X97750000Y-45100000D03*
X521850000Y-40600000D03*
X521850000Y-35600000D03*
X521850000Y-38100000D03*
D14*
X514350000Y-32500000D03*
X514350000Y-43700000D03*
D13*
X507350000Y-35600000D03*
X507350000Y-40600000D03*
D16*
X473449259Y-37568042D03*
D17*
X473095706Y-37214488D03*
X472742152Y-36860935D03*
X472388599Y-36507382D03*
X472035046Y-36153828D03*
X471681492Y-35800275D03*
X471327939Y-35446721D03*
X470974385Y-35093168D03*
X470620832Y-34739615D03*
X470267279Y-34386061D03*
X469913725Y-34032508D03*
X469560172Y-33678954D03*
X469206618Y-33325401D03*
X468853065Y-32971848D03*
X468499512Y-32618294D03*
D18*
X468145958Y-32264741D03*
D19*
X467209042Y-32264741D03*
D20*
X466855488Y-32618294D03*
X466501935Y-32971848D03*
X466148382Y-33325401D03*
X465794828Y-33678954D03*
X465441275Y-34032508D03*
X465087721Y-34386061D03*
X464734168Y-34739615D03*
X464380615Y-35093168D03*
X464027061Y-35446721D03*
X463673508Y-35800275D03*
X463319954Y-36153828D03*
X462966401Y-36507382D03*
X462612848Y-36860935D03*
X462259294Y-37214488D03*
D21*
X461905741Y-37568042D03*
D22*
X461905741Y-38504958D03*
D17*
X462259294Y-38858512D03*
X462612848Y-39212065D03*
X462966401Y-39565618D03*
X463319954Y-39919172D03*
X463673508Y-40272725D03*
X464027061Y-40626279D03*
X464380615Y-40979832D03*
X464734168Y-41333385D03*
X465087721Y-41686939D03*
X465441275Y-42040492D03*
X465794828Y-42394046D03*
X466148382Y-42747599D03*
X466501935Y-43101152D03*
X466855488Y-43454706D03*
D23*
X467209042Y-43808259D03*
D24*
X468145958Y-43808259D03*
D20*
X468499512Y-43454706D03*
X468853065Y-43101152D03*
X469206618Y-42747599D03*
X469560172Y-42394046D03*
X469913725Y-42040492D03*
X470267279Y-41686939D03*
X470620832Y-41333385D03*
X470974385Y-40979832D03*
X471327939Y-40626279D03*
X471681492Y-40272725D03*
X472035046Y-39919172D03*
X472388599Y-39565618D03*
X472742152Y-39212065D03*
X473095706Y-38858512D03*
D25*
X473449259Y-38504958D03*
D26*
X467677500Y-38036500D03*
D27*
X453212500Y-38100000D03*
X451662500Y-38100000D03*
X453212500Y-32258000D03*
X451662500Y-32258000D03*
D28*
X474181808Y-32852992D03*
X473085792Y-33949008D03*
D29*
X456564500Y-39370000D03*
X454914500Y-39370000D03*
D30*
X484188000Y-39624000D03*
X485838000Y-39624000D03*
D29*
X485838000Y-41402000D03*
X484188000Y-41402000D03*
D31*
X464514363Y-43041137D03*
X463347637Y-44207863D03*
D32*
X458724000Y-41910000D03*
D33*
X458724000Y-39370000D03*
X458724000Y-36830000D03*
X458724000Y-34290000D03*
D34*
X453287500Y-36279000D03*
X453287500Y-34079000D03*
X451587500Y-34079000D03*
X451587500Y-36279000D03*
D35*
X474491992Y-35952492D03*
X475588008Y-37048508D03*
X470063192Y-43940092D03*
X471159208Y-45036108D03*
D36*
X464860008Y-32310708D03*
X463763992Y-31214692D03*
D35*
X474609792Y-39329992D03*
X475705808Y-40426008D03*
D37*
X472069792Y-32933008D03*
X473165808Y-31836992D03*
D38*
X501015000Y-34100000D03*
X501015000Y-42100000D03*
D29*
X497903000Y-32538100D03*
X496253000Y-32538100D03*
D39*
X43180000Y-57150000D03*
D40*
X40640000Y-52070000D03*
X34290000Y-54610000D03*
D41*
X38100000Y-57150000D03*
D39*
X33020000Y-57150000D03*
D40*
X53340000Y-54610000D03*
D39*
X52070000Y-57150000D03*
D40*
X59690000Y-52070000D03*
D41*
X57150000Y-57150000D03*
D39*
X62230000Y-57150000D03*
D41*
X76200000Y-57150000D03*
D39*
X71120000Y-57150000D03*
D40*
X78740000Y-52070000D03*
D39*
X81280000Y-57150000D03*
D40*
X72390000Y-54610000D03*
D41*
X95250000Y-57150000D03*
D40*
X97790000Y-52070000D03*
D39*
X100330000Y-57150000D03*
D40*
X91440000Y-54610000D03*
D39*
X90170000Y-57150000D03*
D40*
X110490000Y-54610000D03*
D41*
X114300000Y-57150000D03*
D40*
X116840000Y-52070000D03*
D39*
X109220000Y-57150000D03*
X119380000Y-57150000D03*
D40*
X135890000Y-52070000D03*
D41*
X133350000Y-57150000D03*
D40*
X129540000Y-54610000D03*
D39*
X138430000Y-57150000D03*
X128270000Y-57150000D03*
X147320000Y-57150000D03*
X157480000Y-57150000D03*
D40*
X154940000Y-52070000D03*
D41*
X152400000Y-57150000D03*
D40*
X148590000Y-54610000D03*
D39*
X166370000Y-57150000D03*
X176530000Y-57150000D03*
D40*
X173990000Y-52070000D03*
X167640000Y-54610000D03*
D41*
X171450000Y-57150000D03*
X190500000Y-57150000D03*
D40*
X193040000Y-52070000D03*
X186690000Y-54610000D03*
D39*
X185420000Y-57150000D03*
X195580000Y-57150000D03*
X204470000Y-57150000D03*
D41*
X209550000Y-57150000D03*
D40*
X212090000Y-52070000D03*
D39*
X214630000Y-57150000D03*
D40*
X205740000Y-54610000D03*
D39*
X223520000Y-57150000D03*
D41*
X228600000Y-57150000D03*
D39*
X233680000Y-57150000D03*
D40*
X224790000Y-54610000D03*
X231140000Y-52070000D03*
D39*
X242570000Y-57150000D03*
X252730000Y-57150000D03*
D40*
X243840000Y-54610000D03*
D41*
X247650000Y-57150000D03*
D40*
X250190000Y-52070000D03*
D41*
X266700000Y-57150000D03*
D39*
X271780000Y-57150000D03*
X261620000Y-57150000D03*
D40*
X262890000Y-54610000D03*
X269240000Y-52070000D03*
D39*
X290830000Y-57150000D03*
X280670000Y-57150000D03*
D40*
X288290000Y-52070000D03*
X281940000Y-54610000D03*
D41*
X285750000Y-57150000D03*
D40*
X300990000Y-54610000D03*
D39*
X299720000Y-57150000D03*
X309880000Y-57150000D03*
D41*
X304800000Y-57150000D03*
D40*
X307340000Y-52070000D03*
X320040000Y-54610000D03*
D39*
X318770000Y-57150000D03*
D41*
X323850000Y-57150000D03*
D39*
X328930000Y-57150000D03*
D40*
X326390000Y-52070000D03*
D41*
X342900000Y-57150000D03*
D39*
X337820000Y-57150000D03*
D40*
X345440000Y-52070000D03*
X339090000Y-54610000D03*
D39*
X347980000Y-57150000D03*
D40*
X364490000Y-52070000D03*
D39*
X356870000Y-57150000D03*
D40*
X358140000Y-54610000D03*
D39*
X367030000Y-57150000D03*
D41*
X361950000Y-57150000D03*
D40*
X377190000Y-54610000D03*
X383540000Y-52070000D03*
D39*
X386080000Y-57150000D03*
X375920000Y-57150000D03*
D41*
X381000000Y-57150000D03*
D39*
X405130000Y-57150000D03*
D41*
X400050000Y-57150000D03*
D39*
X394970000Y-57150000D03*
D40*
X396240000Y-54610000D03*
X402590000Y-52070000D03*
X421640000Y-52070000D03*
X415290000Y-54610000D03*
D41*
X419100000Y-57150000D03*
D39*
X424180000Y-57150000D03*
X414020000Y-57150000D03*
D40*
X440690000Y-52070000D03*
D39*
X443230000Y-57150000D03*
D41*
X438150000Y-57150000D03*
D39*
X433070000Y-57150000D03*
D40*
X434340000Y-54610000D03*
X459740000Y-52070000D03*
D41*
X457200000Y-57150000D03*
D39*
X462280000Y-57150000D03*
X452120000Y-57150000D03*
D40*
X453390000Y-54610000D03*
X472440000Y-54610000D03*
D41*
X476250000Y-57150000D03*
D39*
X481330000Y-57150000D03*
D40*
X478790000Y-52070000D03*
D39*
X471170000Y-57150000D03*
D40*
X497840000Y-52070000D03*
D39*
X500380000Y-57150000D03*
D41*
X495300000Y-57150000D03*
D39*
X490220000Y-57150000D03*
D40*
X491490000Y-54610000D03*
X516890000Y-52070000D03*
D39*
X519430000Y-57150000D03*
D40*
X510540000Y-54610000D03*
D39*
X509270000Y-57150000D03*
D41*
X514350000Y-57150000D03*
D39*
X33020000Y-76200000D03*
D40*
X34290000Y-73660000D03*
D41*
X38100000Y-76200000D03*
D40*
X40640000Y-71120000D03*
D39*
X43180000Y-76200000D03*
D40*
X59690000Y-71120000D03*
D39*
X62230000Y-76200000D03*
D40*
X53340000Y-73660000D03*
D39*
X52070000Y-76200000D03*
D41*
X57150000Y-76200000D03*
D39*
X71120000Y-76200000D03*
D41*
X76200000Y-76200000D03*
D39*
X81280000Y-76200000D03*
D40*
X78740000Y-71120000D03*
X72390000Y-73660000D03*
D39*
X90170000Y-76200000D03*
D40*
X91440000Y-73660000D03*
X97790000Y-71120000D03*
D41*
X95250000Y-76200000D03*
D39*
X100330000Y-76200000D03*
D40*
X116840000Y-71120000D03*
D41*
X114300000Y-76200000D03*
D39*
X119380000Y-76200000D03*
D40*
X110490000Y-73660000D03*
D39*
X109220000Y-76200000D03*
D41*
X133350000Y-76200000D03*
D39*
X128270000Y-76200000D03*
D40*
X129540000Y-73660000D03*
X135890000Y-71120000D03*
D39*
X138430000Y-76200000D03*
X157480000Y-76200000D03*
D40*
X154940000Y-71120000D03*
D39*
X147320000Y-76200000D03*
D40*
X148590000Y-73660000D03*
D41*
X152400000Y-76200000D03*
D40*
X167640000Y-73660000D03*
D39*
X176530000Y-76200000D03*
X166370000Y-76200000D03*
D40*
X173990000Y-71120000D03*
D41*
X171450000Y-76200000D03*
D40*
X186690000Y-73660000D03*
D41*
X190500000Y-76200000D03*
D39*
X185420000Y-76200000D03*
D40*
X193040000Y-71120000D03*
D39*
X195580000Y-76200000D03*
X214630000Y-76200000D03*
D40*
X212090000Y-71120000D03*
D39*
X204470000Y-76200000D03*
D41*
X209550000Y-76200000D03*
D40*
X205740000Y-73660000D03*
D39*
X223520000Y-76200000D03*
D41*
X228600000Y-76200000D03*
D39*
X233680000Y-76200000D03*
D40*
X231140000Y-71120000D03*
X224790000Y-73660000D03*
D41*
X247650000Y-76200000D03*
D40*
X243840000Y-73660000D03*
D39*
X242570000Y-76200000D03*
X252730000Y-76200000D03*
D40*
X250190000Y-71120000D03*
D41*
X266700000Y-76200000D03*
D39*
X261620000Y-76200000D03*
X271780000Y-76200000D03*
D40*
X262890000Y-73660000D03*
X269240000Y-71120000D03*
X288290000Y-71120000D03*
D41*
X285750000Y-76200000D03*
D39*
X290830000Y-76200000D03*
D40*
X281940000Y-73660000D03*
D39*
X280670000Y-76200000D03*
D41*
X304800000Y-76200000D03*
D39*
X309880000Y-76200000D03*
D40*
X307340000Y-71120000D03*
X300990000Y-73660000D03*
D39*
X299720000Y-76200000D03*
X328930000Y-76200000D03*
X318770000Y-76200000D03*
D40*
X320040000Y-73660000D03*
X326390000Y-71120000D03*
D41*
X323850000Y-76200000D03*
D40*
X345440000Y-71120000D03*
D39*
X337820000Y-76200000D03*
D41*
X342900000Y-76200000D03*
D40*
X339090000Y-73660000D03*
D39*
X347980000Y-76200000D03*
D41*
X361950000Y-76200000D03*
D40*
X358140000Y-73660000D03*
D39*
X367030000Y-76200000D03*
D40*
X364490000Y-71120000D03*
D39*
X356870000Y-76200000D03*
D40*
X383540000Y-71120000D03*
D41*
X381000000Y-76200000D03*
D39*
X375920000Y-76200000D03*
X386080000Y-76200000D03*
D40*
X377190000Y-73660000D03*
X396240000Y-73660000D03*
X402590000Y-71120000D03*
D41*
X400050000Y-76200000D03*
D39*
X394970000Y-76200000D03*
X405130000Y-76200000D03*
D41*
X419100000Y-76200000D03*
D40*
X415290000Y-73660000D03*
X421640000Y-71120000D03*
D39*
X424180000Y-76200000D03*
X414020000Y-76200000D03*
D40*
X434340000Y-73660000D03*
D39*
X433070000Y-76200000D03*
X443230000Y-76200000D03*
D41*
X438150000Y-76200000D03*
D40*
X440690000Y-71120000D03*
D39*
X452120000Y-76200000D03*
X462280000Y-76200000D03*
D40*
X459740000Y-71120000D03*
D41*
X457200000Y-76200000D03*
D40*
X453390000Y-73660000D03*
D39*
X471170000Y-76200000D03*
D40*
X472440000Y-73660000D03*
D39*
X481330000Y-76200000D03*
D41*
X476250000Y-76200000D03*
D40*
X478790000Y-71120000D03*
D39*
X490220000Y-76200000D03*
D40*
X491490000Y-73660000D03*
X497840000Y-71120000D03*
D41*
X495300000Y-76200000D03*
D39*
X500380000Y-76200000D03*
X509270000Y-76200000D03*
X519430000Y-76200000D03*
D40*
X516890000Y-71120000D03*
D41*
X514350000Y-76200000D03*
D40*
X510540000Y-73660000D03*
X34290000Y-92710000D03*
D41*
X38100000Y-95250000D03*
D39*
X43180000Y-95250000D03*
D40*
X40640000Y-90170000D03*
D39*
X33020000Y-95250000D03*
X52070000Y-95250000D03*
D40*
X53340000Y-92710000D03*
D39*
X62230000Y-95250000D03*
D40*
X59690000Y-90170000D03*
D41*
X57150000Y-95250000D03*
D40*
X72390000Y-92710000D03*
D39*
X71120000Y-95250000D03*
X81280000Y-95250000D03*
D41*
X76200000Y-95250000D03*
D40*
X78740000Y-90170000D03*
X91440000Y-92710000D03*
D39*
X100330000Y-95250000D03*
D40*
X97790000Y-90170000D03*
D41*
X95250000Y-95250000D03*
D39*
X90170000Y-95250000D03*
D40*
X116840000Y-90170000D03*
D41*
X114300000Y-95250000D03*
D40*
X110490000Y-92710000D03*
D39*
X109220000Y-95250000D03*
X119380000Y-95250000D03*
X128270000Y-95250000D03*
D40*
X135890000Y-90170000D03*
D41*
X133350000Y-95250000D03*
D39*
X138430000Y-95250000D03*
D40*
X129540000Y-92710000D03*
X148590000Y-92710000D03*
D41*
X152400000Y-95250000D03*
D40*
X154940000Y-90170000D03*
D39*
X157480000Y-95250000D03*
X147320000Y-95250000D03*
X166370000Y-95250000D03*
X176530000Y-95250000D03*
D40*
X167640000Y-92710000D03*
X173990000Y-90170000D03*
D41*
X171450000Y-95250000D03*
D39*
X185420000Y-95250000D03*
D41*
X190500000Y-95250000D03*
D40*
X186690000Y-92710000D03*
D39*
X195580000Y-95250000D03*
D40*
X193040000Y-90170000D03*
D41*
X209550000Y-95250000D03*
D39*
X204470000Y-95250000D03*
D40*
X212090000Y-90170000D03*
D39*
X214630000Y-95250000D03*
D40*
X205740000Y-92710000D03*
X224790000Y-92710000D03*
D41*
X228600000Y-95250000D03*
D39*
X223520000Y-95250000D03*
X233680000Y-95250000D03*
D40*
X231140000Y-90170000D03*
X250190000Y-90170000D03*
D39*
X252730000Y-95250000D03*
X242570000Y-95250000D03*
D40*
X243840000Y-92710000D03*
D41*
X247650000Y-95250000D03*
X266700000Y-95250000D03*
D39*
X261620000Y-95250000D03*
D40*
X262890000Y-92710000D03*
D39*
X271780000Y-95250000D03*
D40*
X269240000Y-90170000D03*
D39*
X290830000Y-95250000D03*
D40*
X288290000Y-90170000D03*
D41*
X285750000Y-95250000D03*
D39*
X280670000Y-95250000D03*
D40*
X281940000Y-92710000D03*
X300990000Y-92710000D03*
D39*
X309880000Y-95250000D03*
D40*
X307340000Y-90170000D03*
D39*
X299720000Y-95250000D03*
D41*
X304800000Y-95250000D03*
D40*
X326390000Y-90170000D03*
D39*
X328930000Y-95250000D03*
X318770000Y-95250000D03*
D41*
X323850000Y-95250000D03*
D40*
X320040000Y-92710000D03*
D39*
X347980000Y-95250000D03*
D40*
X345440000Y-90170000D03*
X339090000Y-92710000D03*
D39*
X337820000Y-95250000D03*
D41*
X342900000Y-95250000D03*
D40*
X358140000Y-92710000D03*
D39*
X367030000Y-95250000D03*
X356870000Y-95250000D03*
D40*
X364490000Y-90170000D03*
D41*
X361950000Y-95250000D03*
X381000000Y-95250000D03*
D39*
X386080000Y-95250000D03*
D40*
X377190000Y-92710000D03*
X383540000Y-90170000D03*
D39*
X375920000Y-95250000D03*
X394970000Y-95250000D03*
D40*
X402590000Y-90170000D03*
X396240000Y-92710000D03*
D39*
X405130000Y-95250000D03*
D41*
X400050000Y-95250000D03*
D40*
X421640000Y-90170000D03*
D39*
X414020000Y-95250000D03*
D41*
X419100000Y-95250000D03*
D39*
X424180000Y-95250000D03*
D40*
X415290000Y-92710000D03*
D39*
X443230000Y-95250000D03*
D40*
X434340000Y-92710000D03*
D39*
X433070000Y-95250000D03*
D40*
X440690000Y-90170000D03*
D41*
X438150000Y-95250000D03*
D40*
X459740000Y-90170000D03*
X453390000Y-92710000D03*
D39*
X462280000Y-95250000D03*
X452120000Y-95250000D03*
D41*
X457200000Y-95250000D03*
X476250000Y-95250000D03*
D40*
X472440000Y-92710000D03*
D39*
X471170000Y-95250000D03*
D40*
X478790000Y-90170000D03*
D39*
X481330000Y-95250000D03*
D41*
X495300000Y-95250000D03*
D40*
X497840000Y-90170000D03*
D39*
X500380000Y-95250000D03*
X490220000Y-95250000D03*
D40*
X491490000Y-92710000D03*
X510540000Y-92710000D03*
D41*
X514350000Y-95250000D03*
D39*
X509270000Y-95250000D03*
D40*
X516890000Y-90170000D03*
D39*
X519430000Y-95250000D03*
D40*
X40640000Y-109220000D03*
D39*
X43180000Y-114300000D03*
X33020000Y-114300000D03*
D40*
X34290000Y-111760000D03*
D41*
X38100000Y-114300000D03*
D40*
X53340000Y-111760000D03*
D39*
X62230000Y-114300000D03*
D41*
X57150000Y-114300000D03*
D39*
X52070000Y-114300000D03*
D40*
X59690000Y-109220000D03*
D39*
X81280000Y-114300000D03*
X71120000Y-114300000D03*
D41*
X76200000Y-114300000D03*
D40*
X72390000Y-111760000D03*
X78740000Y-109220000D03*
D39*
X90170000Y-114300000D03*
D40*
X97790000Y-109220000D03*
D41*
X95250000Y-114300000D03*
D40*
X91440000Y-111760000D03*
D39*
X100330000Y-114300000D03*
X109220000Y-114300000D03*
X119380000Y-114300000D03*
D40*
X116840000Y-109220000D03*
D41*
X114300000Y-114300000D03*
D40*
X110490000Y-111760000D03*
D39*
X138430000Y-114300000D03*
D41*
X133350000Y-114300000D03*
D40*
X129540000Y-111760000D03*
X135890000Y-109220000D03*
D39*
X128270000Y-114300000D03*
X147320000Y-114300000D03*
D40*
X148590000Y-111760000D03*
X154940000Y-109220000D03*
D39*
X157480000Y-114300000D03*
D41*
X152400000Y-114300000D03*
D39*
X176530000Y-114300000D03*
X166370000Y-114300000D03*
D40*
X173990000Y-109220000D03*
D41*
X171450000Y-114300000D03*
D40*
X167640000Y-111760000D03*
X193040000Y-109220000D03*
D41*
X190500000Y-114300000D03*
D39*
X185420000Y-114300000D03*
D40*
X186690000Y-111760000D03*
D39*
X195580000Y-114300000D03*
X204470000Y-114300000D03*
X214630000Y-114300000D03*
D40*
X205740000Y-111760000D03*
D41*
X209550000Y-114300000D03*
D40*
X212090000Y-109220000D03*
X231140000Y-109220000D03*
D41*
X228600000Y-114300000D03*
D39*
X223520000Y-114300000D03*
D40*
X224790000Y-111760000D03*
D39*
X233680000Y-114300000D03*
X242570000Y-114300000D03*
D40*
X250190000Y-109220000D03*
D39*
X252730000Y-114300000D03*
D41*
X247650000Y-114300000D03*
D40*
X243840000Y-111760000D03*
D39*
X271780000Y-114300000D03*
X261620000Y-114300000D03*
D40*
X262890000Y-111760000D03*
D41*
X266700000Y-114300000D03*
D40*
X269240000Y-109220000D03*
D39*
X290830000Y-114300000D03*
X280670000Y-114300000D03*
D41*
X285750000Y-114300000D03*
D40*
X288290000Y-109220000D03*
X281940000Y-111760000D03*
X307340000Y-109220000D03*
D39*
X299720000Y-114300000D03*
D41*
X304800000Y-114300000D03*
D40*
X300990000Y-111760000D03*
D39*
X309880000Y-114300000D03*
X328930000Y-114300000D03*
X318770000Y-114300000D03*
D40*
X326390000Y-109220000D03*
X320040000Y-111760000D03*
D41*
X323850000Y-114300000D03*
D40*
X339090000Y-111760000D03*
D39*
X337820000Y-114300000D03*
X347980000Y-114300000D03*
D41*
X342900000Y-114300000D03*
D40*
X345440000Y-109220000D03*
X364490000Y-109220000D03*
X358140000Y-111760000D03*
D39*
X367030000Y-114300000D03*
D41*
X361950000Y-114300000D03*
D39*
X356870000Y-114300000D03*
D40*
X377190000Y-111760000D03*
D39*
X386080000Y-114300000D03*
X375920000Y-114300000D03*
D41*
X381000000Y-114300000D03*
D40*
X383540000Y-109220000D03*
D41*
X400050000Y-114300000D03*
D40*
X402590000Y-109220000D03*
D39*
X394970000Y-114300000D03*
X405130000Y-114300000D03*
D40*
X396240000Y-111760000D03*
D39*
X424180000Y-114300000D03*
D41*
X419100000Y-114300000D03*
D40*
X421640000Y-109220000D03*
D39*
X414020000Y-114300000D03*
D40*
X415290000Y-111760000D03*
X440690000Y-109220000D03*
D39*
X443230000Y-114300000D03*
D41*
X438150000Y-114300000D03*
D40*
X434340000Y-111760000D03*
D39*
X433070000Y-114300000D03*
D40*
X459740000Y-109220000D03*
D41*
X457200000Y-114300000D03*
D39*
X462280000Y-114300000D03*
D40*
X453390000Y-111760000D03*
D39*
X452120000Y-114300000D03*
D40*
X472440000Y-111760000D03*
D41*
X476250000Y-114300000D03*
D40*
X478790000Y-109220000D03*
D39*
X471170000Y-114300000D03*
X481330000Y-114300000D03*
X500380000Y-114300000D03*
X490220000Y-114300000D03*
D40*
X497840000Y-109220000D03*
D41*
X495300000Y-114300000D03*
D40*
X491490000Y-111760000D03*
X516890000Y-109220000D03*
D39*
X519430000Y-114300000D03*
D41*
X514350000Y-114300000D03*
D40*
X510540000Y-111760000D03*
D39*
X509270000Y-114300000D03*
X33020000Y-133350000D03*
D40*
X34290000Y-130810000D03*
D39*
X43180000Y-133350000D03*
D41*
X38100000Y-133350000D03*
D40*
X40640000Y-128270000D03*
D41*
X57150000Y-133350000D03*
D40*
X53340000Y-130810000D03*
D39*
X52070000Y-133350000D03*
D40*
X59690000Y-128270000D03*
D39*
X62230000Y-133350000D03*
X71120000Y-133350000D03*
X81280000Y-133350000D03*
D40*
X72390000Y-130810000D03*
D41*
X76200000Y-133350000D03*
D40*
X78740000Y-128270000D03*
X91440000Y-130810000D03*
D39*
X100330000Y-133350000D03*
D41*
X95250000Y-133350000D03*
D39*
X90170000Y-133350000D03*
D40*
X97790000Y-128270000D03*
D41*
X114300000Y-133350000D03*
D40*
X110490000Y-130810000D03*
X116840000Y-128270000D03*
D39*
X119380000Y-133350000D03*
X109220000Y-133350000D03*
D40*
X129540000Y-130810000D03*
X135890000Y-128270000D03*
D41*
X133350000Y-133350000D03*
D39*
X138430000Y-133350000D03*
X128270000Y-133350000D03*
X147320000Y-133350000D03*
D41*
X152400000Y-133350000D03*
D39*
X157480000Y-133350000D03*
D40*
X154940000Y-128270000D03*
X148590000Y-130810000D03*
X167640000Y-130810000D03*
D39*
X176530000Y-133350000D03*
X166370000Y-133350000D03*
D41*
X171450000Y-133350000D03*
D40*
X173990000Y-128270000D03*
D41*
X190500000Y-133350000D03*
D40*
X186690000Y-130810000D03*
D39*
X185420000Y-133350000D03*
D40*
X193040000Y-128270000D03*
D39*
X195580000Y-133350000D03*
X214630000Y-133350000D03*
D40*
X205740000Y-130810000D03*
X212090000Y-128270000D03*
D41*
X209550000Y-133350000D03*
D39*
X204470000Y-133350000D03*
D40*
X231140000Y-128270000D03*
X224790000Y-130810000D03*
D39*
X233680000Y-133350000D03*
X223520000Y-133350000D03*
D41*
X228600000Y-133350000D03*
D39*
X242570000Y-133350000D03*
D40*
X243840000Y-130810000D03*
D41*
X247650000Y-133350000D03*
D40*
X250190000Y-128270000D03*
D39*
X252730000Y-133350000D03*
X271780000Y-133350000D03*
D40*
X262890000Y-130810000D03*
D39*
X261620000Y-133350000D03*
D40*
X269240000Y-128270000D03*
D41*
X266700000Y-133350000D03*
X285750000Y-133350000D03*
D39*
X290830000Y-133350000D03*
D40*
X281940000Y-130810000D03*
X288290000Y-128270000D03*
D39*
X280670000Y-133350000D03*
D40*
X300990000Y-130810000D03*
D39*
X309880000Y-133350000D03*
D41*
X304800000Y-133350000D03*
D40*
X307340000Y-128270000D03*
D39*
X299720000Y-133350000D03*
D41*
X323850000Y-133350000D03*
D40*
X320040000Y-130810000D03*
X326390000Y-128270000D03*
D39*
X328930000Y-133350000D03*
X318770000Y-133350000D03*
X337820000Y-133350000D03*
X347980000Y-133350000D03*
D40*
X339090000Y-130810000D03*
D41*
X342900000Y-133350000D03*
D40*
X345440000Y-128270000D03*
X364490000Y-128270000D03*
X358140000Y-130810000D03*
D39*
X356870000Y-133350000D03*
X367030000Y-133350000D03*
D41*
X361950000Y-133350000D03*
X381000000Y-133350000D03*
D40*
X383540000Y-128270000D03*
D39*
X386080000Y-133350000D03*
D40*
X377190000Y-130810000D03*
D39*
X375920000Y-133350000D03*
D40*
X402590000Y-128270000D03*
D39*
X405130000Y-133350000D03*
X394970000Y-133350000D03*
D41*
X400050000Y-133350000D03*
D40*
X396240000Y-130810000D03*
X421640000Y-128270000D03*
D39*
X414020000Y-133350000D03*
D40*
X415290000Y-130810000D03*
D41*
X419100000Y-133350000D03*
D39*
X424180000Y-133350000D03*
X433070000Y-133350000D03*
D40*
X440690000Y-128270000D03*
X434340000Y-130810000D03*
D41*
X438150000Y-133350000D03*
D39*
X443230000Y-133350000D03*
X452120000Y-133350000D03*
D40*
X453390000Y-130810000D03*
D41*
X457200000Y-133350000D03*
D39*
X462280000Y-133350000D03*
D40*
X459740000Y-128270000D03*
D41*
X476250000Y-133350000D03*
D39*
X481330000Y-133350000D03*
D40*
X472440000Y-130810000D03*
X478790000Y-128270000D03*
D39*
X471170000Y-133350000D03*
X500380000Y-133350000D03*
D41*
X495300000Y-133350000D03*
D40*
X497840000Y-128270000D03*
X491490000Y-130810000D03*
D39*
X490220000Y-133350000D03*
D40*
X510540000Y-130810000D03*
D39*
X509270000Y-133350000D03*
D40*
X516890000Y-128270000D03*
D41*
X514350000Y-133350000D03*
D39*
X519430000Y-133350000D03*
D40*
X34290000Y-149860000D03*
D39*
X43180000Y-152400000D03*
X33020000Y-152400000D03*
D41*
X38100000Y-152400000D03*
D40*
X40640000Y-147320000D03*
D39*
X52070000Y-152400000D03*
D40*
X59690000Y-147320000D03*
X53340000Y-149860000D03*
D41*
X57150000Y-152400000D03*
D39*
X62230000Y-152400000D03*
X71120000Y-152400000D03*
D41*
X76200000Y-152400000D03*
D40*
X78740000Y-147320000D03*
X72390000Y-149860000D03*
D39*
X81280000Y-152400000D03*
D40*
X91440000Y-149860000D03*
D41*
X95250000Y-152400000D03*
D39*
X90170000Y-152400000D03*
X100330000Y-152400000D03*
D40*
X97790000Y-147320000D03*
D39*
X119380000Y-152400000D03*
D41*
X114300000Y-152400000D03*
D39*
X109220000Y-152400000D03*
D40*
X116840000Y-147320000D03*
X110490000Y-149860000D03*
D39*
X128270000Y-152400000D03*
D40*
X135890000Y-147320000D03*
D41*
X133350000Y-152400000D03*
D40*
X129540000Y-149860000D03*
D39*
X138430000Y-152400000D03*
D40*
X154940000Y-147320000D03*
D41*
X152400000Y-152400000D03*
D39*
X157480000Y-152400000D03*
X147320000Y-152400000D03*
D40*
X148590000Y-149860000D03*
D39*
X166370000Y-152400000D03*
D41*
X171450000Y-152400000D03*
D40*
X167640000Y-149860000D03*
D39*
X176530000Y-152400000D03*
D40*
X173990000Y-147320000D03*
D39*
X185420000Y-152400000D03*
X195580000Y-152400000D03*
D41*
X190500000Y-152400000D03*
D40*
X193040000Y-147320000D03*
X186690000Y-149860000D03*
X212090000Y-147320000D03*
D39*
X214630000Y-152400000D03*
X204470000Y-152400000D03*
D40*
X205740000Y-149860000D03*
D41*
X209550000Y-152400000D03*
X228600000Y-152400000D03*
D39*
X223520000Y-152400000D03*
D40*
X231140000Y-147320000D03*
X224790000Y-149860000D03*
D39*
X233680000Y-152400000D03*
X242570000Y-152400000D03*
X252730000Y-152400000D03*
D41*
X247650000Y-152400000D03*
D40*
X243840000Y-149860000D03*
X250190000Y-147320000D03*
X262890000Y-149860000D03*
D39*
X271780000Y-152400000D03*
D41*
X266700000Y-152400000D03*
D39*
X261620000Y-152400000D03*
D40*
X269240000Y-147320000D03*
X288290000Y-147320000D03*
D39*
X290830000Y-152400000D03*
D41*
X285750000Y-152400000D03*
D39*
X280670000Y-152400000D03*
D40*
X281940000Y-149860000D03*
X300990000Y-149860000D03*
D39*
X299720000Y-152400000D03*
D40*
X307340000Y-147320000D03*
D39*
X309880000Y-152400000D03*
D41*
X304800000Y-152400000D03*
D39*
X328930000Y-152400000D03*
D41*
X323850000Y-152400000D03*
D40*
X320040000Y-149860000D03*
D39*
X318770000Y-152400000D03*
D40*
X326390000Y-147320000D03*
D39*
X347980000Y-152400000D03*
D40*
X345440000Y-147320000D03*
D39*
X337820000Y-152400000D03*
D41*
X342900000Y-152400000D03*
D40*
X339090000Y-149860000D03*
D39*
X367030000Y-152400000D03*
D40*
X358140000Y-149860000D03*
X364490000Y-147320000D03*
D39*
X356870000Y-152400000D03*
D41*
X361950000Y-152400000D03*
D40*
X377190000Y-149860000D03*
D39*
X386080000Y-152400000D03*
X375920000Y-152400000D03*
D41*
X381000000Y-152400000D03*
D40*
X383540000Y-147320000D03*
X402590000Y-147320000D03*
D39*
X394970000Y-152400000D03*
D41*
X400050000Y-152400000D03*
D40*
X396240000Y-149860000D03*
D39*
X405130000Y-152400000D03*
X414020000Y-152400000D03*
X424180000Y-152400000D03*
D40*
X421640000Y-147320000D03*
D41*
X419100000Y-152400000D03*
D40*
X415290000Y-149860000D03*
D41*
X438150000Y-152400000D03*
D40*
X434340000Y-149860000D03*
X440690000Y-147320000D03*
D39*
X433070000Y-152400000D03*
X443230000Y-152400000D03*
D41*
X457200000Y-152400000D03*
D39*
X462280000Y-152400000D03*
X452120000Y-152400000D03*
D40*
X459740000Y-147320000D03*
X453390000Y-149860000D03*
D39*
X481330000Y-152400000D03*
X471170000Y-152400000D03*
D40*
X478790000Y-147320000D03*
D41*
X476250000Y-152400000D03*
D40*
X472440000Y-149860000D03*
X491490000Y-149860000D03*
X497840000Y-147320000D03*
D39*
X500380000Y-152400000D03*
X490220000Y-152400000D03*
D41*
X495300000Y-152400000D03*
D40*
X516890000Y-147320000D03*
X510540000Y-149860000D03*
D39*
X509270000Y-152400000D03*
D41*
X514350000Y-152400000D03*
D39*
X519430000Y-152400000D03*
X43180000Y-171450000D03*
D40*
X34290000Y-168910000D03*
D39*
X33020000Y-171450000D03*
D41*
X38100000Y-171450000D03*
D40*
X40640000Y-166370000D03*
D39*
X62230000Y-171450000D03*
D41*
X57150000Y-171450000D03*
D39*
X52070000Y-171450000D03*
D40*
X53340000Y-168910000D03*
X59690000Y-166370000D03*
X72390000Y-168910000D03*
X78740000Y-166370000D03*
D39*
X71120000Y-171450000D03*
X81280000Y-171450000D03*
D41*
X76200000Y-171450000D03*
D40*
X91440000Y-168910000D03*
X97790000Y-166370000D03*
D39*
X100330000Y-171450000D03*
X90170000Y-171450000D03*
D41*
X95250000Y-171450000D03*
D40*
X116840000Y-166370000D03*
D41*
X114300000Y-171450000D03*
D39*
X109220000Y-171450000D03*
D40*
X110490000Y-168910000D03*
D39*
X119380000Y-171450000D03*
D40*
X135890000Y-166370000D03*
D41*
X133350000Y-171450000D03*
D39*
X138430000Y-171450000D03*
D40*
X129540000Y-168910000D03*
D39*
X128270000Y-171450000D03*
D40*
X154940000Y-166370000D03*
D41*
X152400000Y-171450000D03*
D39*
X157480000Y-171450000D03*
D40*
X148590000Y-168910000D03*
D39*
X147320000Y-171450000D03*
D41*
X171450000Y-171450000D03*
D40*
X173990000Y-166370000D03*
X167640000Y-168910000D03*
D39*
X176530000Y-171450000D03*
X166370000Y-171450000D03*
D40*
X186690000Y-168910000D03*
D41*
X190500000Y-171450000D03*
D39*
X185420000Y-171450000D03*
D40*
X193040000Y-166370000D03*
D39*
X195580000Y-171450000D03*
D41*
X209550000Y-171450000D03*
D40*
X205740000Y-168910000D03*
X212090000Y-166370000D03*
D39*
X204470000Y-171450000D03*
X214630000Y-171450000D03*
D41*
X228600000Y-171450000D03*
D39*
X233680000Y-171450000D03*
X223520000Y-171450000D03*
D40*
X231140000Y-166370000D03*
X224790000Y-168910000D03*
D41*
X247650000Y-171450000D03*
D39*
X252730000Y-171450000D03*
X242570000Y-171450000D03*
D40*
X243840000Y-168910000D03*
X250190000Y-166370000D03*
X262890000Y-168910000D03*
D41*
X266700000Y-171450000D03*
D40*
X269240000Y-166370000D03*
D39*
X261620000Y-171450000D03*
X271780000Y-171450000D03*
D41*
X285750000Y-171450000D03*
D40*
X281940000Y-168910000D03*
X288290000Y-166370000D03*
D39*
X290830000Y-171450000D03*
X280670000Y-171450000D03*
D40*
X300990000Y-168910000D03*
X307340000Y-166370000D03*
D41*
X304800000Y-171450000D03*
D39*
X309880000Y-171450000D03*
X299720000Y-171450000D03*
D40*
X326390000Y-166370000D03*
D39*
X318770000Y-171450000D03*
D41*
X323850000Y-171450000D03*
D39*
X328930000Y-171450000D03*
D40*
X320040000Y-168910000D03*
D39*
X337820000Y-171450000D03*
D41*
X342900000Y-171450000D03*
D40*
X339090000Y-168910000D03*
X345440000Y-166370000D03*
D39*
X347980000Y-171450000D03*
X367030000Y-171450000D03*
D40*
X358140000Y-168910000D03*
D39*
X356870000Y-171450000D03*
D40*
X364490000Y-166370000D03*
D41*
X361950000Y-171450000D03*
D39*
X386080000Y-171450000D03*
D41*
X381000000Y-171450000D03*
D40*
X377190000Y-168910000D03*
X383540000Y-166370000D03*
D39*
X375920000Y-171450000D03*
D40*
X396240000Y-168910000D03*
D39*
X394970000Y-171450000D03*
D40*
X402590000Y-166370000D03*
D39*
X405130000Y-171450000D03*
D41*
X400050000Y-171450000D03*
D40*
X415290000Y-168910000D03*
D41*
X419100000Y-171450000D03*
D39*
X414020000Y-171450000D03*
D40*
X421640000Y-166370000D03*
D39*
X424180000Y-171450000D03*
X433070000Y-171450000D03*
D40*
X440690000Y-166370000D03*
X434340000Y-168910000D03*
D39*
X443230000Y-171450000D03*
D41*
X438150000Y-171450000D03*
D39*
X462280000Y-171450000D03*
D40*
X459740000Y-166370000D03*
X453390000Y-168910000D03*
D41*
X457200000Y-171450000D03*
D39*
X452120000Y-171450000D03*
X471170000Y-171450000D03*
D41*
X476250000Y-171450000D03*
D40*
X472440000Y-168910000D03*
X478790000Y-166370000D03*
D39*
X481330000Y-171450000D03*
D41*
X495300000Y-171450000D03*
D40*
X497840000Y-166370000D03*
D39*
X500380000Y-171450000D03*
X490220000Y-171450000D03*
D40*
X491490000Y-168910000D03*
D42*
X482600000Y-32265500D03*
D33*
X480060000Y-32265500D03*
X482600000Y-34805500D03*
X480060000Y-34805500D03*
X482600000Y-37345500D03*
X480060000Y-37345500D03*
D41*
X514350000Y-171450000D03*
D40*
X516890000Y-166370000D03*
X510540000Y-168910000D03*
D39*
X509270000Y-171450000D03*
X519430000Y-171450000D03*
G36*
X468566677Y-32059659D02*
G01*
X468567350Y-32060984D01*
X468572816Y-32122061D01*
X468615304Y-32176755D01*
X468680778Y-32199852D01*
X468692212Y-32199034D01*
X468694011Y-32199908D01*
X468694154Y-32201903D01*
X468692745Y-32202991D01*
X468677828Y-32205959D01*
X468641500Y-32230232D01*
X468111450Y-32760282D01*
X468087177Y-32796610D01*
X468078692Y-32839265D01*
X468087177Y-32881920D01*
X468111450Y-32918247D01*
X468199559Y-33006356D01*
X468235886Y-33030629D01*
X468278541Y-33039114D01*
X468321196Y-33030629D01*
X468357524Y-33006356D01*
X468887574Y-32476306D01*
X468911847Y-32439978D01*
X468916950Y-32414327D01*
X468918269Y-32412823D01*
X468920231Y-32413213D01*
X468920904Y-32414539D01*
X468926370Y-32475615D01*
X468968858Y-32530309D01*
X469034332Y-32553406D01*
X469045764Y-32552588D01*
X469047563Y-32553462D01*
X469047706Y-32555457D01*
X469046297Y-32556545D01*
X469031381Y-32559513D01*
X468995053Y-32583786D01*
X468465003Y-33113836D01*
X468440730Y-33150164D01*
X468432245Y-33192819D01*
X468440730Y-33235474D01*
X468465003Y-33271801D01*
X468553112Y-33359910D01*
X468589439Y-33384183D01*
X468632094Y-33392668D01*
X468674749Y-33384183D01*
X468711077Y-33359910D01*
X469241127Y-32829860D01*
X469265400Y-32793532D01*
X469270503Y-32767881D01*
X469271822Y-32766377D01*
X469273784Y-32766767D01*
X469274457Y-32768093D01*
X469279923Y-32829168D01*
X469322410Y-32883861D01*
X469387884Y-32906959D01*
X469399317Y-32906141D01*
X469401116Y-32907015D01*
X469401259Y-32909010D01*
X469399850Y-32910098D01*
X469384934Y-32913066D01*
X469348606Y-32937339D01*
X468818556Y-33467389D01*
X468794283Y-33503717D01*
X468785798Y-33546372D01*
X468794283Y-33589027D01*
X468818556Y-33625354D01*
X468906665Y-33713463D01*
X468942992Y-33737736D01*
X468985647Y-33746221D01*
X469028302Y-33737736D01*
X469064630Y-33713463D01*
X469594680Y-33183413D01*
X469618953Y-33147085D01*
X469624056Y-33121434D01*
X469625375Y-33119930D01*
X469627337Y-33120320D01*
X469628010Y-33121646D01*
X469633476Y-33182721D01*
X469675963Y-33237414D01*
X469741437Y-33260512D01*
X469752872Y-33259694D01*
X469754671Y-33260568D01*
X469754814Y-33262563D01*
X469753405Y-33263651D01*
X469738488Y-33266619D01*
X469702160Y-33290892D01*
X469172110Y-33820942D01*
X469147837Y-33857270D01*
X469139352Y-33899925D01*
X469147837Y-33942580D01*
X469172110Y-33978907D01*
X469260219Y-34067016D01*
X469296546Y-34091289D01*
X469339201Y-34099774D01*
X469381856Y-34091289D01*
X469418184Y-34067016D01*
X469948234Y-33536966D01*
X469972507Y-33500638D01*
X469977610Y-33474987D01*
X469978929Y-33473483D01*
X469980891Y-33473873D01*
X469981564Y-33475199D01*
X469987030Y-33536275D01*
X470029518Y-33590969D01*
X470094992Y-33614066D01*
X470106424Y-33613248D01*
X470108223Y-33614122D01*
X470108366Y-33616117D01*
X470106957Y-33617205D01*
X470092041Y-33620173D01*
X470055713Y-33644446D01*
X469525663Y-34174496D01*
X469501390Y-34210824D01*
X469492905Y-34253479D01*
X469501390Y-34296134D01*
X469525663Y-34332461D01*
X469613772Y-34420570D01*
X469650099Y-34444843D01*
X469692754Y-34453328D01*
X469735409Y-34444843D01*
X469771737Y-34420570D01*
X470301787Y-33890520D01*
X470326060Y-33854192D01*
X470331163Y-33828541D01*
X470332482Y-33827037D01*
X470334444Y-33827427D01*
X470335117Y-33828753D01*
X470340583Y-33889828D01*
X470383070Y-33944521D01*
X470448544Y-33967619D01*
X470459979Y-33966801D01*
X470461778Y-33967675D01*
X470461921Y-33969670D01*
X470460512Y-33970758D01*
X470445595Y-33973726D01*
X470409267Y-33997999D01*
X469879217Y-34528049D01*
X469854944Y-34564377D01*
X469846459Y-34607032D01*
X469854944Y-34649687D01*
X469879217Y-34686014D01*
X469967326Y-34774123D01*
X470003653Y-34798396D01*
X470046308Y-34806881D01*
X470088963Y-34798396D01*
X470125291Y-34774123D01*
X470655341Y-34244073D01*
X470679614Y-34207745D01*
X470684717Y-34182094D01*
X470686036Y-34180590D01*
X470687998Y-34180980D01*
X470688671Y-34182306D01*
X470694137Y-34243382D01*
X470736625Y-34298076D01*
X470802099Y-34321173D01*
X470813531Y-34320355D01*
X470815330Y-34321229D01*
X470815473Y-34323224D01*
X470814064Y-34324312D01*
X470799148Y-34327280D01*
X470762820Y-34351553D01*
X470232770Y-34881603D01*
X470208497Y-34917931D01*
X470200012Y-34960586D01*
X470208497Y-35003241D01*
X470232770Y-35039568D01*
X470320879Y-35127677D01*
X470357206Y-35151950D01*
X470399861Y-35160435D01*
X470442516Y-35151950D01*
X470478844Y-35127677D01*
X471008894Y-34597627D01*
X471033167Y-34561299D01*
X471038270Y-34535648D01*
X471039589Y-34534144D01*
X471041551Y-34534534D01*
X471042224Y-34535860D01*
X471047690Y-34596935D01*
X471090177Y-34651628D01*
X471155651Y-34674726D01*
X471167084Y-34673908D01*
X471168883Y-34674782D01*
X471169026Y-34676777D01*
X471167617Y-34677865D01*
X471152701Y-34680833D01*
X471116373Y-34705106D01*
X470586323Y-35235156D01*
X470562050Y-35271484D01*
X470553565Y-35314139D01*
X470562050Y-35356794D01*
X470586323Y-35393121D01*
X470674432Y-35481230D01*
X470710759Y-35505503D01*
X470753414Y-35513988D01*
X470796069Y-35505503D01*
X470832397Y-35481230D01*
X471362447Y-34951180D01*
X471386720Y-34914852D01*
X471391823Y-34889201D01*
X471393142Y-34887697D01*
X471395104Y-34888087D01*
X471395777Y-34889413D01*
X471401243Y-34950488D01*
X471443730Y-35005181D01*
X471509204Y-35028279D01*
X471520639Y-35027461D01*
X471522438Y-35028335D01*
X471522581Y-35030330D01*
X471521172Y-35031418D01*
X471506255Y-35034386D01*
X471469927Y-35058659D01*
X470939877Y-35588709D01*
X470915604Y-35625037D01*
X470907119Y-35667692D01*
X470915604Y-35710347D01*
X470939877Y-35746674D01*
X471027986Y-35834783D01*
X471064313Y-35859056D01*
X471106968Y-35867541D01*
X471149623Y-35859056D01*
X471185951Y-35834783D01*
X471716001Y-35304733D01*
X471740274Y-35268405D01*
X471745377Y-35242754D01*
X471746696Y-35241250D01*
X471748658Y-35241640D01*
X471749331Y-35242966D01*
X471754797Y-35304042D01*
X471797285Y-35358736D01*
X471862759Y-35381833D01*
X471874191Y-35381015D01*
X471875990Y-35381889D01*
X471876133Y-35383884D01*
X471874724Y-35384972D01*
X471859808Y-35387940D01*
X471823480Y-35412213D01*
X471293430Y-35942263D01*
X471269157Y-35978591D01*
X471260672Y-36021246D01*
X471269157Y-36063901D01*
X471293430Y-36100228D01*
X471381539Y-36188337D01*
X471417866Y-36212610D01*
X471460521Y-36221095D01*
X471503176Y-36212610D01*
X471539504Y-36188337D01*
X472069554Y-35658287D01*
X472093827Y-35621959D01*
X472098930Y-35596308D01*
X472100249Y-35594804D01*
X472102211Y-35595194D01*
X472102884Y-35596520D01*
X472108350Y-35657595D01*
X472150837Y-35712288D01*
X472216311Y-35735386D01*
X472227746Y-35734568D01*
X472229545Y-35735442D01*
X472229688Y-35737437D01*
X472228279Y-35738525D01*
X472213362Y-35741493D01*
X472177034Y-35765766D01*
X471646984Y-36295816D01*
X471622711Y-36332144D01*
X471614226Y-36374799D01*
X471622711Y-36417454D01*
X471646984Y-36453781D01*
X471735093Y-36541890D01*
X471771420Y-36566163D01*
X471814075Y-36574648D01*
X471856730Y-36566163D01*
X471893058Y-36541890D01*
X472423108Y-36011840D01*
X472447381Y-35975512D01*
X472452484Y-35949861D01*
X472453803Y-35948357D01*
X472455765Y-35948747D01*
X472456438Y-35950073D01*
X472461904Y-36011149D01*
X472504392Y-36065843D01*
X472569866Y-36088940D01*
X472581298Y-36088122D01*
X472583097Y-36088996D01*
X472583240Y-36090991D01*
X472581831Y-36092079D01*
X472566915Y-36095047D01*
X472530587Y-36119320D01*
X472000537Y-36649370D01*
X471976264Y-36685698D01*
X471967779Y-36728353D01*
X471976264Y-36771008D01*
X472000537Y-36807335D01*
X472088646Y-36895444D01*
X472124973Y-36919717D01*
X472167628Y-36928202D01*
X472210283Y-36919717D01*
X472246611Y-36895444D01*
X472776661Y-36365394D01*
X472800934Y-36329066D01*
X472806037Y-36303415D01*
X472807356Y-36301911D01*
X472809318Y-36302301D01*
X472809991Y-36303627D01*
X472815457Y-36364702D01*
X472857944Y-36419395D01*
X472923418Y-36442493D01*
X472934851Y-36441675D01*
X472936650Y-36442549D01*
X472936793Y-36444544D01*
X472935384Y-36445632D01*
X472920468Y-36448600D01*
X472884140Y-36472873D01*
X472354090Y-37002923D01*
X472329817Y-37039251D01*
X472321332Y-37081906D01*
X472329817Y-37124561D01*
X472354090Y-37160888D01*
X472442199Y-37248997D01*
X472478526Y-37273270D01*
X472521181Y-37281755D01*
X472563836Y-37273270D01*
X472600164Y-37248997D01*
X473130214Y-36718947D01*
X473154487Y-36682619D01*
X473159590Y-36656968D01*
X473160909Y-36655464D01*
X473162871Y-36655854D01*
X473163544Y-36657180D01*
X473169010Y-36718255D01*
X473211497Y-36772948D01*
X473276971Y-36796046D01*
X473288406Y-36795228D01*
X473290205Y-36796102D01*
X473290348Y-36798097D01*
X473288939Y-36799185D01*
X473274022Y-36802153D01*
X473237694Y-36826426D01*
X472707644Y-37356476D01*
X472683371Y-37392804D01*
X472674886Y-37435459D01*
X472683371Y-37478114D01*
X472707644Y-37514441D01*
X472795753Y-37602550D01*
X472832080Y-37626823D01*
X472874735Y-37635308D01*
X472917390Y-37626823D01*
X472953718Y-37602550D01*
X473483768Y-37072500D01*
X473508041Y-37036172D01*
X473513144Y-37010521D01*
X473514463Y-37009017D01*
X473516425Y-37009407D01*
X473517098Y-37010733D01*
X473522564Y-37071809D01*
X473565052Y-37126503D01*
X473630526Y-37149600D01*
X473647370Y-37148395D01*
X473649169Y-37149269D01*
X473649312Y-37151264D01*
X473648278Y-37152238D01*
X473607466Y-37169144D01*
X473591248Y-37179981D01*
X473061198Y-37710031D01*
X473050361Y-37726249D01*
X473032206Y-37770078D01*
X473028440Y-37789013D01*
X473032206Y-37807948D01*
X473050361Y-37851777D01*
X473061198Y-37867995D01*
X473104484Y-37911281D01*
X473120702Y-37922118D01*
X473164531Y-37940273D01*
X473183665Y-37944079D01*
X473272911Y-37944079D01*
X473292045Y-37940273D01*
X473324684Y-37926753D01*
X473326666Y-37927014D01*
X473327432Y-37928862D01*
X473326560Y-37930264D01*
X473320865Y-37934070D01*
X473276258Y-37987447D01*
X473267628Y-38056163D01*
X473297593Y-38118792D01*
X473320727Y-38138838D01*
X473326560Y-38142736D01*
X473327445Y-38144530D01*
X473326333Y-38146193D01*
X473324684Y-38146247D01*
X473292045Y-38132727D01*
X473272911Y-38128921D01*
X473183665Y-38128921D01*
X473164531Y-38132727D01*
X473120702Y-38150882D01*
X473104484Y-38161719D01*
X473061198Y-38205005D01*
X473050361Y-38221223D01*
X473032206Y-38265052D01*
X473028440Y-38283987D01*
X473032206Y-38302922D01*
X473050361Y-38346751D01*
X473061198Y-38362969D01*
X473591248Y-38893019D01*
X473607466Y-38903856D01*
X473651295Y-38922011D01*
X473653228Y-38922396D01*
X473654732Y-38923715D01*
X473654341Y-38925677D01*
X473653016Y-38926350D01*
X473591939Y-38931816D01*
X473537245Y-38974304D01*
X473514148Y-39039778D01*
X473514966Y-39051212D01*
X473514092Y-39053011D01*
X473512097Y-39053154D01*
X473511009Y-39051745D01*
X473508041Y-39036828D01*
X473483768Y-39000500D01*
X472953718Y-38470450D01*
X472917390Y-38446177D01*
X472874735Y-38437692D01*
X472832080Y-38446177D01*
X472795753Y-38470450D01*
X472707644Y-38558559D01*
X472683371Y-38594886D01*
X472674886Y-38637541D01*
X472683371Y-38680196D01*
X472707644Y-38716524D01*
X473237694Y-39246574D01*
X473274022Y-39270847D01*
X473299673Y-39275950D01*
X473301177Y-39277269D01*
X473300787Y-39279231D01*
X473299461Y-39279904D01*
X473238385Y-39285370D01*
X473183691Y-39327858D01*
X473160594Y-39393332D01*
X473161412Y-39404764D01*
X473160538Y-39406563D01*
X473158543Y-39406706D01*
X473157455Y-39405297D01*
X473154487Y-39390381D01*
X473130214Y-39354053D01*
X472600164Y-38824003D01*
X472563836Y-38799730D01*
X472521181Y-38791245D01*
X472478526Y-38799730D01*
X472442199Y-38824003D01*
X472354090Y-38912112D01*
X472329817Y-38948439D01*
X472321332Y-38991094D01*
X472329817Y-39033749D01*
X472354090Y-39070077D01*
X472884140Y-39600127D01*
X472920468Y-39624400D01*
X472946119Y-39629503D01*
X472947623Y-39630822D01*
X472947233Y-39632784D01*
X472945907Y-39633457D01*
X472884832Y-39638923D01*
X472830139Y-39681410D01*
X472807041Y-39746884D01*
X472807859Y-39758317D01*
X472806985Y-39760116D01*
X472804990Y-39760259D01*
X472803902Y-39758850D01*
X472800934Y-39743934D01*
X472776661Y-39707606D01*
X472246611Y-39177556D01*
X472210283Y-39153283D01*
X472167628Y-39144798D01*
X472124973Y-39153283D01*
X472088646Y-39177556D01*
X472000537Y-39265665D01*
X471976264Y-39301992D01*
X471967779Y-39344647D01*
X471976264Y-39387302D01*
X472000537Y-39423630D01*
X472530587Y-39953680D01*
X472566915Y-39977953D01*
X472592566Y-39983056D01*
X472594070Y-39984375D01*
X472593680Y-39986337D01*
X472592354Y-39987010D01*
X472531279Y-39992476D01*
X472476586Y-40034963D01*
X472453488Y-40100437D01*
X472454306Y-40111872D01*
X472453432Y-40113671D01*
X472451437Y-40113814D01*
X472450349Y-40112405D01*
X472447381Y-40097488D01*
X472423108Y-40061160D01*
X471893058Y-39531110D01*
X471856730Y-39506837D01*
X471814075Y-39498352D01*
X471771420Y-39506837D01*
X471735093Y-39531110D01*
X471646984Y-39619219D01*
X471622711Y-39655546D01*
X471614226Y-39698201D01*
X471622711Y-39740856D01*
X471646984Y-39777184D01*
X472177034Y-40307234D01*
X472213362Y-40331507D01*
X472239013Y-40336610D01*
X472240517Y-40337929D01*
X472240127Y-40339891D01*
X472238801Y-40340564D01*
X472177725Y-40346030D01*
X472123031Y-40388518D01*
X472099934Y-40453992D01*
X472100752Y-40465424D01*
X472099878Y-40467223D01*
X472097883Y-40467366D01*
X472096795Y-40465957D01*
X472093827Y-40451041D01*
X472069554Y-40414713D01*
X471539504Y-39884663D01*
X471503176Y-39860390D01*
X471460521Y-39851905D01*
X471417866Y-39860390D01*
X471381539Y-39884663D01*
X471293430Y-39972772D01*
X471269157Y-40009099D01*
X471260672Y-40051754D01*
X471269157Y-40094409D01*
X471293430Y-40130737D01*
X471823480Y-40660787D01*
X471859808Y-40685060D01*
X471885459Y-40690163D01*
X471886963Y-40691482D01*
X471886573Y-40693444D01*
X471885247Y-40694117D01*
X471824172Y-40699583D01*
X471769479Y-40742070D01*
X471746381Y-40807544D01*
X471747199Y-40818979D01*
X471746325Y-40820778D01*
X471744330Y-40820921D01*
X471743242Y-40819512D01*
X471740274Y-40804595D01*
X471716001Y-40768267D01*
X471185951Y-40238217D01*
X471149623Y-40213944D01*
X471106968Y-40205459D01*
X471064313Y-40213944D01*
X471027986Y-40238217D01*
X470939877Y-40326326D01*
X470915604Y-40362653D01*
X470907119Y-40405308D01*
X470915604Y-40447963D01*
X470939877Y-40484291D01*
X471469927Y-41014341D01*
X471506255Y-41038614D01*
X471531906Y-41043717D01*
X471533410Y-41045036D01*
X471533020Y-41046998D01*
X471531694Y-41047671D01*
X471470618Y-41053137D01*
X471415924Y-41095625D01*
X471392827Y-41161099D01*
X471393645Y-41172531D01*
X471392771Y-41174330D01*
X471390776Y-41174473D01*
X471389688Y-41173064D01*
X471386720Y-41158148D01*
X471362447Y-41121820D01*
X470832397Y-40591770D01*
X470796069Y-40567497D01*
X470753414Y-40559012D01*
X470710759Y-40567497D01*
X470674432Y-40591770D01*
X470586323Y-40679879D01*
X470562050Y-40716206D01*
X470553565Y-40758861D01*
X470562050Y-40801516D01*
X470586323Y-40837844D01*
X471116373Y-41367894D01*
X471152701Y-41392167D01*
X471178352Y-41397270D01*
X471179856Y-41398589D01*
X471179466Y-41400551D01*
X471178140Y-41401224D01*
X471117065Y-41406690D01*
X471062372Y-41449177D01*
X471039274Y-41514651D01*
X471040092Y-41526084D01*
X471039218Y-41527883D01*
X471037223Y-41528026D01*
X471036135Y-41526617D01*
X471033167Y-41511701D01*
X471008894Y-41475373D01*
X470478844Y-40945323D01*
X470442516Y-40921050D01*
X470399861Y-40912565D01*
X470357206Y-40921050D01*
X470320879Y-40945323D01*
X470232770Y-41033432D01*
X470208497Y-41069759D01*
X470200012Y-41112414D01*
X470208497Y-41155069D01*
X470232770Y-41191397D01*
X470762820Y-41721447D01*
X470799148Y-41745720D01*
X470824799Y-41750823D01*
X470826303Y-41752142D01*
X470825913Y-41754104D01*
X470824587Y-41754777D01*
X470763512Y-41760243D01*
X470708819Y-41802730D01*
X470685721Y-41868204D01*
X470686539Y-41879639D01*
X470685665Y-41881438D01*
X470683670Y-41881581D01*
X470682582Y-41880172D01*
X470679614Y-41865255D01*
X470655341Y-41828927D01*
X470125291Y-41298877D01*
X470088963Y-41274604D01*
X470046308Y-41266119D01*
X470003653Y-41274604D01*
X469967326Y-41298877D01*
X469879217Y-41386986D01*
X469854944Y-41423313D01*
X469846459Y-41465968D01*
X469854944Y-41508623D01*
X469879217Y-41544951D01*
X470409267Y-42075001D01*
X470445595Y-42099274D01*
X470471246Y-42104377D01*
X470472750Y-42105696D01*
X470472360Y-42107658D01*
X470471034Y-42108331D01*
X470409958Y-42113797D01*
X470355264Y-42156285D01*
X470332167Y-42221759D01*
X470332985Y-42233191D01*
X470332111Y-42234990D01*
X470330116Y-42235133D01*
X470329028Y-42233724D01*
X470326060Y-42218808D01*
X470301787Y-42182480D01*
X469771737Y-41652430D01*
X469735409Y-41628157D01*
X469692754Y-41619672D01*
X469650099Y-41628157D01*
X469613772Y-41652430D01*
X469525663Y-41740539D01*
X469501390Y-41776866D01*
X469492905Y-41819521D01*
X469501390Y-41862176D01*
X469525663Y-41898504D01*
X470055713Y-42428554D01*
X470092041Y-42452827D01*
X470117692Y-42457930D01*
X470119196Y-42459249D01*
X470118806Y-42461211D01*
X470117480Y-42461884D01*
X470056405Y-42467350D01*
X470001712Y-42509837D01*
X469978614Y-42575311D01*
X469979432Y-42586746D01*
X469978558Y-42588545D01*
X469976563Y-42588688D01*
X469975475Y-42587279D01*
X469972507Y-42572362D01*
X469948234Y-42536034D01*
X469418184Y-42005984D01*
X469381856Y-41981711D01*
X469339201Y-41973226D01*
X469296546Y-41981711D01*
X469260219Y-42005984D01*
X469172110Y-42094093D01*
X469147837Y-42130420D01*
X469139352Y-42173075D01*
X469147837Y-42215730D01*
X469172110Y-42252058D01*
X469702160Y-42782108D01*
X469738488Y-42806381D01*
X469764139Y-42811484D01*
X469765643Y-42812803D01*
X469765253Y-42814765D01*
X469763927Y-42815438D01*
X469702851Y-42820904D01*
X469648157Y-42863392D01*
X469625060Y-42928866D01*
X469625878Y-42940298D01*
X469625004Y-42942097D01*
X469623009Y-42942240D01*
X469621921Y-42940831D01*
X469618953Y-42925915D01*
X469594680Y-42889587D01*
X469064630Y-42359537D01*
X469028302Y-42335264D01*
X468985647Y-42326779D01*
X468942992Y-42335264D01*
X468906665Y-42359537D01*
X468818556Y-42447646D01*
X468794283Y-42483973D01*
X468785798Y-42526628D01*
X468794283Y-42569283D01*
X468818556Y-42605611D01*
X469348606Y-43135661D01*
X469384934Y-43159934D01*
X469410585Y-43165037D01*
X469412089Y-43166356D01*
X469411699Y-43168318D01*
X469410373Y-43168991D01*
X469349298Y-43174457D01*
X469294605Y-43216944D01*
X469271507Y-43282418D01*
X469272325Y-43293851D01*
X469271451Y-43295650D01*
X469269456Y-43295793D01*
X469268368Y-43294384D01*
X469265400Y-43279468D01*
X469241127Y-43243140D01*
X468711077Y-42713090D01*
X468674749Y-42688817D01*
X468632094Y-42680332D01*
X468589439Y-42688817D01*
X468553112Y-42713090D01*
X468465003Y-42801199D01*
X468440730Y-42837526D01*
X468432245Y-42880181D01*
X468440730Y-42922836D01*
X468465003Y-42959164D01*
X468995053Y-43489214D01*
X469031381Y-43513487D01*
X469057032Y-43518590D01*
X469058536Y-43519909D01*
X469058146Y-43521871D01*
X469056820Y-43522544D01*
X468995745Y-43528010D01*
X468941052Y-43570497D01*
X468917954Y-43635971D01*
X468918772Y-43647406D01*
X468917898Y-43649205D01*
X468915903Y-43649348D01*
X468914815Y-43647939D01*
X468911847Y-43633022D01*
X468887574Y-43596694D01*
X468357524Y-43066644D01*
X468321196Y-43042371D01*
X468278541Y-43033886D01*
X468235886Y-43042371D01*
X468199559Y-43066644D01*
X468111450Y-43154753D01*
X468087177Y-43191080D01*
X468078692Y-43233735D01*
X468087177Y-43276390D01*
X468111450Y-43312718D01*
X468641500Y-43842768D01*
X468677828Y-43867041D01*
X468703479Y-43872144D01*
X468704983Y-43873463D01*
X468704593Y-43875425D01*
X468703267Y-43876098D01*
X468642191Y-43881564D01*
X468587497Y-43924052D01*
X468564400Y-43989526D01*
X468565605Y-44006370D01*
X468564731Y-44008169D01*
X468562736Y-44008312D01*
X468561762Y-44007278D01*
X468544856Y-43966466D01*
X468534019Y-43950248D01*
X468003969Y-43420198D01*
X467987751Y-43409361D01*
X467943922Y-43391206D01*
X467924987Y-43387440D01*
X467906052Y-43391206D01*
X467862223Y-43409361D01*
X467846005Y-43420198D01*
X467802719Y-43463484D01*
X467791882Y-43479702D01*
X467773727Y-43523531D01*
X467769921Y-43542665D01*
X467769921Y-43631911D01*
X467773727Y-43651045D01*
X467787247Y-43683684D01*
X467786986Y-43685666D01*
X467785138Y-43686432D01*
X467783736Y-43685560D01*
X467779930Y-43679865D01*
X467726553Y-43635258D01*
X467657837Y-43626628D01*
X467595208Y-43656593D01*
X467575162Y-43679727D01*
X467571264Y-43685560D01*
X467569470Y-43686445D01*
X467567807Y-43685333D01*
X467567753Y-43683684D01*
X467581273Y-43651045D01*
X467585079Y-43631911D01*
X467585079Y-43542665D01*
X467581273Y-43523531D01*
X467563118Y-43479702D01*
X467552281Y-43463484D01*
X467508995Y-43420198D01*
X467492777Y-43409361D01*
X467448948Y-43391206D01*
X467430013Y-43387440D01*
X467411078Y-43391206D01*
X467367249Y-43409361D01*
X467351031Y-43420198D01*
X466820981Y-43950248D01*
X466810144Y-43966466D01*
X466791989Y-44010295D01*
X466791604Y-44012228D01*
X466790285Y-44013732D01*
X466788323Y-44013341D01*
X466787650Y-44012016D01*
X466782184Y-43950939D01*
X466739696Y-43896245D01*
X466674222Y-43873148D01*
X466662788Y-43873966D01*
X466660989Y-43873092D01*
X466660846Y-43871097D01*
X466662255Y-43870009D01*
X466677172Y-43867041D01*
X466713500Y-43842768D01*
X467243550Y-43312718D01*
X467267823Y-43276390D01*
X467276308Y-43233735D01*
X467267823Y-43191080D01*
X467243550Y-43154753D01*
X467155441Y-43066644D01*
X467119114Y-43042371D01*
X467076459Y-43033886D01*
X467033804Y-43042371D01*
X466997476Y-43066644D01*
X466467426Y-43596694D01*
X466443153Y-43633022D01*
X466438050Y-43658673D01*
X466436731Y-43660177D01*
X466434769Y-43659787D01*
X466434096Y-43658461D01*
X466428630Y-43597385D01*
X466386142Y-43542691D01*
X466320668Y-43519594D01*
X466309236Y-43520412D01*
X466307437Y-43519538D01*
X466307294Y-43517543D01*
X466308703Y-43516455D01*
X466323619Y-43513487D01*
X466359947Y-43489214D01*
X466889997Y-42959164D01*
X466914270Y-42922836D01*
X466922755Y-42880181D01*
X466914270Y-42837526D01*
X466889997Y-42801199D01*
X466801888Y-42713090D01*
X466765561Y-42688817D01*
X466722906Y-42680332D01*
X466680251Y-42688817D01*
X466643923Y-42713090D01*
X466113873Y-43243140D01*
X466089600Y-43279468D01*
X466084497Y-43305119D01*
X466083178Y-43306623D01*
X466081216Y-43306233D01*
X466080543Y-43304907D01*
X466075077Y-43243832D01*
X466032590Y-43189139D01*
X465967116Y-43166041D01*
X465955683Y-43166859D01*
X465953884Y-43165985D01*
X465953741Y-43163990D01*
X465955150Y-43162902D01*
X465970066Y-43159934D01*
X466006394Y-43135661D01*
X466536444Y-42605611D01*
X466560717Y-42569283D01*
X466569202Y-42526628D01*
X466560717Y-42483973D01*
X466536444Y-42447646D01*
X466448335Y-42359537D01*
X466412008Y-42335264D01*
X466369353Y-42326779D01*
X466326698Y-42335264D01*
X466290370Y-42359537D01*
X465760320Y-42889587D01*
X465736047Y-42925915D01*
X465730944Y-42951566D01*
X465729625Y-42953070D01*
X465727663Y-42952680D01*
X465726990Y-42951354D01*
X465721524Y-42890279D01*
X465679037Y-42835586D01*
X465613563Y-42812488D01*
X465602128Y-42813306D01*
X465600329Y-42812432D01*
X465600186Y-42810437D01*
X465601595Y-42809349D01*
X465616512Y-42806381D01*
X465652840Y-42782108D01*
X466182890Y-42252058D01*
X466207163Y-42215730D01*
X466215648Y-42173075D01*
X466207163Y-42130420D01*
X466182890Y-42094093D01*
X466094781Y-42005984D01*
X466058454Y-41981711D01*
X466015799Y-41973226D01*
X465973144Y-41981711D01*
X465936816Y-42005984D01*
X465406766Y-42536034D01*
X465382493Y-42572362D01*
X465377390Y-42598013D01*
X465376071Y-42599517D01*
X465374109Y-42599127D01*
X465373436Y-42597801D01*
X465367970Y-42536725D01*
X465325482Y-42482031D01*
X465260008Y-42458934D01*
X465248576Y-42459752D01*
X465246777Y-42458878D01*
X465246634Y-42456883D01*
X465248043Y-42455795D01*
X465262959Y-42452827D01*
X465299287Y-42428554D01*
X465829337Y-41898504D01*
X465853610Y-41862176D01*
X465862095Y-41819521D01*
X465853610Y-41776866D01*
X465829337Y-41740539D01*
X465741228Y-41652430D01*
X465704901Y-41628157D01*
X465662246Y-41619672D01*
X465619591Y-41628157D01*
X465583263Y-41652430D01*
X465053213Y-42182480D01*
X465028940Y-42218808D01*
X465023837Y-42244459D01*
X465022518Y-42245963D01*
X465020556Y-42245573D01*
X465019883Y-42244247D01*
X465014417Y-42183172D01*
X464971930Y-42128479D01*
X464906456Y-42105381D01*
X464895021Y-42106199D01*
X464893222Y-42105325D01*
X464893079Y-42103330D01*
X464894488Y-42102242D01*
X464909405Y-42099274D01*
X464945733Y-42075001D01*
X465475783Y-41544951D01*
X465500056Y-41508623D01*
X465508541Y-41465968D01*
X465500056Y-41423313D01*
X465475783Y-41386986D01*
X465387674Y-41298877D01*
X465351347Y-41274604D01*
X465308692Y-41266119D01*
X465266037Y-41274604D01*
X465229709Y-41298877D01*
X464699659Y-41828927D01*
X464675386Y-41865255D01*
X464670283Y-41890906D01*
X464668964Y-41892410D01*
X464667002Y-41892020D01*
X464666329Y-41890694D01*
X464660863Y-41829618D01*
X464618375Y-41774924D01*
X464552901Y-41751827D01*
X464541469Y-41752645D01*
X464539670Y-41751771D01*
X464539527Y-41749776D01*
X464540936Y-41748688D01*
X464555852Y-41745720D01*
X464592180Y-41721447D01*
X465122230Y-41191397D01*
X465146503Y-41155069D01*
X465154988Y-41112414D01*
X465146503Y-41069759D01*
X465122230Y-41033432D01*
X465034121Y-40945323D01*
X464997794Y-40921050D01*
X464955139Y-40912565D01*
X464912484Y-40921050D01*
X464876156Y-40945323D01*
X464346106Y-41475373D01*
X464321833Y-41511701D01*
X464316730Y-41537352D01*
X464315411Y-41538856D01*
X464313449Y-41538466D01*
X464312776Y-41537140D01*
X464307310Y-41476065D01*
X464264823Y-41421372D01*
X464199349Y-41398274D01*
X464187916Y-41399092D01*
X464186117Y-41398218D01*
X464185974Y-41396223D01*
X464187383Y-41395135D01*
X464202299Y-41392167D01*
X464238627Y-41367894D01*
X464768677Y-40837844D01*
X464792950Y-40801516D01*
X464801435Y-40758861D01*
X464792950Y-40716206D01*
X464768677Y-40679879D01*
X464680568Y-40591770D01*
X464644241Y-40567497D01*
X464601586Y-40559012D01*
X464558931Y-40567497D01*
X464522603Y-40591770D01*
X463992553Y-41121820D01*
X463968280Y-41158148D01*
X463963177Y-41183799D01*
X463961858Y-41185303D01*
X463959896Y-41184913D01*
X463959223Y-41183587D01*
X463953757Y-41122512D01*
X463911270Y-41067819D01*
X463845796Y-41044721D01*
X463834361Y-41045539D01*
X463832562Y-41044665D01*
X463832419Y-41042670D01*
X463833828Y-41041582D01*
X463848745Y-41038614D01*
X463885073Y-41014341D01*
X464415123Y-40484291D01*
X464439396Y-40447963D01*
X464447881Y-40405308D01*
X464439396Y-40362653D01*
X464415123Y-40326326D01*
X464327014Y-40238217D01*
X464290687Y-40213944D01*
X464248032Y-40205459D01*
X464205377Y-40213944D01*
X464169049Y-40238217D01*
X463638999Y-40768267D01*
X463614726Y-40804595D01*
X463609623Y-40830246D01*
X463608304Y-40831750D01*
X463606342Y-40831360D01*
X463605669Y-40830034D01*
X463600203Y-40768958D01*
X463557715Y-40714264D01*
X463492241Y-40691167D01*
X463480809Y-40691985D01*
X463479010Y-40691111D01*
X463478867Y-40689116D01*
X463480276Y-40688028D01*
X463495192Y-40685060D01*
X463531520Y-40660787D01*
X464061570Y-40130737D01*
X464085843Y-40094409D01*
X464094328Y-40051754D01*
X464085843Y-40009099D01*
X464061570Y-39972772D01*
X463973461Y-39884663D01*
X463937134Y-39860390D01*
X463894479Y-39851905D01*
X463851824Y-39860390D01*
X463815496Y-39884663D01*
X463285446Y-40414713D01*
X463261173Y-40451041D01*
X463256070Y-40476692D01*
X463254751Y-40478196D01*
X463252789Y-40477806D01*
X463252116Y-40476480D01*
X463246650Y-40415405D01*
X463204163Y-40360712D01*
X463138689Y-40337614D01*
X463127254Y-40338432D01*
X463125455Y-40337558D01*
X463125312Y-40335563D01*
X463126721Y-40334475D01*
X463141638Y-40331507D01*
X463177966Y-40307234D01*
X463708016Y-39777184D01*
X463732289Y-39740856D01*
X463740774Y-39698201D01*
X463732289Y-39655546D01*
X463708016Y-39619219D01*
X463619907Y-39531110D01*
X463583580Y-39506837D01*
X463540925Y-39498352D01*
X463498270Y-39506837D01*
X463461942Y-39531110D01*
X462931892Y-40061160D01*
X462907619Y-40097488D01*
X462902516Y-40123139D01*
X462901197Y-40124643D01*
X462899235Y-40124253D01*
X462898562Y-40122927D01*
X462893096Y-40061851D01*
X462850608Y-40007157D01*
X462785134Y-39984060D01*
X462773702Y-39984878D01*
X462771903Y-39984004D01*
X462771760Y-39982009D01*
X462773169Y-39980921D01*
X462788085Y-39977953D01*
X462824413Y-39953680D01*
X463354463Y-39423630D01*
X463378736Y-39387302D01*
X463387221Y-39344647D01*
X463378736Y-39301992D01*
X463354463Y-39265665D01*
X463266354Y-39177556D01*
X463230027Y-39153283D01*
X463187372Y-39144798D01*
X463144717Y-39153283D01*
X463108389Y-39177556D01*
X462578339Y-39707606D01*
X462554066Y-39743934D01*
X462548963Y-39769585D01*
X462547644Y-39771089D01*
X462545682Y-39770699D01*
X462545009Y-39769373D01*
X462539543Y-39708298D01*
X462497056Y-39653605D01*
X462431582Y-39630507D01*
X462420149Y-39631325D01*
X462418350Y-39630451D01*
X462418207Y-39628456D01*
X462419616Y-39627368D01*
X462434532Y-39624400D01*
X462470860Y-39600127D01*
X463000910Y-39070077D01*
X463025183Y-39033749D01*
X463033668Y-38991094D01*
X463025183Y-38948439D01*
X463000910Y-38912112D01*
X462912801Y-38824003D01*
X462876474Y-38799730D01*
X462833819Y-38791245D01*
X462791164Y-38799730D01*
X462754836Y-38824003D01*
X462224786Y-39354053D01*
X462200513Y-39390381D01*
X462195410Y-39416032D01*
X462194091Y-39417536D01*
X462192129Y-39417146D01*
X462191456Y-39415820D01*
X462185990Y-39354745D01*
X462143503Y-39300052D01*
X462078029Y-39276954D01*
X462066594Y-39277772D01*
X462064795Y-39276898D01*
X462064652Y-39274903D01*
X462066061Y-39273815D01*
X462080978Y-39270847D01*
X462117306Y-39246574D01*
X462647356Y-38716524D01*
X462671629Y-38680196D01*
X462680114Y-38637541D01*
X462671629Y-38594886D01*
X462647356Y-38558559D01*
X462559247Y-38470450D01*
X462522920Y-38446177D01*
X462480265Y-38437692D01*
X462437610Y-38446177D01*
X462401282Y-38470450D01*
X461871232Y-39000500D01*
X461846959Y-39036828D01*
X461841856Y-39062479D01*
X461840537Y-39063983D01*
X461838575Y-39063593D01*
X461837902Y-39062267D01*
X461832436Y-39001191D01*
X461789948Y-38946497D01*
X461724474Y-38923400D01*
X461707630Y-38924605D01*
X461705831Y-38923731D01*
X461705688Y-38921736D01*
X461706722Y-38920762D01*
X461747534Y-38903856D01*
X461763752Y-38893019D01*
X462293802Y-38362969D01*
X462304639Y-38346751D01*
X462322794Y-38302922D01*
X462326560Y-38283987D01*
X462322794Y-38265052D01*
X462304639Y-38221223D01*
X462293802Y-38205005D01*
X462250516Y-38161719D01*
X462234298Y-38150882D01*
X462190469Y-38132727D01*
X462171335Y-38128921D01*
X462082089Y-38128921D01*
X462062955Y-38132727D01*
X462030316Y-38146247D01*
X462028334Y-38145986D01*
X462027568Y-38144138D01*
X462028440Y-38142736D01*
X462034135Y-38138930D01*
X462078742Y-38085553D01*
X462084903Y-38036500D01*
X462325240Y-38036500D01*
X462328966Y-38055238D01*
X462339691Y-38071288D01*
X467642712Y-43374309D01*
X467658762Y-43385034D01*
X467677500Y-43388760D01*
X467696238Y-43385034D01*
X467712288Y-43374309D01*
X473015309Y-38071288D01*
X473026034Y-38055238D01*
X473029760Y-38036500D01*
X473026034Y-38017762D01*
X473015309Y-38001712D01*
X467712288Y-32698691D01*
X467696238Y-32687966D01*
X467677500Y-32684240D01*
X467658762Y-32687966D01*
X467642712Y-32698691D01*
X462339691Y-38001712D01*
X462328966Y-38017762D01*
X462325240Y-38036500D01*
X462084903Y-38036500D01*
X462087372Y-38016837D01*
X462057407Y-37954208D01*
X462034273Y-37934162D01*
X462028440Y-37930264D01*
X462027555Y-37928470D01*
X462028667Y-37926807D01*
X462030316Y-37926753D01*
X462062955Y-37940273D01*
X462082089Y-37944079D01*
X462171335Y-37944079D01*
X462190469Y-37940273D01*
X462234298Y-37922118D01*
X462250516Y-37911281D01*
X462293802Y-37867995D01*
X462304639Y-37851777D01*
X462322794Y-37807948D01*
X462326560Y-37789013D01*
X462322794Y-37770078D01*
X462304639Y-37726249D01*
X462293802Y-37710031D01*
X461763752Y-37179981D01*
X461747534Y-37169144D01*
X461703705Y-37150989D01*
X461701772Y-37150604D01*
X461700268Y-37149285D01*
X461700659Y-37147323D01*
X461701984Y-37146650D01*
X461763061Y-37141184D01*
X461817755Y-37098696D01*
X461840852Y-37033222D01*
X461840034Y-37021788D01*
X461840908Y-37019989D01*
X461842903Y-37019846D01*
X461843991Y-37021255D01*
X461846959Y-37036172D01*
X461871232Y-37072500D01*
X462401282Y-37602550D01*
X462437610Y-37626823D01*
X462480265Y-37635308D01*
X462522920Y-37626823D01*
X462559247Y-37602550D01*
X462647356Y-37514441D01*
X462671629Y-37478114D01*
X462680114Y-37435459D01*
X462671629Y-37392804D01*
X462647356Y-37356476D01*
X462117306Y-36826426D01*
X462080978Y-36802153D01*
X462055327Y-36797050D01*
X462053823Y-36795731D01*
X462054213Y-36793769D01*
X462055539Y-36793096D01*
X462116615Y-36787630D01*
X462171309Y-36745142D01*
X462194406Y-36679668D01*
X462193588Y-36668236D01*
X462194462Y-36666437D01*
X462196457Y-36666294D01*
X462197545Y-36667703D01*
X462200513Y-36682619D01*
X462224786Y-36718947D01*
X462754836Y-37248997D01*
X462791164Y-37273270D01*
X462833819Y-37281755D01*
X462876474Y-37273270D01*
X462912801Y-37248997D01*
X463000910Y-37160888D01*
X463025183Y-37124561D01*
X463033668Y-37081906D01*
X463025183Y-37039251D01*
X463000910Y-37002923D01*
X462470860Y-36472873D01*
X462434532Y-36448600D01*
X462408881Y-36443497D01*
X462407377Y-36442178D01*
X462407767Y-36440216D01*
X462409093Y-36439543D01*
X462470168Y-36434077D01*
X462524861Y-36391590D01*
X462547959Y-36326116D01*
X462547141Y-36314683D01*
X462548015Y-36312884D01*
X462550010Y-36312741D01*
X462551098Y-36314150D01*
X462554066Y-36329066D01*
X462578339Y-36365394D01*
X463108389Y-36895444D01*
X463144717Y-36919717D01*
X463187372Y-36928202D01*
X463230027Y-36919717D01*
X463266354Y-36895444D01*
X463354463Y-36807335D01*
X463378736Y-36771008D01*
X463387221Y-36728353D01*
X463378736Y-36685698D01*
X463354463Y-36649370D01*
X462824413Y-36119320D01*
X462788085Y-36095047D01*
X462762434Y-36089944D01*
X462760930Y-36088625D01*
X462761320Y-36086663D01*
X462762646Y-36085990D01*
X462823721Y-36080524D01*
X462878414Y-36038037D01*
X462901512Y-35972563D01*
X462900694Y-35961128D01*
X462901568Y-35959329D01*
X462903563Y-35959186D01*
X462904651Y-35960595D01*
X462907619Y-35975512D01*
X462931892Y-36011840D01*
X463461942Y-36541890D01*
X463498270Y-36566163D01*
X463540925Y-36574648D01*
X463583580Y-36566163D01*
X463619907Y-36541890D01*
X463708016Y-36453781D01*
X463732289Y-36417454D01*
X463740774Y-36374799D01*
X463732289Y-36332144D01*
X463708016Y-36295816D01*
X463177966Y-35765766D01*
X463141638Y-35741493D01*
X463115987Y-35736390D01*
X463114483Y-35735071D01*
X463114873Y-35733109D01*
X463116199Y-35732436D01*
X463177275Y-35726970D01*
X463231969Y-35684482D01*
X463255066Y-35619008D01*
X463254248Y-35607576D01*
X463255122Y-35605777D01*
X463257117Y-35605634D01*
X463258205Y-35607043D01*
X463261173Y-35621959D01*
X463285446Y-35658287D01*
X463815496Y-36188337D01*
X463851824Y-36212610D01*
X463894479Y-36221095D01*
X463937134Y-36212610D01*
X463973461Y-36188337D01*
X464061570Y-36100228D01*
X464085843Y-36063901D01*
X464094328Y-36021246D01*
X464085843Y-35978591D01*
X464061570Y-35942263D01*
X463531520Y-35412213D01*
X463495192Y-35387940D01*
X463469541Y-35382837D01*
X463468037Y-35381518D01*
X463468427Y-35379556D01*
X463469753Y-35378883D01*
X463530828Y-35373417D01*
X463585521Y-35330930D01*
X463608619Y-35265456D01*
X463607801Y-35254021D01*
X463608675Y-35252222D01*
X463610670Y-35252079D01*
X463611758Y-35253488D01*
X463614726Y-35268405D01*
X463638999Y-35304733D01*
X464169049Y-35834783D01*
X464205377Y-35859056D01*
X464248032Y-35867541D01*
X464290687Y-35859056D01*
X464327014Y-35834783D01*
X464415123Y-35746674D01*
X464439396Y-35710347D01*
X464447881Y-35667692D01*
X464439396Y-35625037D01*
X464415123Y-35588709D01*
X463885073Y-35058659D01*
X463848745Y-35034386D01*
X463823094Y-35029283D01*
X463821590Y-35027964D01*
X463821980Y-35026002D01*
X463823306Y-35025329D01*
X463884382Y-35019863D01*
X463939076Y-34977375D01*
X463962173Y-34911901D01*
X463961355Y-34900469D01*
X463962229Y-34898670D01*
X463964224Y-34898527D01*
X463965312Y-34899936D01*
X463968280Y-34914852D01*
X463992553Y-34951180D01*
X464522603Y-35481230D01*
X464558931Y-35505503D01*
X464601586Y-35513988D01*
X464644241Y-35505503D01*
X464680568Y-35481230D01*
X464768677Y-35393121D01*
X464792950Y-35356794D01*
X464801435Y-35314139D01*
X464792950Y-35271484D01*
X464768677Y-35235156D01*
X464238627Y-34705106D01*
X464202299Y-34680833D01*
X464176648Y-34675730D01*
X464175144Y-34674411D01*
X464175534Y-34672449D01*
X464176860Y-34671776D01*
X464237935Y-34666310D01*
X464292628Y-34623823D01*
X464315726Y-34558349D01*
X464314908Y-34546916D01*
X464315782Y-34545117D01*
X464317777Y-34544974D01*
X464318865Y-34546383D01*
X464321833Y-34561299D01*
X464346106Y-34597627D01*
X464876156Y-35127677D01*
X464912484Y-35151950D01*
X464955139Y-35160435D01*
X464997794Y-35151950D01*
X465034121Y-35127677D01*
X465122230Y-35039568D01*
X465146503Y-35003241D01*
X465154988Y-34960586D01*
X465146503Y-34917931D01*
X465122230Y-34881603D01*
X464592180Y-34351553D01*
X464555852Y-34327280D01*
X464530201Y-34322177D01*
X464528697Y-34320858D01*
X464529087Y-34318896D01*
X464530413Y-34318223D01*
X464591488Y-34312757D01*
X464646181Y-34270270D01*
X464669279Y-34204796D01*
X464668461Y-34193361D01*
X464669335Y-34191562D01*
X464671330Y-34191419D01*
X464672418Y-34192828D01*
X464675386Y-34207745D01*
X464699659Y-34244073D01*
X465229709Y-34774123D01*
X465266037Y-34798396D01*
X465308692Y-34806881D01*
X465351347Y-34798396D01*
X465387674Y-34774123D01*
X465475783Y-34686014D01*
X465500056Y-34649687D01*
X465508541Y-34607032D01*
X465500056Y-34564377D01*
X465475783Y-34528049D01*
X464945733Y-33997999D01*
X464909405Y-33973726D01*
X464883754Y-33968623D01*
X464882250Y-33967304D01*
X464882640Y-33965342D01*
X464883966Y-33964669D01*
X464945042Y-33959203D01*
X464999736Y-33916715D01*
X465022833Y-33851241D01*
X465022015Y-33839809D01*
X465022889Y-33838010D01*
X465024884Y-33837867D01*
X465025972Y-33839276D01*
X465028940Y-33854192D01*
X465053213Y-33890520D01*
X465583263Y-34420570D01*
X465619591Y-34444843D01*
X465662246Y-34453328D01*
X465704901Y-34444843D01*
X465741228Y-34420570D01*
X465829337Y-34332461D01*
X465853610Y-34296134D01*
X465862095Y-34253479D01*
X465853610Y-34210824D01*
X465829337Y-34174496D01*
X465299287Y-33644446D01*
X465262959Y-33620173D01*
X465237308Y-33615070D01*
X465235804Y-33613751D01*
X465236194Y-33611789D01*
X465237520Y-33611116D01*
X465298595Y-33605650D01*
X465353288Y-33563163D01*
X465376386Y-33497689D01*
X465375568Y-33486254D01*
X465376442Y-33484455D01*
X465378437Y-33484312D01*
X465379525Y-33485721D01*
X465382493Y-33500638D01*
X465406766Y-33536966D01*
X465936816Y-34067016D01*
X465973144Y-34091289D01*
X466015799Y-34099774D01*
X466058454Y-34091289D01*
X466094781Y-34067016D01*
X466182890Y-33978907D01*
X466207163Y-33942580D01*
X466215648Y-33899925D01*
X466207163Y-33857270D01*
X466182890Y-33820942D01*
X465652840Y-33290892D01*
X465616512Y-33266619D01*
X465590861Y-33261516D01*
X465589357Y-33260197D01*
X465589747Y-33258235D01*
X465591073Y-33257562D01*
X465652149Y-33252096D01*
X465706843Y-33209608D01*
X465729940Y-33144134D01*
X465729122Y-33132702D01*
X465729996Y-33130903D01*
X465731991Y-33130760D01*
X465733079Y-33132169D01*
X465736047Y-33147085D01*
X465760320Y-33183413D01*
X466290370Y-33713463D01*
X466326698Y-33737736D01*
X466369353Y-33746221D01*
X466412008Y-33737736D01*
X466448335Y-33713463D01*
X466536444Y-33625354D01*
X466560717Y-33589027D01*
X466569202Y-33546372D01*
X466560717Y-33503717D01*
X466536444Y-33467389D01*
X466006394Y-32937339D01*
X465970066Y-32913066D01*
X465944415Y-32907963D01*
X465942911Y-32906644D01*
X465943301Y-32904682D01*
X465944627Y-32904009D01*
X466005702Y-32898543D01*
X466060395Y-32856056D01*
X466083493Y-32790582D01*
X466082675Y-32779149D01*
X466083549Y-32777350D01*
X466085544Y-32777207D01*
X466086632Y-32778616D01*
X466089600Y-32793532D01*
X466113873Y-32829860D01*
X466643923Y-33359910D01*
X466680251Y-33384183D01*
X466722906Y-33392668D01*
X466765561Y-33384183D01*
X466801888Y-33359910D01*
X466889997Y-33271801D01*
X466914270Y-33235474D01*
X466922755Y-33192819D01*
X466914270Y-33150164D01*
X466889997Y-33113836D01*
X466359947Y-32583786D01*
X466323619Y-32559513D01*
X466297968Y-32554410D01*
X466296464Y-32553091D01*
X466296854Y-32551129D01*
X466298180Y-32550456D01*
X466359255Y-32544990D01*
X466413948Y-32502503D01*
X466437046Y-32437029D01*
X466436228Y-32425594D01*
X466437102Y-32423795D01*
X466439097Y-32423652D01*
X466440185Y-32425061D01*
X466443153Y-32439978D01*
X466467426Y-32476306D01*
X466997476Y-33006356D01*
X467033804Y-33030629D01*
X467076459Y-33039114D01*
X467119114Y-33030629D01*
X467155441Y-33006356D01*
X467243550Y-32918247D01*
X467267823Y-32881920D01*
X467276308Y-32839265D01*
X467267823Y-32796610D01*
X467243550Y-32760282D01*
X466713500Y-32230232D01*
X466677172Y-32205959D01*
X466651521Y-32200856D01*
X466650017Y-32199537D01*
X466650407Y-32197575D01*
X466651733Y-32196902D01*
X466712809Y-32191436D01*
X466767503Y-32148948D01*
X466790600Y-32083474D01*
X466789395Y-32066630D01*
X466790269Y-32064831D01*
X466792264Y-32064688D01*
X466793238Y-32065722D01*
X466810144Y-32106534D01*
X466820981Y-32122752D01*
X467351031Y-32652802D01*
X467367249Y-32663639D01*
X467411078Y-32681794D01*
X467430013Y-32685560D01*
X467448948Y-32681794D01*
X467492777Y-32663639D01*
X467508995Y-32652802D01*
X467552281Y-32609516D01*
X467563118Y-32593298D01*
X467581273Y-32549469D01*
X467585079Y-32530335D01*
X467585079Y-32441088D01*
X467581273Y-32421955D01*
X467567753Y-32389316D01*
X467568014Y-32387334D01*
X467569862Y-32386568D01*
X467571264Y-32387440D01*
X467575070Y-32393135D01*
X467628447Y-32437742D01*
X467697163Y-32446372D01*
X467759792Y-32416407D01*
X467779838Y-32393273D01*
X467783736Y-32387440D01*
X467785530Y-32386555D01*
X467787193Y-32387667D01*
X467787247Y-32389316D01*
X467773727Y-32421955D01*
X467769921Y-32441088D01*
X467769921Y-32530335D01*
X467773727Y-32549469D01*
X467791882Y-32593298D01*
X467802719Y-32609516D01*
X467846005Y-32652802D01*
X467862223Y-32663639D01*
X467906052Y-32681794D01*
X467924987Y-32685560D01*
X467943922Y-32681794D01*
X467987751Y-32663639D01*
X468003969Y-32652802D01*
X468534019Y-32122752D01*
X468544856Y-32106534D01*
X468563011Y-32062705D01*
X468563396Y-32060772D01*
X468564715Y-32059268D01*
X468566677Y-32059659D01*
G37*
M02*
