M48
; DRILL file {KiCad (6.0.0-0)} date 2021 December 27, Monday 00:13:57
; FORMAT={-:-/ absolute / inch / decimal}
; #@! TF.CreationDate,2021-12-27T00:13:57+03:00
; #@! TF.GenerationSoftware,Kicad,Pcbnew,(6.0.0-0)
; #@! TF.FileFunction,Plated,1,2,PTH
FMAT,2
INCH
; #@! TA.AperFunction,Plated,PTH,ViaDrill
T1C0.0118
; #@! TA.AperFunction,Plated,PTH,ViaDrill
T2C0.0157
; #@! TA.AperFunction,Plated,PTH,ComponentDrill
T3C0.0236
; #@! TA.AperFunction,Plated,PTH,ComponentDrill
T4C0.0394
; #@! TA.AperFunction,Plated,PTH,ComponentDrill
T5C0.0591
; #@! TA.AperFunction,Plated,PTH,ComponentDrill
T6C0.0630
%
G90
G05
T1
X1.125Y-1.3125
X1.125Y-1.5
X1.125Y-1.6875
X1.125Y-1.875
X1.125Y-2.0625
X1.125Y-2.25
X1.125Y-2.4375
X1.125Y-2.625
X1.125Y-2.8125
X1.125Y-3.0
X1.125Y-3.1875
X1.125Y-3.375
X1.125Y-3.5625
X1.125Y-3.75
X1.125Y-3.9375
X1.125Y-4.125
X1.125Y-4.3125
X1.125Y-4.5
X1.125Y-4.6875
X1.125Y-4.875
X1.125Y-5.0625
X1.125Y-5.25
X1.125Y-5.4375
X1.125Y-5.625
X1.125Y-5.8125
X1.125Y-6.0
X1.125Y-6.1875
X1.125Y-6.375
X1.125Y-6.5625
X1.125Y-6.75
X1.125Y-6.9375
X1.135Y-1.135
X1.135Y-7.115
X1.3125Y-1.125
X1.3125Y-7.125
X1.5Y-1.125
X1.5Y-7.125
X1.6762Y-2.4774
X1.6762Y-3.9774
X1.6762Y-5.4774
X1.6762Y-6.9774
X1.6875Y-1.125
X1.6875Y-7.125
X1.691Y-2.393
X1.691Y-3.893
X1.691Y-5.393
X1.691Y-6.893
X1.711Y-3.199
X1.711Y-4.699
X1.711Y-6.199
X1.8022Y-2.4774
X1.8022Y-3.9774
X1.8022Y-5.4774
X1.8022Y-6.9774
X1.857Y-3.243
X1.857Y-4.743
X1.857Y-6.243
X1.86Y-2.695
X1.875Y-1.125
X1.875Y-7.125
X1.89Y-2.665
X1.921Y-2.393
X1.921Y-3.893
X1.921Y-5.393
X1.921Y-6.893
X2.003Y-2.393
X2.003Y-3.893
X2.003Y-5.393
X2.003Y-6.893
X2.0625Y-1.125
X2.0625Y-7.125
X2.087Y-2.447
X2.087Y-3.947
X2.087Y-5.447
X2.087Y-6.947
X2.25Y-1.125
X2.25Y-7.125
X2.313Y-1.5492
X2.3524Y-1.3327
X2.4262Y-2.4774
X2.4262Y-3.9774
X2.4262Y-5.4774
X2.4262Y-6.9774
X2.4375Y-1.125
X2.4375Y-7.125
X2.441Y-2.393
X2.441Y-3.893
X2.441Y-5.393
X2.441Y-6.893
X2.461Y-3.199
X2.461Y-4.699
X2.461Y-6.199
X2.4705Y-1.9035
X2.4984Y-1.848
X2.5244Y-1.874
X2.5522Y-2.4774
X2.5522Y-3.9774
X2.5522Y-5.4774
X2.5522Y-6.9774
X2.5787Y-2.0118
X2.607Y-3.243
X2.607Y-4.743
X2.607Y-6.243
X2.61Y-2.64
X2.625Y-1.125
X2.625Y-7.125
X2.64Y-2.61
X2.671Y-2.393
X2.671Y-3.893
X2.671Y-5.393
X2.671Y-6.893
X2.753Y-2.393
X2.753Y-3.893
X2.753Y-5.393
X2.753Y-6.893
X2.8125Y-1.125
X2.8125Y-7.125
X2.837Y-2.447
X2.837Y-3.947
X2.837Y-5.447
X2.837Y-6.947
X3.0Y-1.125
X3.0Y-7.125
X3.1762Y-2.4774
X3.1762Y-3.9774
X3.1762Y-5.4774
X3.1762Y-6.9774
X3.186Y-1.125
X3.1875Y-7.125
X3.191Y-2.393
X3.191Y-3.893
X3.191Y-5.393
X3.191Y-6.893
X3.211Y-3.199
X3.211Y-4.699
X3.211Y-6.199
X3.2923Y-2.3829
X3.3022Y-2.4774
X3.3022Y-3.9774
X3.3022Y-5.4774
X3.3022Y-6.9774
X3.357Y-4.743
X3.357Y-6.243
X3.375Y-1.125
X3.375Y-7.125
X3.415Y-2.425
X3.421Y-3.893
X3.421Y-5.393
X3.421Y-6.893
X3.435Y-2.365
X3.503Y-2.393
X3.503Y-3.893
X3.503Y-5.393
X3.503Y-6.893
X3.5625Y-1.125
X3.5625Y-7.125
X3.587Y-2.447
X3.587Y-3.947
X3.587Y-5.447
X3.587Y-6.947
X3.75Y-1.125
X3.75Y-7.125
X3.9262Y-2.4774
X3.9262Y-3.9774
X3.9262Y-5.4774
X3.9262Y-6.9774
X3.9375Y-1.125
X3.9375Y-7.125
X3.941Y-2.393
X3.941Y-3.893
X3.941Y-5.393
X3.941Y-6.893
X3.9574Y-1.8747
X3.961Y-3.199
X3.961Y-4.699
X3.961Y-6.199
X3.9764Y-1.2736
X3.9834Y-1.901
X3.9844Y-1.848
X4.0522Y-2.4774
X4.0522Y-3.9774
X4.0522Y-5.4774
X4.0522Y-6.9774
X4.07Y-1.5495
X4.07Y-1.8256
X4.085Y-2.72
X4.107Y-3.243
X4.107Y-4.743
X4.107Y-6.243
X4.11Y-1.97
X4.11Y-2.585
X4.115Y-1.135
X4.125Y-1.3125
X4.125Y-1.5
X4.125Y-1.6875
X4.125Y-1.825
X4.125Y-7.125
X4.14Y-2.555
X4.171Y-2.393
X4.171Y-3.893
X4.171Y-5.393
X4.171Y-6.893
X4.253Y-2.393
X4.253Y-3.893
X4.253Y-5.393
X4.253Y-6.893
X4.3125Y-7.125
X4.337Y-2.447
X4.337Y-3.947
X4.337Y-5.447
X4.337Y-6.947
X4.5Y-7.125
X4.6762Y-2.4774
X4.6762Y-3.9774
X4.6762Y-5.4774
X4.6762Y-6.9774
X4.6875Y-7.125
X4.691Y-2.393
X4.691Y-3.893
X4.691Y-5.393
X4.691Y-6.893
X4.711Y-3.199
X4.711Y-4.699
X4.711Y-6.199
X4.7923Y-3.8829
X4.8022Y-2.4774
X4.8022Y-3.9774
X4.8022Y-5.4774
X4.8022Y-6.9774
X4.857Y-3.243
X4.857Y-4.743
X4.857Y-6.243
X4.875Y-7.125
X4.915Y-3.925
X4.921Y-2.393
X4.921Y-5.393
X4.921Y-6.893
X4.935Y-3.865
X5.003Y-2.393
X5.003Y-3.893
X5.003Y-5.393
X5.003Y-6.893
X5.0625Y-7.125
X5.087Y-2.447
X5.087Y-3.947
X5.087Y-5.447
X5.087Y-6.947
X5.25Y-7.125
X5.4262Y-2.4774
X5.4262Y-3.9774
X5.4262Y-5.4774
X5.4262Y-6.9774
X5.4375Y-7.125
X5.441Y-2.393
X5.441Y-3.893
X5.441Y-5.393
X5.441Y-6.893
X5.461Y-3.199
X5.461Y-4.699
X5.461Y-6.199
X5.5522Y-2.4774
X5.5522Y-3.9774
X5.5522Y-5.4774
X5.5522Y-6.9774
X5.607Y-3.243
X5.607Y-4.743
X5.607Y-6.243
X5.625Y-7.125
X5.671Y-2.393
X5.671Y-3.893
X5.671Y-5.393
X5.671Y-6.893
X5.753Y-2.393
X5.753Y-3.893
X5.753Y-5.393
X5.753Y-6.893
X5.8125Y-7.125
X5.837Y-2.447
X5.837Y-3.947
X5.837Y-5.447
X5.837Y-6.947
X6.0Y-7.125
X6.1762Y-2.4774
X6.1762Y-3.9774
X6.1762Y-5.4774
X6.1762Y-6.9774
X6.1875Y-7.125
X6.191Y-2.393
X6.191Y-3.893
X6.191Y-5.393
X6.191Y-6.893
X6.211Y-3.199
X6.211Y-4.699
X6.211Y-6.199
X6.2923Y-5.3829
X6.3022Y-2.4774
X6.3022Y-3.9774
X6.3022Y-5.4774
X6.3022Y-6.9774
X6.357Y-3.243
X6.357Y-4.743
X6.375Y-7.125
X6.415Y-5.425
X6.421Y-2.393
X6.421Y-3.893
X6.421Y-6.893
X6.435Y-5.365
X6.503Y-2.393
X6.503Y-3.893
X6.503Y-5.393
X6.503Y-6.893
X6.5625Y-7.125
X6.587Y-2.447
X6.587Y-3.947
X6.587Y-5.447
X6.587Y-6.947
X6.75Y-7.125
X6.9262Y-2.4774
X6.9262Y-3.9774
X6.9262Y-5.4774
X6.9262Y-6.9774
X6.9375Y-7.125
X6.941Y-2.393
X6.941Y-3.893
X6.941Y-5.393
X6.941Y-6.893
X6.961Y-3.199
X6.961Y-4.699
X6.961Y-6.199
X7.0522Y-2.4774
X7.0522Y-3.9774
X7.0522Y-5.4774
X7.0522Y-6.9774
X7.107Y-3.243
X7.107Y-4.743
X7.107Y-6.243
X7.125Y-7.125
X7.171Y-2.393
X7.171Y-3.893
X7.171Y-5.393
X7.171Y-6.893
X7.253Y-2.393
X7.253Y-3.893
X7.253Y-5.393
X7.253Y-6.893
X7.3125Y-7.125
X7.337Y-2.447
X7.337Y-3.947
X7.337Y-5.447
X7.337Y-6.947
X7.5Y-7.125
X7.6762Y-2.4774
X7.6762Y-3.9774
X7.6762Y-5.4774
X7.6762Y-6.9774
X7.6875Y-7.125
X7.691Y-2.393
X7.691Y-3.893
X7.691Y-5.393
X7.691Y-6.893
X7.711Y-3.199
X7.711Y-4.699
X7.711Y-6.199
X7.7923Y-6.8829
X7.8022Y-2.4774
X7.8022Y-3.9774
X7.8022Y-5.4774
X7.8022Y-6.9774
X7.857Y-3.243
X7.857Y-4.743
X7.857Y-6.243
X7.875Y-6.8081
X7.875Y-7.125
X7.9026Y-6.9341
X7.921Y-2.393
X7.921Y-3.893
X7.921Y-5.393
X8.003Y-2.393
X8.003Y-3.893
X8.003Y-5.393
X8.003Y-6.893
X8.0625Y-7.125
X8.087Y-2.447
X8.087Y-3.947
X8.087Y-5.447
X8.087Y-6.947
X8.25Y-7.125
X8.4262Y-2.4774
X8.4262Y-3.9774
X8.4262Y-5.4774
X8.4262Y-6.9774
X8.4375Y-7.125
X8.441Y-2.393
X8.441Y-3.893
X8.441Y-5.393
X8.441Y-6.893
X8.461Y-3.199
X8.461Y-4.699
X8.461Y-6.199
X8.5522Y-2.4774
X8.5522Y-3.9774
X8.5522Y-5.4774
X8.5522Y-6.9774
X8.607Y-3.243
X8.607Y-4.743
X8.607Y-6.243
X8.625Y-7.125
X8.671Y-2.393
X8.671Y-3.893
X8.671Y-5.393
X8.671Y-6.893
X8.753Y-2.393
X8.753Y-3.893
X8.753Y-5.393
X8.753Y-6.893
X8.8125Y-7.125
X8.837Y-2.447
X8.837Y-3.947
X8.837Y-5.447
X8.837Y-6.947
X9.0Y-7.125
X9.1762Y-2.4774
X9.1762Y-3.9774
X9.1762Y-5.4774
X9.1762Y-6.9774
X9.1875Y-7.125
X9.191Y-2.393
X9.191Y-3.893
X9.191Y-5.393
X9.191Y-6.893
X9.211Y-3.199
X9.211Y-4.699
X9.211Y-6.199
X9.3022Y-2.4774
X9.3022Y-3.9774
X9.3022Y-5.4774
X9.3022Y-6.9774
X9.357Y-3.243
X9.357Y-4.743
X9.357Y-6.243
X9.375Y-7.125
X9.421Y-2.393
X9.421Y-3.893
X9.421Y-5.393
X9.421Y-6.893
X9.503Y-2.393
X9.503Y-3.893
X9.503Y-5.393
X9.503Y-6.893
X9.5625Y-7.125
X9.587Y-2.447
X9.587Y-3.947
X9.587Y-5.447
X9.587Y-6.947
X9.75Y-7.125
X9.9262Y-2.4774
X9.9262Y-3.9774
X9.9262Y-5.4774
X9.9262Y-6.9774
X9.9375Y-7.125
X9.941Y-2.393
X9.941Y-3.893
X9.941Y-5.393
X9.941Y-6.893
X9.961Y-3.199
X9.961Y-4.699
X9.961Y-6.199
X10.0522Y-2.4774
X10.0522Y-3.9774
X10.0522Y-5.4774
X10.0522Y-6.9774
X10.107Y-3.243
X10.107Y-4.743
X10.107Y-6.243
X10.125Y-7.125
X10.171Y-2.393
X10.171Y-3.893
X10.171Y-5.393
X10.171Y-6.893
X10.253Y-2.393
X10.253Y-3.893
X10.253Y-5.393
X10.253Y-6.893
X10.3125Y-7.125
X10.337Y-2.447
X10.337Y-3.947
X10.337Y-5.447
X10.337Y-6.947
X10.5Y-7.125
X10.6762Y-2.4774
X10.6762Y-3.9774
X10.6762Y-5.4774
X10.6762Y-6.9774
X10.6875Y-7.125
X10.691Y-2.393
X10.691Y-3.893
X10.691Y-5.393
X10.691Y-6.893
X10.711Y-3.199
X10.711Y-4.699
X10.711Y-6.199
X10.8022Y-2.4774
X10.8022Y-3.9774
X10.8022Y-5.4774
X10.8022Y-6.9774
X10.857Y-3.243
X10.857Y-4.743
X10.857Y-6.243
X10.875Y-7.125
X10.921Y-2.393
X10.921Y-3.893
X10.921Y-5.393
X10.921Y-6.893
X11.003Y-2.393
X11.003Y-3.893
X11.003Y-5.393
X11.003Y-6.893
X11.0625Y-7.125
X11.087Y-2.447
X11.087Y-3.947
X11.087Y-5.447
X11.087Y-6.947
X11.25Y-7.125
X11.4262Y-2.4774
X11.4262Y-3.9774
X11.4262Y-5.4774
X11.4262Y-6.9774
X11.4375Y-7.125
X11.441Y-2.393
X11.441Y-3.893
X11.441Y-5.393
X11.441Y-6.893
X11.461Y-3.199
X11.461Y-4.699
X11.461Y-6.199
X11.5522Y-2.4774
X11.5522Y-3.9774
X11.5522Y-5.4774
X11.5522Y-6.9774
X11.607Y-3.243
X11.607Y-4.743
X11.607Y-6.243
X11.625Y-7.125
X11.671Y-2.393
X11.671Y-3.893
X11.671Y-5.393
X11.671Y-6.893
X11.753Y-2.393
X11.753Y-3.893
X11.753Y-5.393
X11.753Y-6.893
X11.8125Y-7.125
X11.837Y-2.447
X11.837Y-3.947
X11.837Y-5.447
X11.837Y-6.947
X12.0Y-7.125
X12.1762Y-2.4774
X12.1762Y-3.9774
X12.1762Y-5.4774
X12.1762Y-6.9774
X12.1875Y-7.125
X12.191Y-2.393
X12.191Y-3.893
X12.191Y-5.393
X12.191Y-6.893
X12.211Y-3.199
X12.211Y-4.699
X12.211Y-6.199
X12.3022Y-2.4774
X12.3022Y-3.9774
X12.3022Y-5.4774
X12.3022Y-6.9774
X12.357Y-3.243
X12.357Y-4.743
X12.357Y-6.243
X12.375Y-7.125
X12.421Y-2.393
X12.421Y-3.893
X12.421Y-5.393
X12.421Y-6.893
X12.503Y-2.393
X12.503Y-3.893
X12.503Y-5.393
X12.503Y-6.893
X12.5625Y-7.125
X12.587Y-2.447
X12.587Y-3.947
X12.587Y-5.447
X12.587Y-6.947
X12.75Y-7.125
X12.9262Y-2.4774
X12.9262Y-3.9774
X12.9262Y-5.4774
X12.9262Y-6.9774
X12.9375Y-7.125
X12.941Y-2.393
X12.941Y-3.893
X12.941Y-5.393
X12.941Y-6.893
X12.961Y-3.199
X12.961Y-4.699
X12.961Y-6.199
X13.0522Y-2.4774
X13.0522Y-3.9774
X13.0522Y-5.4774
X13.0522Y-6.9774
X13.107Y-3.243
X13.107Y-4.743
X13.107Y-6.243
X13.125Y-7.125
X13.171Y-2.393
X13.171Y-3.893
X13.171Y-5.393
X13.171Y-6.893
X13.253Y-2.393
X13.253Y-3.893
X13.253Y-5.393
X13.253Y-6.893
X13.3125Y-7.125
X13.337Y-2.447
X13.337Y-3.947
X13.337Y-5.447
X13.337Y-6.947
X13.5Y-7.125
X13.6762Y-2.4774
X13.6762Y-3.9774
X13.6762Y-5.4774
X13.6762Y-6.9774
X13.6875Y-7.125
X13.691Y-2.393
X13.691Y-3.893
X13.691Y-5.393
X13.691Y-6.893
X13.711Y-3.199
X13.711Y-4.699
X13.711Y-6.199
X13.7923Y-6.8829
X13.8022Y-2.4774
X13.8022Y-3.9774
X13.8022Y-5.4774
X13.8022Y-6.9774
X13.857Y-3.243
X13.857Y-4.743
X13.857Y-6.243
X13.875Y-6.8081
X13.875Y-7.125
X13.9026Y-6.9341
X13.921Y-2.393
X13.921Y-3.893
X13.921Y-5.393
X14.003Y-2.393
X14.003Y-3.893
X14.003Y-5.393
X14.003Y-6.893
X14.0625Y-7.125
X14.087Y-2.447
X14.087Y-3.947
X14.087Y-5.447
X14.087Y-6.947
X14.25Y-7.125
X14.4262Y-2.4774
X14.4262Y-3.9774
X14.4262Y-5.4774
X14.4262Y-6.9774
X14.4375Y-7.125
X14.441Y-2.393
X14.441Y-3.893
X14.441Y-5.393
X14.441Y-6.893
X14.461Y-3.199
X14.461Y-4.699
X14.461Y-6.199
X14.5522Y-2.4774
X14.5522Y-3.9774
X14.5522Y-5.4774
X14.5522Y-6.9774
X14.587Y-6.249
X14.607Y-3.243
X14.607Y-4.743
X14.625Y-7.125
X14.671Y-2.393
X14.671Y-3.893
X14.671Y-5.393
X14.671Y-6.893
X14.753Y-2.393
X14.753Y-3.893
X14.753Y-5.393
X14.753Y-6.893
X14.8125Y-7.125
X14.837Y-2.447
X14.837Y-3.947
X14.837Y-5.447
X14.837Y-6.947
X15.0Y-7.125
X15.1762Y-2.4774
X15.1762Y-3.9774
X15.1762Y-5.4774
X15.1762Y-6.9774
X15.1875Y-7.125
X15.191Y-2.393
X15.191Y-3.893
X15.191Y-5.393
X15.191Y-6.893
X15.211Y-3.199
X15.211Y-4.699
X15.211Y-6.199
X15.2923Y-5.3829
X15.3022Y-2.4774
X15.3022Y-3.9774
X15.3022Y-5.4774
X15.3022Y-6.9774
X15.357Y-3.243
X15.357Y-4.743
X15.357Y-6.243
X15.375Y-5.3081
X15.375Y-7.125
X15.4026Y-5.4341
X15.421Y-2.393
X15.421Y-3.893
X15.421Y-6.893
X15.503Y-2.393
X15.503Y-3.893
X15.503Y-5.393
X15.503Y-6.893
X15.5625Y-7.125
X15.587Y-2.447
X15.587Y-3.947
X15.587Y-5.447
X15.587Y-6.947
X15.75Y-7.125
X15.9262Y-2.4774
X15.9262Y-3.9774
X15.9262Y-5.4774
X15.9262Y-6.9774
X15.9375Y-7.125
X15.941Y-2.393
X15.941Y-3.893
X15.941Y-5.393
X15.941Y-6.893
X15.961Y-3.199
X15.961Y-4.699
X15.961Y-6.199
X16.0522Y-2.4774
X16.0522Y-3.9774
X16.0522Y-5.4774
X16.0522Y-6.9774
X16.091Y-4.747
X16.107Y-3.243
X16.107Y-6.243
X16.125Y-7.125
X16.171Y-2.393
X16.171Y-3.893
X16.171Y-5.393
X16.171Y-6.893
X16.253Y-2.393
X16.253Y-3.893
X16.253Y-5.393
X16.253Y-6.893
X16.3125Y-7.125
X16.337Y-2.447
X16.337Y-3.947
X16.337Y-5.447
X16.337Y-6.947
X16.5Y-7.125
X16.6762Y-2.4774
X16.6762Y-3.9774
X16.6762Y-5.4774
X16.6762Y-6.9774
X16.6875Y-7.125
X16.691Y-2.393
X16.691Y-3.893
X16.691Y-5.393
X16.691Y-6.893
X16.711Y-3.199
X16.711Y-4.699
X16.711Y-6.199
X16.7923Y-3.8829
X16.8022Y-2.4774
X16.8022Y-3.9774
X16.8022Y-5.4774
X16.8022Y-6.9774
X16.857Y-3.243
X16.857Y-4.743
X16.857Y-6.243
X16.875Y-3.8081
X16.875Y-7.125
X16.9026Y-3.9341
X16.921Y-2.393
X16.921Y-5.393
X16.921Y-6.893
X17.003Y-2.393
X17.003Y-3.893
X17.003Y-5.393
X17.003Y-6.893
X17.0625Y-7.125
X17.087Y-2.447
X17.087Y-3.947
X17.087Y-5.447
X17.087Y-6.947
X17.25Y-7.125
X17.2762Y-2.0075
X17.4172Y-2.0055
X17.4262Y-2.4774
X17.4262Y-3.9774
X17.4262Y-5.4774
X17.4262Y-6.9774
X17.4375Y-7.125
X17.441Y-2.393
X17.441Y-3.893
X17.441Y-5.393
X17.441Y-6.893
X17.461Y-3.199
X17.461Y-4.699
X17.461Y-6.199
X17.5522Y-2.4774
X17.5522Y-3.9774
X17.5522Y-5.4774
X17.5522Y-6.9774
X17.585Y-3.245
X17.607Y-4.743
X17.607Y-6.243
X17.625Y-1.3125
X17.625Y-1.5
X17.625Y-1.6875
X17.625Y-1.825
X17.625Y-7.125
X17.635Y-1.135
X17.659Y-3.255
X17.671Y-2.393
X17.671Y-3.893
X17.671Y-5.393
X17.671Y-6.893
X17.7303Y-1.4272
X17.753Y-2.393
X17.753Y-3.893
X17.753Y-5.393
X17.753Y-6.893
X17.8125Y-1.125
X17.8125Y-7.125
X17.837Y-2.447
X17.837Y-3.947
X17.837Y-5.447
X17.837Y-6.947
X17.8388Y-1.9168
X17.8425Y-1.2165
X17.8593Y-1.8961
X17.878Y-1.8418
X17.8978Y-1.8212
X17.9035Y-1.2717
X17.9193Y-1.8003
X17.9204Y-1.4503
X17.9204Y-1.4936
X17.925Y-1.59
X17.9394Y-1.7796
X17.944Y-1.4699
X17.944Y-1.5142
X17.951Y-1.667
X17.9912Y-1.3636
X18.0Y-1.125
X18.0Y-7.125
X18.1762Y-2.4774
X18.1762Y-3.9774
X18.1762Y-5.4774
X18.1762Y-6.9774
X18.1875Y-1.125
X18.1875Y-7.125
X18.191Y-2.393
X18.191Y-3.893
X18.191Y-5.393
X18.191Y-6.893
X18.211Y-3.199
X18.211Y-4.699
X18.211Y-6.199
X18.2923Y-2.3829
X18.3022Y-3.9774
X18.3022Y-5.4774
X18.3022Y-6.9774
X18.3046Y-1.2354
X18.339Y-1.9241
X18.357Y-3.243
X18.357Y-4.743
X18.357Y-6.243
X18.375Y-1.125
X18.375Y-2.3081
X18.375Y-7.125
X18.3934Y-1.156
X18.4026Y-2.4341
X18.4114Y-1.748
X18.4194Y-1.178
X18.421Y-3.893
X18.421Y-5.393
X18.421Y-6.893
X18.485Y-1.125
X18.503Y-2.393
X18.503Y-3.893
X18.503Y-5.393
X18.503Y-6.893
X18.505Y-1.7665
X18.545Y-1.31
X18.5625Y-7.125
X18.5689Y-1.3386
X18.587Y-2.447
X18.587Y-3.947
X18.587Y-5.447
X18.587Y-6.947
X18.5879Y-1.2629
X18.645Y-1.425
X18.6487Y-1.2729
X18.6555Y-1.5748
X18.67Y-1.52
X18.7067Y-1.3358
X18.73Y-1.53
X18.7395Y-1.5005
X18.75Y-7.125
X18.7925Y-1.5488
X18.9262Y-2.4774
X18.9262Y-3.9774
X18.9262Y-5.4774
X18.9262Y-6.9774
X18.9375Y-7.125
X18.941Y-2.393
X18.941Y-3.893
X18.941Y-5.393
X18.941Y-6.893
X18.95Y-1.9016
X18.9579Y-1.5559
X18.961Y-3.199
X18.961Y-4.699
X18.961Y-6.199
X18.9638Y-1.65
X19.035Y-2.125
X19.035Y-2.555
X19.0352Y-1.9155
X19.0522Y-3.9774
X19.0522Y-5.4774
X19.0522Y-6.9774
X19.065Y-2.125
X19.065Y-2.585
X19.065Y-1.915
X19.09Y-2.61
X19.095Y-1.915
X19.107Y-3.243
X19.107Y-4.743
X19.107Y-6.243
X19.12Y-2.64
X19.125Y-1.915
X19.125Y-7.125
X19.145Y-2.665
X19.165Y-1.555
X19.171Y-3.893
X19.171Y-5.393
X19.171Y-6.893
X19.175Y-2.695
X19.177Y-1.915
X19.1941Y-1.5807
X19.1941Y-1.6093
X19.205Y-2.567
X19.207Y-2.675
X19.2303Y-1.75
X19.2303Y-1.915
X19.253Y-2.393
X19.253Y-3.893
X19.253Y-5.393
X19.253Y-6.893
X19.259Y-1.75
X19.259Y-1.915
X19.3125Y-7.125
X19.315Y-1.915
X19.337Y-2.447
X19.337Y-3.947
X19.337Y-5.447
X19.337Y-6.947
X19.35Y-1.255
X19.5Y-1.125
X19.5Y-7.125
X19.553Y-1.915
X19.643Y-1.909
X19.6762Y-2.4774
X19.6762Y-3.9774
X19.6762Y-5.4774
X19.6762Y-6.9774
X19.6875Y-1.125
X19.6875Y-7.125
X19.691Y-2.393
X19.691Y-3.893
X19.691Y-5.393
X19.691Y-6.893
X19.709Y-2.127
X19.711Y-3.199
X19.711Y-4.699
X19.711Y-6.199
X19.749Y-1.909
X19.755Y-1.973
X19.769Y-4.721
X19.771Y-3.225
X19.771Y-5.159
X19.773Y-4.965
X19.7736Y-2.4774
X19.7736Y-3.9774
X19.7736Y-5.4774
X19.775Y-4.589
X19.8022Y-6.9774
X19.833Y-6.251
X19.875Y-1.125
X19.875Y-7.125
X19.9043Y-1.7743
X19.921Y-3.893
X19.921Y-5.393
X19.921Y-6.893
X19.929Y-2.579
X19.941Y-1.971
X19.941Y-2.073
X20.003Y-2.393
X20.003Y-3.893
X20.003Y-5.393
X20.003Y-6.893
X20.0625Y-1.125
X20.0625Y-7.125
X20.063Y-3.279
X20.073Y-6.283
X20.087Y-2.447
X20.087Y-3.947
X20.087Y-5.447
X20.087Y-6.947
X20.25Y-1.125
X20.25Y-7.125
X20.399Y-3.281
X20.399Y-6.285
X20.4262Y-2.4774
X20.4262Y-3.9774
X20.4262Y-5.4774
X20.4262Y-6.9774
X20.4375Y-1.125
X20.4375Y-7.125
X20.441Y-2.393
X20.441Y-3.893
X20.441Y-5.393
X20.441Y-6.893
X20.461Y-3.199
X20.461Y-4.699
X20.461Y-6.199
X20.5522Y-2.4774
X20.5522Y-3.9774
X20.5522Y-5.4774
X20.5522Y-6.9774
X20.615Y-1.135
X20.615Y-7.115
X20.625Y-1.3125
X20.625Y-1.5
X20.625Y-1.6875
X20.625Y-1.875
X20.625Y-2.0625
X20.625Y-2.4375
X20.625Y-2.625
X20.625Y-2.8125
X20.625Y-3.0
X20.625Y-3.1875
X20.625Y-3.375
X20.625Y-3.5625
X20.625Y-3.75
X20.625Y-3.9375
X20.625Y-4.125
X20.625Y-4.3125
X20.625Y-4.5
X20.625Y-4.6875
X20.625Y-4.875
X20.625Y-5.0625
X20.625Y-5.25
X20.625Y-5.4375
X20.625Y-5.625
X20.625Y-5.8125
X20.625Y-6.0
X20.625Y-6.1875
X20.625Y-6.375
X20.625Y-6.5625
X20.625Y-6.75
X20.625Y-6.9375
T2
X1.2102Y-2.4008
X1.2102Y-3.1508
X1.2102Y-3.9008
X1.2102Y-4.6508
X1.2102Y-5.4008
X1.2102Y-6.1508
X1.2102Y-6.9008
X1.6886Y-3.2295
X1.6886Y-4.7295
X1.6886Y-6.2295
X1.6888Y-3.3179
X1.6888Y-4.8179
X1.6888Y-6.3179
X1.9602Y-2.4008
X1.9602Y-3.1508
X1.9602Y-3.9008
X1.9602Y-4.6508
X1.9602Y-5.4008
X1.9602Y-6.1508
X1.9602Y-6.9008
X2.4284Y-1.774
X2.4386Y-3.2295
X2.4386Y-4.7295
X2.4386Y-6.2295
X2.4388Y-3.3179
X2.4388Y-4.8179
X2.4388Y-6.3179
X2.7102Y-2.4008
X2.7102Y-3.1508
X2.7102Y-3.9008
X2.7102Y-4.6508
X2.7102Y-5.4008
X2.7102Y-6.1508
X2.7102Y-6.9008
X3.1886Y-3.2295
X3.1886Y-4.7295
X3.1886Y-6.2295
X3.1888Y-3.3179
X3.1888Y-4.8179
X3.1888Y-6.3179
X3.375Y-2.0625
X3.375Y-2.1562
X3.4602Y-2.4008
X3.4602Y-3.1508
X3.4602Y-3.9008
X3.4602Y-4.6508
X3.4602Y-5.4008
X3.4602Y-6.1508
X3.4602Y-6.9008
X3.75Y-3.375
X3.8438Y-3.375
X3.9386Y-3.2295
X3.9386Y-4.7295
X3.9386Y-6.2295
X3.9388Y-3.3179
X3.9388Y-4.8179
X3.9388Y-6.3179
X4.0194Y-1.823
X4.2102Y-2.4008
X4.2102Y-3.1508
X4.2102Y-3.9008
X4.2102Y-4.6508
X4.2102Y-5.4008
X4.2102Y-6.1508
X4.2102Y-6.9008
X4.6886Y-3.2295
X4.6886Y-4.7295
X4.6886Y-6.2295
X4.6888Y-3.3179
X4.6888Y-4.8179
X4.6888Y-6.3179
X4.875Y-3.5625
X4.875Y-3.6562
X4.9602Y-2.4008
X4.9602Y-3.1508
X4.9602Y-3.9008
X4.9602Y-4.6508
X4.9602Y-5.4008
X4.9602Y-6.1508
X4.9602Y-6.9008
X5.1562Y-4.875
X5.25Y-4.875
X5.4386Y-3.2295
X5.4386Y-4.7295
X5.4386Y-6.2295
X5.4388Y-3.3179
X5.4388Y-4.8179
X5.4388Y-6.3179
X5.7102Y-2.4008
X5.7102Y-3.1508
X5.7102Y-3.9008
X5.7102Y-4.6508
X5.7102Y-5.4008
X5.7102Y-6.1508
X5.7102Y-6.9008
X6.1886Y-3.2295
X6.1886Y-4.7295
X6.1886Y-6.2295
X6.1888Y-3.3179
X6.1888Y-4.8179
X6.1888Y-6.3179
X6.375Y-5.0625
X6.375Y-5.1562
X6.4602Y-2.4008
X6.4602Y-3.1508
X6.4602Y-3.9008
X6.4602Y-4.6508
X6.4602Y-5.4008
X6.4602Y-6.1508
X6.4602Y-6.9008
X6.6562Y-6.375
X6.75Y-6.375
X6.9386Y-3.2295
X6.9386Y-4.7295
X6.9386Y-6.2295
X6.9388Y-3.3179
X6.9388Y-4.8179
X6.9388Y-6.3179
X7.2102Y-2.4008
X7.2102Y-3.1508
X7.2102Y-3.9008
X7.2102Y-4.6508
X7.2102Y-5.4008
X7.2102Y-6.1508
X7.2102Y-6.9008
X7.6886Y-3.2295
X7.6886Y-4.7295
X7.6886Y-6.2295
X7.6888Y-3.3179
X7.6888Y-4.8179
X7.6888Y-6.3179
X7.9602Y-2.4008
X7.9602Y-3.1508
X7.9602Y-3.9008
X7.9602Y-4.6508
X7.9602Y-5.4008
X7.9602Y-6.1508
X7.9602Y-6.9008
X8.4386Y-3.2295
X8.4386Y-4.7295
X8.4386Y-6.2295
X8.4388Y-3.3179
X8.4388Y-4.8179
X8.4388Y-6.3179
X8.7102Y-2.4008
X8.7102Y-3.1508
X8.7102Y-3.9008
X8.7102Y-4.6508
X8.7102Y-5.4008
X8.7102Y-6.1508
X8.7102Y-6.9008
X9.1886Y-3.2295
X9.1886Y-4.7295
X9.1886Y-6.2295
X9.1888Y-3.3179
X9.1888Y-4.8179
X9.1888Y-6.3179
X9.4602Y-2.4008
X9.4602Y-3.1508
X9.4602Y-3.9008
X9.4602Y-4.6508
X9.4602Y-5.4008
X9.4602Y-6.1508
X9.4602Y-6.9008
X9.9386Y-3.2295
X9.9386Y-4.7295
X9.9386Y-6.2295
X9.9388Y-3.3179
X9.9388Y-4.8179
X9.9388Y-6.3179
X10.2102Y-2.4008
X10.2102Y-3.1508
X10.2102Y-3.9008
X10.2102Y-4.6508
X10.2102Y-5.4008
X10.2102Y-6.1508
X10.2102Y-6.9008
X10.6886Y-3.2295
X10.6886Y-4.7295
X10.6886Y-6.2295
X10.6888Y-3.3179
X10.6888Y-4.8179
X10.6888Y-6.3179
X10.9602Y-2.4008
X10.9602Y-3.1508
X10.9602Y-3.9008
X10.9602Y-4.6508
X10.9602Y-5.4008
X10.9602Y-6.1508
X10.9602Y-6.9008
X11.4386Y-3.2295
X11.4386Y-4.7295
X11.4386Y-6.2295
X11.4388Y-3.3179
X11.4388Y-4.8179
X11.4388Y-6.3179
X11.7102Y-2.4008
X11.7102Y-3.1508
X11.7102Y-3.9008
X11.7102Y-4.6508
X11.7102Y-5.4008
X11.7102Y-6.1508
X11.7102Y-6.9008
X12.1886Y-3.2295
X12.1886Y-4.7295
X12.1886Y-6.2295
X12.1888Y-3.3179
X12.1888Y-4.8179
X12.1888Y-6.3179
X12.4602Y-2.4008
X12.4602Y-3.1508
X12.4602Y-3.9008
X12.4602Y-4.6508
X12.4602Y-5.4008
X12.4602Y-6.1508
X12.4602Y-6.9008
X12.9386Y-3.2295
X12.9386Y-4.7295
X12.9386Y-6.2295
X12.9388Y-3.3179
X12.9388Y-4.8179
X12.9388Y-6.3179
X13.2102Y-2.4008
X13.2102Y-3.1508
X13.2102Y-3.9008
X13.2102Y-4.6508
X13.2102Y-5.4008
X13.2102Y-6.1508
X13.2102Y-6.9008
X13.6886Y-3.2295
X13.6886Y-4.7295
X13.6886Y-6.2295
X13.6888Y-3.3179
X13.6888Y-4.8179
X13.6888Y-6.3179
X13.9602Y-2.4008
X13.9602Y-3.1508
X13.9602Y-3.9008
X13.9602Y-4.6508
X13.9602Y-5.4008
X13.9602Y-6.1508
X13.9602Y-6.9008
X14.4386Y-3.2295
X14.4386Y-4.7295
X14.4386Y-6.2295
X14.4388Y-3.3179
X14.4388Y-4.8179
X14.4388Y-6.3179
X14.625Y-6.4355
X14.7102Y-2.4008
X14.7102Y-3.1508
X14.7102Y-3.9008
X14.7102Y-4.6508
X14.7102Y-5.4008
X14.7102Y-6.1508
X14.7102Y-6.9008
X14.715Y-6.4955
X15.1886Y-3.2295
X15.1886Y-4.7295
X15.1886Y-6.2295
X15.1888Y-3.3179
X15.1888Y-4.8179
X15.1888Y-6.3179
X15.4602Y-2.4008
X15.4602Y-3.1508
X15.4602Y-3.9008
X15.4602Y-4.6508
X15.4602Y-5.4008
X15.4602Y-6.1508
X15.4602Y-6.9008
X15.9386Y-3.2295
X15.9386Y-4.7295
X15.9386Y-6.2295
X15.9388Y-3.3179
X15.9388Y-4.8179
X15.9388Y-6.3179
X16.125Y-4.9355
X16.2102Y-2.4008
X16.2102Y-3.1508
X16.2102Y-3.9008
X16.2102Y-4.6508
X16.2102Y-5.4008
X16.2102Y-6.1508
X16.2102Y-6.9008
X16.215Y-4.9955
X16.6886Y-3.2295
X16.6886Y-4.7295
X16.6886Y-6.2295
X16.6888Y-3.3179
X16.6888Y-4.8179
X16.6888Y-6.3179
X16.9602Y-2.4008
X16.9602Y-3.1508
X16.9602Y-3.9008
X16.9602Y-4.6508
X16.9602Y-5.4008
X16.9602Y-6.1508
X16.9602Y-6.9008
X17.4386Y-3.2295
X17.4386Y-4.7295
X17.4386Y-6.2295
X17.4388Y-3.3179
X17.4388Y-4.8179
X17.4388Y-6.3179
X17.625Y-3.4355
X17.7102Y-2.4008
X17.7102Y-3.1508
X17.7102Y-3.9008
X17.7102Y-4.6508
X17.7102Y-5.4008
X17.7102Y-6.1508
X17.7102Y-6.9008
X17.715Y-3.4955
X17.735Y-1.29
X17.895Y-1.617
X18.129Y-1.3164
X18.1324Y-1.147
X18.1673Y-1.2283
X18.1875Y-1.3225
X18.1886Y-3.2295
X18.1886Y-4.7295
X18.1886Y-6.2295
X18.1888Y-3.3179
X18.1888Y-4.8179
X18.1888Y-6.3179
X18.2051Y-1.7764
X18.2461Y-1.9154
X18.277Y-2.165
X18.2944Y-1.4975
X18.297Y-2.241
X18.3Y-1.145
X18.3071Y-1.8543
X18.323Y-1.967
X18.3338Y-1.4581
X18.3338Y-1.5369
X18.3731Y-1.4188
X18.3731Y-1.4975
X18.3731Y-1.5762
X18.4125Y-1.3794
X18.4125Y-1.4581
X18.4125Y-1.5369
X18.4125Y-1.6156
X18.413Y-1.863
X18.413Y-1.941
X18.4519Y-1.4188
X18.4519Y-1.4975
X18.4519Y-1.5762
X18.4602Y-2.4008
X18.4602Y-3.1508
X18.4602Y-3.9008
X18.4602Y-4.6508
X18.4602Y-5.4008
X18.4602Y-6.1508
X18.4602Y-6.9008
X18.4912Y-1.4581
X18.4912Y-1.5369
X18.511Y-2.311
X18.5306Y-1.4975
X18.645Y-1.863
X18.677Y-1.941
X18.8386Y-1.2441
X18.9386Y-3.2295
X18.9386Y-4.7295
X18.9386Y-6.2295
X18.9388Y-3.3179
X18.9388Y-4.8179
X18.9388Y-6.3179
X18.949Y-2.315
X18.955Y-2.129
X19.0689Y-1.2638
X19.153Y-2.015
X19.1673Y-1.3661
X19.1713Y-1.6437
X19.2102Y-2.4008
X19.2102Y-3.1508
X19.2102Y-3.9008
X19.2102Y-4.6508
X19.2102Y-5.4008
X19.2102Y-6.1508
X19.2102Y-6.9008
X19.2181Y-1.2656
X19.245Y-2.317
X19.605Y-1.6583
X19.6886Y-3.2295
X19.6886Y-4.7295
X19.6886Y-6.2295
X19.6888Y-3.3179
X19.6888Y-4.8179
X19.6888Y-6.3179
X19.7248Y-1.7398
X19.8551Y-1.6575
X19.9028Y-3.2805
X19.9028Y-4.0305
X19.9028Y-4.7805
X19.9028Y-5.5305
X19.9028Y-6.2805
X19.9028Y-7.0305
X19.9104Y-2.5305
X19.9602Y-2.4008
X19.9602Y-3.1508
X19.9602Y-3.9008
X19.9602Y-4.6508
X19.9602Y-5.4008
X19.9602Y-6.1508
X19.9602Y-6.9008
X19.99Y-2.57
T3
X1.2102Y-2.15
X1.2102Y-2.9
X1.2102Y-3.65
X1.2102Y-4.4
X1.2102Y-5.15
X1.2102Y-5.9
X1.2102Y-6.65
X1.7398Y-2.05
X1.7398Y-2.8
X1.7398Y-3.55
X1.7398Y-4.3
X1.7398Y-5.05
X1.7398Y-5.8
X1.7398Y-6.55
X1.9602Y-2.15
X1.9602Y-2.9
X1.9602Y-3.65
X1.9602Y-4.4
X1.9602Y-5.15
X1.9602Y-5.9
X1.9602Y-6.65
X2.4898Y-2.05
X2.4898Y-2.8
X2.4898Y-3.55
X2.4898Y-4.3
X2.4898Y-5.05
X2.4898Y-5.8
X2.4898Y-6.55
X2.7102Y-2.15
X2.7102Y-2.9
X2.7102Y-3.65
X2.7102Y-4.4
X2.7102Y-5.15
X2.7102Y-5.9
X2.7102Y-6.65
X3.2398Y-2.05
X3.2398Y-2.8
X3.2398Y-3.55
X3.2398Y-4.3
X3.2398Y-5.05
X3.2398Y-5.8
X3.2398Y-6.55
X3.4602Y-2.15
X3.4602Y-2.9
X3.4602Y-3.65
X3.4602Y-4.4
X3.4602Y-5.15
X3.4602Y-5.9
X3.4602Y-6.65
X3.9898Y-2.05
X3.9898Y-2.8
X3.9898Y-3.55
X3.9898Y-4.3
X3.9898Y-5.05
X3.9898Y-5.8
X3.9898Y-6.55
X4.2102Y-2.15
X4.2102Y-2.9
X4.2102Y-3.65
X4.2102Y-4.4
X4.2102Y-5.15
X4.2102Y-5.9
X4.2102Y-6.65
X4.7398Y-2.05
X4.7398Y-2.8
X4.7398Y-3.55
X4.7398Y-4.3
X4.7398Y-5.05
X4.7398Y-5.8
X4.7398Y-6.55
X4.9602Y-2.15
X4.9602Y-2.9
X4.9602Y-3.65
X4.9602Y-4.4
X4.9602Y-5.15
X4.9602Y-5.9
X4.9602Y-6.65
X5.4898Y-2.05
X5.4898Y-2.8
X5.4898Y-3.55
X5.4898Y-4.3
X5.4898Y-5.05
X5.4898Y-5.8
X5.4898Y-6.55
X5.7102Y-2.15
X5.7102Y-2.9
X5.7102Y-3.65
X5.7102Y-4.4
X5.7102Y-5.15
X5.7102Y-5.9
X5.7102Y-6.65
X6.2398Y-2.05
X6.2398Y-2.8
X6.2398Y-3.55
X6.2398Y-4.3
X6.2398Y-5.05
X6.2398Y-5.8
X6.2398Y-6.55
X6.4602Y-2.15
X6.4602Y-2.9
X6.4602Y-3.65
X6.4602Y-4.4
X6.4602Y-5.15
X6.4602Y-5.9
X6.4602Y-6.65
X6.9898Y-2.05
X6.9898Y-2.8
X6.9898Y-3.55
X6.9898Y-4.3
X6.9898Y-5.05
X6.9898Y-5.8
X6.9898Y-6.55
X7.2102Y-2.15
X7.2102Y-2.9
X7.2102Y-3.65
X7.2102Y-4.4
X7.2102Y-5.15
X7.2102Y-5.9
X7.2102Y-6.65
X7.7398Y-2.05
X7.7398Y-2.8
X7.7398Y-3.55
X7.7398Y-4.3
X7.7398Y-5.05
X7.7398Y-5.8
X7.7398Y-6.55
X7.9602Y-2.15
X7.9602Y-2.9
X7.9602Y-3.65
X7.9602Y-4.4
X7.9602Y-5.15
X7.9602Y-5.9
X7.9602Y-6.65
X8.4898Y-2.05
X8.4898Y-2.8
X8.4898Y-3.55
X8.4898Y-4.3
X8.4898Y-5.05
X8.4898Y-5.8
X8.4898Y-6.55
X8.7102Y-2.15
X8.7102Y-2.9
X8.7102Y-3.65
X8.7102Y-4.4
X8.7102Y-5.15
X8.7102Y-5.9
X8.7102Y-6.65
X9.2398Y-2.05
X9.2398Y-2.8
X9.2398Y-3.55
X9.2398Y-4.3
X9.2398Y-5.05
X9.2398Y-5.8
X9.2398Y-6.55
X9.4602Y-2.15
X9.4602Y-2.9
X9.4602Y-3.65
X9.4602Y-4.4
X9.4602Y-5.15
X9.4602Y-5.9
X9.4602Y-6.65
X9.9898Y-2.05
X9.9898Y-2.8
X9.9898Y-3.55
X9.9898Y-4.3
X9.9898Y-5.05
X9.9898Y-5.8
X9.9898Y-6.55
X10.2102Y-2.15
X10.2102Y-2.9
X10.2102Y-3.65
X10.2102Y-4.4
X10.2102Y-5.15
X10.2102Y-5.9
X10.2102Y-6.65
X10.7398Y-2.05
X10.7398Y-2.8
X10.7398Y-3.55
X10.7398Y-4.3
X10.7398Y-5.05
X10.7398Y-5.8
X10.7398Y-6.55
X10.9602Y-2.15
X10.9602Y-2.9
X10.9602Y-3.65
X10.9602Y-4.4
X10.9602Y-5.15
X10.9602Y-5.9
X10.9602Y-6.65
X11.4898Y-2.05
X11.4898Y-2.8
X11.4898Y-3.55
X11.4898Y-4.3
X11.4898Y-5.05
X11.4898Y-5.8
X11.4898Y-6.55
X11.7102Y-2.15
X11.7102Y-2.9
X11.7102Y-3.65
X11.7102Y-4.4
X11.7102Y-5.15
X11.7102Y-5.9
X11.7102Y-6.65
X12.2398Y-2.05
X12.2398Y-2.8
X12.2398Y-3.55
X12.2398Y-4.3
X12.2398Y-5.05
X12.2398Y-5.8
X12.2398Y-6.55
X12.4602Y-2.15
X12.4602Y-2.9
X12.4602Y-3.65
X12.4602Y-4.4
X12.4602Y-5.15
X12.4602Y-5.9
X12.4602Y-6.65
X12.9898Y-2.05
X12.9898Y-2.8
X12.9898Y-3.55
X12.9898Y-4.3
X12.9898Y-5.05
X12.9898Y-5.8
X12.9898Y-6.55
X13.2102Y-2.15
X13.2102Y-2.9
X13.2102Y-3.65
X13.2102Y-4.4
X13.2102Y-5.15
X13.2102Y-5.9
X13.2102Y-6.65
X13.7398Y-2.05
X13.7398Y-2.8
X13.7398Y-3.55
X13.7398Y-4.3
X13.7398Y-5.05
X13.7398Y-5.8
X13.7398Y-6.55
X13.9602Y-2.15
X13.9602Y-2.9
X13.9602Y-3.65
X13.9602Y-4.4
X13.9602Y-5.15
X13.9602Y-5.9
X13.9602Y-6.65
X14.4898Y-2.05
X14.4898Y-2.8
X14.4898Y-3.55
X14.4898Y-4.3
X14.4898Y-5.05
X14.4898Y-5.8
X14.4898Y-6.55
X14.7102Y-2.15
X14.7102Y-2.9
X14.7102Y-3.65
X14.7102Y-4.4
X14.7102Y-5.15
X14.7102Y-5.9
X14.7102Y-6.65
X15.2398Y-2.05
X15.2398Y-2.8
X15.2398Y-3.55
X15.2398Y-4.3
X15.2398Y-5.05
X15.2398Y-5.8
X15.2398Y-6.55
X15.4602Y-2.15
X15.4602Y-2.9
X15.4602Y-3.65
X15.4602Y-4.4
X15.4602Y-5.15
X15.4602Y-5.9
X15.4602Y-6.65
X15.9898Y-2.05
X15.9898Y-2.8
X15.9898Y-3.55
X15.9898Y-4.3
X15.9898Y-5.05
X15.9898Y-5.8
X15.9898Y-6.55
X16.2102Y-2.15
X16.2102Y-2.9
X16.2102Y-3.65
X16.2102Y-4.4
X16.2102Y-5.15
X16.2102Y-5.9
X16.2102Y-6.65
X16.7398Y-2.05
X16.7398Y-2.8
X16.7398Y-3.55
X16.7398Y-4.3
X16.7398Y-5.05
X16.7398Y-5.8
X16.7398Y-6.55
X16.9602Y-2.15
X16.9602Y-2.9
X16.9602Y-3.65
X16.9602Y-4.4
X16.9602Y-5.15
X16.9602Y-5.9
X16.9602Y-6.65
X17.4898Y-2.05
X17.4898Y-2.8
X17.4898Y-3.55
X17.4898Y-4.3
X17.4898Y-5.05
X17.4898Y-5.8
X17.4898Y-6.55
X17.7102Y-2.15
X17.7102Y-2.9
X17.7102Y-3.65
X17.7102Y-4.4
X17.7102Y-5.15
X17.7102Y-5.9
X17.7102Y-6.65
X18.2398Y-2.05
X18.2398Y-2.8
X18.2398Y-3.55
X18.2398Y-4.3
X18.2398Y-5.05
X18.2398Y-5.8
X18.2398Y-6.55
X18.4602Y-2.15
X18.4602Y-2.9
X18.4602Y-3.65
X18.4602Y-4.4
X18.4602Y-5.15
X18.4602Y-5.9
X18.4602Y-6.65
X18.9898Y-2.05
X18.9898Y-2.8
X18.9898Y-3.55
X18.9898Y-4.3
X18.9898Y-5.05
X18.9898Y-5.8
X18.9898Y-6.55
X19.2102Y-2.15
X19.2102Y-2.9
X19.2102Y-3.65
X19.2102Y-4.4
X19.2102Y-5.15
X19.2102Y-5.9
X19.2102Y-6.65
X19.7398Y-2.05
X19.7398Y-2.8
X19.7398Y-3.55
X19.7398Y-4.3
X19.7398Y-5.05
X19.7398Y-5.8
X19.7398Y-6.55
X19.9602Y-2.15
X19.9602Y-2.9
X19.9602Y-3.65
X19.9602Y-4.4
X19.9602Y-5.15
X19.9602Y-5.9
X19.9602Y-6.65
X20.4898Y-2.05
X20.4898Y-2.8
X20.4898Y-3.55
X20.4898Y-4.3
X20.4898Y-5.05
X20.4898Y-5.8
X20.4898Y-6.55
T4
X1.2244Y-1.4016
X1.2244Y-1.5984
X1.7953Y-1.4016
X1.7953Y-1.5
X1.7953Y-1.5984
X2.5266Y-1.2047
X2.5266Y-1.7756
X2.625Y-1.2047
X2.7234Y-1.2047
X2.7234Y-1.7756
X3.6516Y-1.2047
X3.6516Y-1.7756
X3.75Y-1.2047
X3.8484Y-1.2047
X3.8484Y-1.7756
X18.06Y-1.35
X18.06Y-1.45
X18.06Y-1.55
X18.06Y-1.65
X18.9Y-1.2703
X18.9Y-1.3703
X18.9Y-1.4703
X19.0Y-1.2703
X19.0Y-1.3703
X19.0Y-1.4703
X19.9744Y-1.4016
X19.9744Y-1.5984
X20.5453Y-1.4016
X20.5453Y-1.5
X20.5453Y-1.5984
T5
X3.1875Y-1.4904
T3
G00X3.091Y-1.1478
M15
G01X3.091Y-1.1793
M16
G05
G00X3.091Y-1.3447
M15
G01X3.091Y-1.3762
M16
G05
G00X3.284Y-1.1478
M15
G01X3.284Y-1.1793
M16
G05
G00X3.284Y-1.3447
M15
G01X3.284Y-1.3762
M16
G05
T6
G00X1.5197Y-1.2795
M15
G01X1.4803Y-1.2795
M16
G05
G00X1.5197Y-1.7205
M15
G01X1.4803Y-1.7205
M16
G05
G00X2.4045Y-1.4803
M15
G01X2.4045Y-1.5197
M16
G05
G00X2.8455Y-1.4803
M15
G01X2.8455Y-1.5197
M16
G05
G00X3.5295Y-1.4803
M15
G01X3.5295Y-1.5197
M16
G05
G00X3.9705Y-1.4803
M15
G01X3.9705Y-1.5197
M16
G05
G00X20.2697Y-1.2795
M15
G01X20.2303Y-1.2795
M16
G05
G00X20.2697Y-1.7205
M15
G01X20.2303Y-1.7205
M16
G05
T0
M30
